<svg width="244" height="179" viewBox="0 0 244 179" fill="none" xmlns="http://www.w3.org/2000/svg">
<path d="M8.00154 42.4339L9.95275 28.2677L0.356445 17.771L14.7902 15.4656L21.7361 2.16943L28.9855 15.2201L44.238 16.7349L34.6433 27.6827L36.3923 41.9429L22.1182 35.3524L8.00154 42.4339Z" fill="#FCC605"/>
<path d="M207.764 42.4339L209.715 28.2677L200.119 17.771L214.552 15.4656L221.498 2.16943L228.748 15.2201L244 16.7349L234.406 27.6827L236.155 41.9429L221.881 35.3524L207.764 42.4339Z" fill="#FCC605"/>
<path d="M166.522 44.6622L177.875 36.2495L177.091 35.9415L166.522 44.6622Z" fill="#232528"/>
<path d="M166.742 44.8482L178.185 35.9385L176.647 35.5798L166.742 44.8482Z" fill="#232528"/>
<path d="M196.422 57.351L191.208 75.4933C191.208 75.4933 192.102 78.3815 195.232 78.1833C198.363 77.9841 206.065 64.2373 206.065 64.2373L206.86 50.6406L200.55 55.3721L196.422 57.351Z" fill="#FAA89B"/>
<path d="M203.449 56.0177C199.856 58.0237 197.347 57.5037 196.419 57.3704L194.137 65.3048C194.138 65.4719 194.148 65.5625 194.148 65.5625L203.449 56.0177Z" fill="#232528"/>
<path d="M182.456 160.054L182.681 164.891L188.344 166.55L194.609 165.348L194.7 159.824L182.456 160.054Z" fill="#FAA89B"/>
<path d="M199.765 159.18L199.935 165.584L206.76 166.939L212.386 166.057L212.48 160.336L199.765 159.18Z" fill="#FAA89B"/>
<path d="M183.068 103.072C182.831 104.584 178.94 123.765 179.02 136.975C179.067 144.951 181.161 160.449 181.163 160.447L196.644 160.291L194.262 140.872L195.612 133.073C196.611 142.564 197.681 154.837 198.183 160.316L215.254 160.784L213.108 109.729C213.108 109.729 183.098 102.883 183.068 103.072Z" fill="#1F6066"/>
<path d="M182.703 164.833C180.369 165.068 172.026 169.657 171.984 174.417L195.406 172.596C195.406 172.596 195.265 165.462 194.79 165.197C194.316 164.93 192.368 165.362 188.723 165.488C186.606 165.561 183.697 164.733 182.703 164.833Z" fill="#B4453A"/>
<path d="M171.993 173.935C171.285 174.537 171.559 175.68 172.335 176.431C173.11 177.184 184.837 176.285 184.837 176.285C184.837 176.285 194.106 175.607 194.942 175.346C195.779 175.085 196.352 173.393 195.512 172.389C195.512 172.389 172.702 173.332 171.993 173.935Z" fill="#FFEEE3"/>
<path d="M175.293 176.961C172.552 176.961 172.301 176.717 172.176 176.596C171.643 176.08 171.337 175.409 171.356 174.802C171.37 174.381 171.539 174.021 171.845 173.76C171.995 173.632 172.347 173.334 184.006 172.707C189.733 172.399 195.446 172.162 195.503 172.16C195.574 172.157 195.642 172.187 195.688 172.242C196.136 172.778 196.271 173.551 196.048 174.311C195.863 174.942 195.466 175.422 195.01 175.564C194.159 175.83 185.233 176.485 184.854 176.513C184.825 176.515 181.884 176.74 178.886 176.869C177.364 176.935 176.194 176.961 175.293 176.961ZM172.133 174.116C171.93 174.293 171.822 174.528 171.813 174.816C171.798 175.29 172.059 175.845 172.494 176.267C172.98 176.689 179.143 176.492 184.82 176.056C187.391 175.868 194.209 175.335 194.874 175.127C195.181 175.031 195.469 174.66 195.61 174.182C195.777 173.611 195.7 173.037 195.404 172.622C186.436 172.995 172.944 173.695 172.133 174.116Z" fill="#252729"/>
<path d="M199.957 165.523C197.522 165.767 188.813 170.518 188.77 175.449L213.217 173.562C213.217 173.562 213.749 166.681 212.384 166.014C211.574 165.618 210.035 166.296 206.535 166.075C203.035 165.854 201.161 165.403 199.957 165.523Z" fill="#B4453A"/>
<path d="M188.778 174.949C188.039 175.574 188.325 176.757 189.134 177.535C189.943 178.314 202.185 177.383 202.185 177.383C202.185 177.383 211.861 176.681 212.734 176.411C213.606 176.139 214.205 174.388 213.329 173.348C213.329 173.348 189.517 174.325 188.778 174.949Z" fill="#FFEEE3"/>
<path d="M192.213 178.076C189.366 178.076 189.106 177.825 188.976 177.701C188.422 177.167 188.103 176.474 188.123 175.847C188.138 175.414 188.313 175.043 188.631 174.774C188.786 174.643 189.151 174.335 201.318 173.686C207.296 173.368 213.26 173.122 213.319 173.12C213.39 173.116 213.458 173.147 213.503 173.201C213.967 173.751 214.108 174.546 213.881 175.328C213.689 175.983 213.276 176.482 212.801 176.63C211.913 176.904 202.598 177.583 202.202 177.612C202.172 177.614 199.102 177.846 195.973 177.98C194.378 178.048 193.154 178.076 192.213 178.076ZM188.918 175.131C188.704 175.315 188.59 175.561 188.58 175.862C188.564 176.354 188.837 176.932 189.293 177.37C189.789 177.81 196.228 177.606 202.168 177.155C204.853 176.96 211.97 176.407 212.666 176.192C212.991 176.091 213.296 175.701 213.442 175.199C213.615 174.606 213.532 174.011 213.221 173.582C203.848 173.968 189.744 174.694 188.918 175.131Z" fill="#232528"/>
<path d="M198.693 107.728C198.569 107.709 198.452 107.797 198.433 107.922C197.681 112.846 197.394 122.957 197.798 130.292C197.945 132.984 198.345 138.033 198.933 144.754C198.984 145.334 199.705 153.371 200.022 156.804C200.109 157.752 200.268 159.452 200.354 160.376L200.814 160.387C200.731 159.491 200.564 157.722 200.476 156.762C200.158 153.329 199.441 145.295 199.39 144.715C198.803 137.999 198.399 132.953 198.251 130.267C197.849 122.962 198.137 112.879 198.883 107.989C198.902 107.864 198.818 107.748 198.693 107.728Z" fill="#32767C"/>
<path d="M201.397 107.324C201.272 107.305 201.153 107.396 201.136 107.521C200.925 108.999 200.557 113.301 200.321 117.641C199.986 123.843 199.901 129.908 200.158 135.252C200.229 136.748 200.32 138.319 200.432 139.956C200.645 143.067 200.92 146.362 201.247 149.754C201.525 152.636 201.824 155.428 202.121 158.022C202.196 158.679 202.316 159.68 202.407 160.43L202.871 160.444C202.784 159.717 202.652 158.644 202.575 157.968C202.278 155.377 201.981 152.59 201.704 149.712C201.377 146.323 201.098 143.031 200.886 139.924C200.774 138.29 200.683 136.723 200.611 135.232C200.356 129.903 200.443 123.854 200.779 117.666C201.014 113.337 201.381 109.048 201.59 107.585C201.607 107.46 201.521 107.342 201.397 107.324Z" fill="#32767C"/>
<path d="M202.514 107.327C202.45 108.858 202.453 121.851 202.589 131.524C202.79 145.912 203.242 156.241 203.996 160.477L204.46 160.487C203.703 156.358 203.245 145.98 203.042 131.52C202.907 121.902 202.909 109.048 202.971 107.431C202.766 107.384 202.723 107.374 202.514 107.327Z" fill="#32767C"/>
<path d="M211.38 109.378C211.254 109.374 211.149 109.473 211.144 109.599C211.074 111.424 212.466 155.025 212.754 160.716L213.208 160.727C212.929 155.234 211.533 111.421 211.601 109.618C211.606 109.492 211.506 109.383 211.38 109.378Z" fill="#32767C"/>
<path d="M207.494 108.459C207.476 108.787 207.445 109.385 207.445 109.385L207.538 109.389C207.58 113.648 208.052 122.514 208.855 134.838C208.96 136.448 209.07 138.104 209.184 139.794C209.545 145.176 209.935 150.698 210.322 156.06C210.411 157.287 210.536 158.984 210.658 160.659L211.119 160.67C210.995 158.998 210.866 157.265 210.776 156.028C210.389 150.667 210.002 145.143 209.641 139.762C209.527 138.072 209.417 136.419 209.312 134.809C208.455 121.662 207.97 112.405 207.988 108.569C207.849 108.538 207.644 108.492 207.494 108.459Z" fill="#32767C"/>
<path d="M204.888 107.868C204.83 115.648 206.224 151.564 206.899 160.555L207.352 160.566C206.696 151.863 205.298 115.909 205.346 107.972C205.171 107.932 205.07 107.909 204.888 107.868Z" fill="#32767C"/>
<path d="M184.879 103.412C184.434 105.102 183.285 111.263 182.265 117.469C181.033 124.968 180.224 131.039 180.154 133.779C180.086 136.518 180.716 142.485 181.74 149.536C182.411 154.157 183.131 158.38 183.582 160.423L184.054 160.42C183.628 158.538 182.884 154.227 182.194 149.472C181.174 142.447 180.543 136.494 180.612 133.789C180.68 131.078 181.49 125.021 182.718 117.545C183.739 111.337 184.892 105.159 185.328 103.509C185.194 103.48 185.001 103.438 184.879 103.412Z" fill="#32767C"/>
<path d="M188.038 104.092C188.035 104.1 188.027 104.102 188.024 104.11C187.081 107.221 185.743 113.026 184.661 118.737C183.422 125.274 182.671 130.824 182.671 134.011C182.671 137.124 183.357 142.995 184.439 149.865C185.11 154.117 185.85 158.188 186.336 160.395L186.806 160.39C186.33 158.249 185.575 154.118 184.893 149.793C183.814 142.947 183.128 137.092 183.128 134.011C183.128 130.86 183.877 125.334 185.111 118.823C186.189 113.127 187.526 107.335 188.463 104.242C188.47 104.221 188.456 104.203 188.456 104.181C188.337 104.156 188.155 104.117 188.038 104.092Z" fill="#32767C"/>
<path d="M191.92 104.954C190.82 108.351 189.339 113.767 188.203 118.852C186.625 125.916 185.784 131.895 185.957 136.012C186.069 138.671 186.479 142.135 187.136 146.219C187.414 147.947 187.732 149.759 188.082 151.626C188.553 154.146 189.059 156.644 189.564 159.005C189.647 159.398 189.735 159.795 189.86 160.358L190.324 160.355C190.222 159.888 190.124 159.443 190.01 158.909C189.506 156.551 189.002 154.056 188.531 151.54C188.184 149.676 187.866 147.872 187.59 146.147C186.935 142.08 186.521 138.627 186.41 135.99C186.24 131.923 187.08 125.979 188.65 118.951C189.786 113.862 191.273 108.435 192.37 105.055C192.219 105.021 192.069 104.987 191.92 104.954Z" fill="#32767C"/>
<path d="M195.976 105.857C195.652 106.751 195.266 107.735 194.633 109.252C194.545 109.464 193.92 110.961 193.73 111.418C193.367 112.289 193.066 113.022 192.777 113.747C191.378 117.26 190.381 120.269 189.673 123.332C188.8 127.12 188.45 130.756 188.702 134.333C188.894 137.039 189.221 140.167 189.663 143.631C189.956 145.918 190.296 148.317 190.67 150.792C191.143 153.913 191.645 156.993 192.152 159.9C192.174 160.027 192.202 160.177 192.23 160.337L192.694 160.329C192.663 160.148 192.638 160.01 192.605 159.822C192.1 156.918 191.592 153.841 191.12 150.724C190.746 148.253 190.408 145.857 190.117 143.574C189.676 140.117 189.351 136.998 189.159 134.301C188.91 130.772 189.256 127.182 190.12 123.436C190.82 120.399 191.811 117.412 193.202 113.919C193.49 113.196 193.79 112.462 194.151 111.593C194.341 111.137 194.966 109.641 195.055 109.428C195.703 107.873 196.1 106.874 196.429 105.956C196.266 105.92 196.139 105.893 195.976 105.857Z" fill="#32767C"/>
<path d="M197.858 107.252C197.804 107.273 197.756 107.316 197.729 107.374C196.543 110.038 194.914 114.557 193.663 118.897C192.008 124.64 191.076 129.731 191.146 133.556C191.214 137.346 191.909 143.479 192.964 150.369C193.575 154.369 194.241 158.135 194.698 160.312L195.159 160.305C194.71 158.17 194.03 154.333 193.413 150.302C192.361 143.429 191.671 137.313 191.603 133.55C191.534 129.779 192.46 124.724 194.103 119.023C195.347 114.701 196.97 110.204 198.148 107.56C198.199 107.444 198.149 107.308 198.033 107.256C197.976 107.23 197.913 107.231 197.858 107.252Z" fill="#32767C"/>
<path d="M194.42 127.101C194.298 127.066 194.172 127.136 194.138 127.258C194.122 127.313 193.922 128.036 193.884 128.174C193.333 130.174 193.046 131.521 192.869 133.188C192.649 135.273 192.662 137.613 192.948 140.485C193.411 145.132 193.627 147.185 193.973 149.958C194.524 154.373 195.112 157.841 195.762 160.301L196.24 160.294C195.584 157.857 194.986 154.381 194.427 149.901C194.08 147.133 193.864 145.082 193.402 140.439C193.118 137.596 193.106 135.29 193.323 133.238C193.497 131.6 193.782 130.274 194.326 128.296C194.364 128.159 194.565 127.435 194.58 127.38C194.614 127.258 194.541 127.134 194.42 127.101Z" fill="#32767C"/>
<path d="M182.095 103.001L213.328 113.97L213.073 110.388L182.095 103.001Z" fill="#292929"/>
<path d="M175.503 76.6283C174.166 75.277 168.75 66.9156 167.278 58.582C165.805 50.2484 167.835 39.9773 167.835 39.9773L176.832 42.3581C176.832 42.3581 175.522 54.7866 183.499 61.1608C183.499 61.1608 176.84 77.9786 175.503 76.6283Z" fill="#FAA89B"/>
<path d="M202.003 40.7044L203.831 41.4397C206.295 42.4311 209.503 46.4751 208.235 48.5352L203.419 56.4146C201.818 58.9633 196.867 58.3483 196.867 58.3483C194.093 57.9654 191.493 55.6351 192.486 52.4667C193.48 49.2984 195.751 43.3813 195.751 43.3813C196.74 40.9115 199.54 39.713 202.003 40.7044Z" fill="#FAA89B"/>
<path d="M206.358 50.3227C205.723 50.4023 202.064 49.6625 204.02 46.4057C204.02 46.4057 199.861 44.1541 199.861 42.7212C199.861 42.7212 196.525 43.5172 195.651 42.96C194.778 42.4027 194.539 35.5563 198.59 38.9396C198.59 38.9396 198.034 36.2727 200.696 36.3523C203.356 36.432 204.945 39.6163 205.301 41.2086C205.301 41.2086 206.811 39.2581 207.962 41.1687C209.114 43.0794 208.955 44.2337 208.955 44.2337C208.955 44.2337 210.425 41.527 211.06 42.4027C211.695 43.2784 210.226 44.4726 210.226 44.4726C210.226 44.4726 212.292 44.1939 212.451 44.9502C212.609 45.7064 210.027 45.3482 210.027 45.3482C210.027 45.3482 212.237 48.0965 211.025 51.1303C210.191 53.2153 208.953 56.6526 206.572 57.9042C205.803 58.3078 206.313 56.7613 206.498 54.98C206.723 52.8105 206.708 50.279 206.358 50.3227Z" fill="#232528"/>
<path d="M205.287 51.6467C205.287 50.6129 206.216 49.7748 207.362 49.7748C208.506 49.7748 209.435 50.6129 209.435 51.6467C209.435 52.6804 208.506 53.5185 207.362 53.5185C206.216 53.5185 205.287 52.6804 205.287 51.6467Z" fill="#FAA89B"/>
<path d="M192.965 71.5865L192.645 77.8423L194.885 72.819L206.572 63.6417L209.279 65.3597L214.165 111.575L181.709 102.88C181.709 102.88 182.571 70.12 190.785 63.9594L194.323 64.5306L192.965 71.5865Z" fill="#B4453A"/>
<path d="M194.789 72.6319L196.39 78.9371C196.39 78.9371 201.537 73.1668 203.824 70.6066C206.112 68.0465 208.056 65.7942 207.923 64.8378C207.789 63.8814 207.457 62.0739 206.454 61.0538C206.454 61.0538 197.153 71.2562 194.789 72.6319Z" fill="#B4453A"/>
<path d="M195.158 62.0848C195.276 61.6756 192.442 64.0523 191.584 67.3488C190.833 70.228 190.291 75.2683 190.291 75.2683L192.807 71.6383C192.807 71.6383 193.623 68.184 194.202 65.524C194.616 63.6155 195.039 62.494 195.158 62.0848Z" fill="#B4453A"/>
<path d="M183.666 84.1935C182.407 84.6664 175.339 78.8533 174.098 77.9726L183.408 60.5015C183.408 60.5015 188.166 63.301 191.114 63.9749C191.114 63.9749 184.081 84.0377 183.666 84.1935Z" fill="#B4453A"/>
<path d="M191.944 86.1587C192.83 86.1862 193.527 86.9283 193.5 87.8181L193.508 89.852L193.374 91.8596C193.347 92.7483 192.605 93.4469 191.719 93.4194C190.832 93.3919 190.135 92.6487 190.162 91.76L190.287 87.7185C190.314 86.8287 191.056 86.1301 191.944 86.1587Z" fill="#FAA89B"/>
<path d="M191.659 94.275C191.643 95.1649 190.911 95.8726 190.024 95.8566L185.99 95.7833C185.103 95.7672 184.397 95.0332 184.412 94.1445C184.428 93.2546 185.16 92.5469 186.048 92.5629L190.081 92.6362C190.969 92.6522 191.675 93.3852 191.659 94.275Z" fill="#FAA89B"/>
<path d="M191.386 97.3249C191.37 98.2148 190.638 98.9225 189.75 98.9065L185.716 98.8332C184.829 98.8183 184.122 98.0842 184.138 97.1944C184.154 96.3045 184.887 95.5968 185.775 95.6128L189.808 95.6861C190.696 95.7021 191.402 96.4362 191.386 97.3249Z" fill="#FAA89B"/>
<path d="M191.762 100.375C191.746 101.264 191.014 101.972 190.126 101.956L186.093 101.884C185.206 101.868 184.499 101.134 184.515 100.244C184.531 99.3554 185.263 98.6465 186.151 98.6625L190.184 98.7358C191.072 98.7518 191.778 99.4859 191.762 100.375Z" fill="#FAA89B"/>
<path d="M192.275 102.466C192.259 103.354 191.527 104.063 190.639 104.047L186.606 103.974C185.718 103.958 185.012 103.224 185.028 102.334C185.044 101.445 185.776 100.738 186.664 100.754L190.697 100.826C191.585 100.842 192.291 101.576 192.275 102.466Z" fill="#FAA89B"/>
<path d="M189.008 92.6238C190.356 92.2012 190.089 91.3973 190.262 90.7571L191.21 93.6522C191.21 93.6522 187.825 92.9949 189.008 92.6238Z" fill="#FAA89B"/>
<path d="M193.507 89.8133C193.562 90.5267 195.231 92.5297 196.792 93.3245L197.56 104.298L190.461 104.052L189.51 95.1626C189.51 95.1626 193.452 89.0998 193.507 89.8133Z" fill="#FAA89B"/>
<path d="M197.124 104.226C197.967 104.578 215.944 104.565 219.64 99.3989C221.768 96.4259 220.071 84.8259 220.071 84.8259C220.071 84.8259 208.304 88.1242 208.04 88.1333C207.776 88.1425 208.9 90.812 208.095 91.9721C207.291 93.1334 196.686 93.3613 196.686 93.3613C196.686 93.3613 196.281 103.873 197.124 104.226Z" fill="#FAA89B"/>
<path d="M209.164 65.2694L203.847 79.8509L206.861 88.6245L221.274 84.5658C221.274 84.5658 221.753 68.354 209.164 65.2694Z" fill="#B4453A"/>
<path d="M176.77 42.7411L178.015 35.4521L175.632 36.2525L170.846 38.282L164.424 41.2535L168.005 46.9241C168.005 46.9241 176.857 44.6623 176.77 42.7411Z" fill="#FAA89B"/>
<path d="M173.369 41.7305C173.304 41.7305 173.24 41.7029 173.195 41.6494C173.113 41.553 173.125 41.4084 173.221 41.3267C173.468 41.1166 174.116 40.4613 174.148 39.9577C174.193 39.2364 174.414 38.1559 174.644 37.7895C174.711 37.6824 174.852 37.6501 174.959 37.7172C175.066 37.7845 175.098 37.9258 175.031 38.033C174.863 38.3012 174.647 39.287 174.604 39.9863C174.554 40.7744 173.623 41.5863 173.517 41.6763C173.474 41.7127 173.421 41.7305 173.369 41.7305Z" fill="#292929"/>
<path d="M170.984 43.0807C170.879 43.0807 170.785 43.0083 170.761 42.9017C170.742 42.8165 170.723 42.7127 170.702 42.5994C170.647 42.3069 170.519 41.622 170.361 41.5309C170.251 41.468 170.214 41.3279 170.276 41.2182C170.339 41.1085 170.479 41.0707 170.588 41.1335C170.904 41.3154 171.025 41.8436 171.151 42.5151C171.171 42.6225 171.189 42.7207 171.207 42.8015C171.235 42.9249 171.157 43.0473 171.034 43.075C171.017 43.0787 171 43.0807 170.984 43.0807Z" fill="#292929"/>
<path d="M195.566 133.522C195.452 133.522 195.354 133.436 195.34 133.32C195.237 132.452 195.142 131.047 195.023 129.267C194.644 123.646 194.012 114.239 192.156 109.9C192.106 109.784 192.16 109.649 192.276 109.6C192.392 109.55 192.527 109.604 192.576 109.72C194.462 114.13 195.099 123.586 195.479 129.236C195.598 131.009 195.692 132.41 195.794 133.266C195.809 133.392 195.719 133.506 195.594 133.521C195.585 133.521 195.575 133.522 195.566 133.522Z" fill="#232528"/>
<path d="M193.456 113.871C194.037 115.062 195.537 130.715 195.543 133.472L195.323 141.08L196.012 155.118C196.012 155.118 192.709 143.519 192.42 140.152C192.131 136.786 192.357 135.047 192.994 131.164C193.305 129.256 193.985 126.196 194.021 124.328C194.114 119.43 193.204 113.353 193.456 113.871Z" fill="#292929"/>
<path d="M191.436 73.6142L193.083 71.0271L192.539 77.7472L191.436 73.6142Z" fill="#292929"/>
<path d="M196.611 77.9614C196.596 77.9614 196.581 77.9599 196.566 77.9568C196.486 77.9408 196.421 77.8839 196.395 77.8072L194.667 72.7974C194.626 72.6778 194.689 72.5474 194.809 72.506C194.927 72.4646 195.058 72.528 195.099 72.6477L196.7 77.2898L207.933 64.7501C208.017 64.6559 208.162 64.6479 208.256 64.7327C208.35 64.8172 208.358 64.9619 208.273 65.0561L196.781 77.8854C196.737 77.9343 196.675 77.9614 196.611 77.9614Z" fill="#232528"/>
<path d="M190.588 74.8926C190.559 74.8926 190.529 74.8869 190.5 74.8748C190.399 74.8326 190.343 74.7245 190.365 74.6172L192.466 64.4281C192.491 64.3043 192.612 64.2242 192.736 64.2501C192.859 64.2758 192.939 64.3969 192.913 64.5207L191.05 73.5594L192.728 71.0408C192.798 70.9356 192.94 70.9074 193.045 70.9776C193.15 71.0479 193.178 71.1901 193.108 71.2953L190.778 74.7907C190.735 74.856 190.663 74.8926 190.588 74.8926Z" fill="#232528"/>
<path d="M192.299 80.6274C192.292 80.6274 192.285 80.6272 192.279 80.6265C192.153 80.6156 192.06 80.5048 192.071 80.3787L192.861 71.2002C192.872 71.0741 192.983 70.9805 193.109 70.9916C193.234 71.0025 193.328 71.1135 193.317 71.2394L192.526 80.4181C192.516 80.5374 192.416 80.6274 192.299 80.6274Z" fill="#232528"/>
<path d="M207.92 88.5731C207.82 88.5731 207.729 88.5074 207.7 88.4066C207.666 88.2849 207.736 88.1582 207.858 88.1236L221.382 84.2689C221.504 84.2343 221.63 84.3049 221.665 84.4266C221.699 84.5484 221.629 84.675 221.507 84.7096L207.983 88.5643C207.962 88.5702 207.941 88.5731 207.92 88.5731Z" fill="#232528"/>
<path d="M207.86 88.3635C207.819 88.3635 207.777 88.352 207.741 88.3298C207.688 88.297 207.65 88.2438 207.637 88.1824L206.212 81.5195C206.186 81.3958 206.264 81.2741 206.388 81.2475C206.511 81.2213 206.633 81.2997 206.659 81.4235L208.033 87.8509L221.385 84.268C221.508 84.2349 221.633 84.3079 221.665 84.43C221.698 84.5523 221.626 84.6778 221.504 84.7104L207.919 88.3556C207.9 88.3608 207.88 88.3635 207.86 88.3635Z" fill="#232528"/>
<path d="M188.896 175.152C188.883 175.152 188.87 175.151 188.858 175.149C188.733 175.128 188.65 175.01 188.67 174.886C188.685 174.794 189.065 172.625 191.169 170.429C193.336 168.168 197.984 165.296 200.119 165.292C200.245 165.292 200.347 165.394 200.348 165.52C200.348 165.647 200.246 165.75 200.12 165.75C198.142 165.754 193.586 168.568 191.499 170.746C189.498 172.834 189.124 174.94 189.121 174.961C189.102 175.073 189.005 175.152 188.896 175.152Z" fill="#232528"/>
<path d="M180.2 173.263C180.197 173.263 180.194 173.262 180.191 173.262C180.064 173.257 179.966 173.15 179.972 173.024C180.157 168.575 177.25 167.946 177.22 167.94C177.096 167.915 177.016 167.795 177.041 167.671C177.065 167.546 177.186 167.465 177.309 167.49C177.342 167.497 180.63 168.206 180.428 173.043C180.423 173.166 180.322 173.263 180.2 173.263Z" fill="#232528"/>
<path d="M196.972 174.261C196.848 174.261 196.746 174.161 196.744 174.036C196.702 171.698 194.89 168.788 194.111 168.589C193.988 168.557 193.914 168.433 193.946 168.31C193.977 168.188 194.101 168.113 194.224 168.145C195.337 168.429 197.159 171.692 197.201 174.028C197.203 174.154 197.103 174.259 196.976 174.261C196.975 174.261 196.973 174.261 196.972 174.261Z" fill="#232528"/>
<path d="M194.987 48.4239C195.237 47.9193 195.208 47.3498 194.926 47.152C194.642 46.9542 194.213 47.2031 193.964 47.7077C193.716 48.2124 193.743 48.7818 194.027 48.9796C194.309 49.1774 194.74 48.9286 194.987 48.4239Z" fill="#292929"/>
<path d="M201.087 48.548C201.035 48.8668 199.709 48.1042 198.935 47.8549C198.162 47.6055 197.908 47.1705 198.407 46.8322C199.134 46.3399 201.219 47.7179 201.087 48.548Z" fill="#292929"/>
<path d="M193.756 45.9191C193.661 46.2137 194.982 46.2876 195.67 46.4939C196.359 46.7003 196.732 46.4724 196.497 45.921C196.154 45.1183 194.003 45.1523 193.756 45.9191Z" fill="#292929"/>
<path d="M194.874 51.6114C194.761 51.6115 194.663 51.5272 194.648 51.4117C194.621 51.2027 194.334 50.4753 194.16 50.066C194.132 50.0018 194.135 49.9287 194.169 49.8672C194.202 49.8058 194.261 49.7629 194.329 49.7505C194.674 49.6886 195.639 48.9469 196.086 48.4956C196.175 48.4058 196.32 48.4054 196.409 48.4945C196.499 48.5838 196.499 48.7287 196.41 48.8185C196.109 49.1219 195.252 49.8483 194.674 50.1119C194.817 50.4601 195.068 51.0971 195.101 51.353C195.117 51.4784 195.029 51.5933 194.904 51.6096C194.894 51.6108 194.884 51.6114 194.874 51.6114Z" fill="#292929"/>
<path d="M195.675 48.0717C195.602 48.0717 195.531 48.0372 195.487 47.973C195.123 47.446 194.31 47.2833 193.976 47.344C193.852 47.3669 193.733 47.284 193.711 47.1595C193.688 47.0351 193.771 46.916 193.895 46.8934C194.404 46.8009 195.398 47.0394 195.862 47.7123C195.934 47.8163 195.908 47.959 195.805 48.0311C195.765 48.0585 195.72 48.0717 195.675 48.0717Z" fill="#292929"/>
<path d="M198.925 50.3257C199.173 49.821 199.146 49.2516 198.862 49.0538C198.58 48.856 198.149 49.1047 197.901 49.6094C197.652 50.114 197.681 50.6835 197.963 50.8813C198.246 51.0791 198.676 50.8303 198.925 50.3257Z" fill="#292929"/>
<path d="M199.611 49.9736C199.538 49.9736 199.467 49.9391 199.423 49.8749C199.059 49.3479 198.246 49.1854 197.912 49.2458C197.788 49.2683 197.669 49.1857 197.647 49.0613C197.624 48.9368 197.707 48.8177 197.831 48.7951C198.34 48.703 199.334 48.9412 199.799 49.6142C199.87 49.7182 199.844 49.8609 199.741 49.9329C199.701 49.9604 199.656 49.9736 199.611 49.9736Z" fill="#292929"/>
<path d="M195.081 54.0562C194.324 54.0562 193.186 53.638 192.737 52.6419C192.685 52.5266 192.736 52.391 192.851 52.3389C192.967 52.2867 193.102 52.3381 193.154 52.4533C193.601 53.4461 194.935 53.7134 195.378 53.5599C195.497 53.5183 195.627 53.5821 195.668 53.7018C195.709 53.8214 195.646 53.9518 195.527 53.993C195.407 54.0345 195.254 54.0562 195.081 54.0562Z" fill="#292929"/>
<path d="M208.083 52.8978C208.023 52.8978 207.962 52.874 207.917 52.8265L206.987 51.8451C206.941 51.7964 206.918 51.7298 206.926 51.6629C206.933 51.596 206.969 51.5358 207.024 51.498L207.985 50.8427C208.09 50.7716 208.232 50.7986 208.303 50.9031C208.374 51.0077 208.347 51.1502 208.242 51.2213L207.504 51.725L208.249 52.5109C208.336 52.6027 208.332 52.7476 208.24 52.8348C208.196 52.8768 208.14 52.8978 208.083 52.8978Z" fill="#292929"/>
<path d="M194.237 39.8171L188.347 25.0356L195.912 11.1216L179.703 12.502L168.649 0L164.301 16.0439L148.227 21.7711L161.515 31.0255L163.433 46.9009L177.095 35.9525L194.237 39.8171Z" fill="#FCC605"/>
<path d="M187.762 95.9093C187.759 95.9093 185.301 95.8726 185.301 95.8726C185.175 95.8707 185.074 95.7666 185.076 95.6403C185.078 95.5149 185.18 95.4146 185.304 95.4146C185.308 95.4146 187.765 95.4512 187.765 95.4512C187.891 95.4531 187.992 95.5572 187.99 95.6836C187.989 95.809 187.887 95.9093 187.762 95.9093Z" fill="#232528"/>
<path d="M187.847 99.0885C187.843 99.0885 185.385 99.0518 185.385 99.0518C185.259 99.0499 185.158 98.9458 185.16 98.8195C185.162 98.6941 185.264 98.5938 185.389 98.5938C185.392 98.5938 187.85 98.6304 187.85 98.6304C187.976 98.6323 188.077 98.7364 188.075 98.8628C188.073 98.9882 187.971 99.0885 187.847 99.0885Z" fill="#232528"/>
<path d="M187.826 101.976C187.823 101.976 185.365 101.939 185.365 101.939C185.239 101.937 185.138 101.833 185.14 101.707C185.142 101.581 185.243 101.481 185.368 101.481C185.372 101.481 187.829 101.518 187.829 101.518C187.955 101.519 188.056 101.623 188.055 101.75C188.053 101.875 187.951 101.976 187.826 101.976Z" fill="#232528"/>
<path d="M211.786 93.4322C211.759 93.4322 211.731 93.4272 211.704 93.4166L208.198 92.055C208.081 92.0093 208.022 91.8765 208.068 91.7586C208.113 91.6406 208.246 91.5823 208.363 91.6277L211.869 92.9894C211.987 93.0351 212.045 93.1678 212 93.2857C211.964 93.3766 211.878 93.4322 211.786 93.4322Z" fill="#232528"/>
<path d="M100.979 129.675C100.979 129.675 98.7592 126.553 97.3001 126.132C95.8422 125.712 90.0549 125.496 88.6518 134.248C87.2487 143.001 89.1568 150.183 90.3988 151.654C91.642 153.125 92.0522 150.805 92.0522 150.805L100.979 129.675Z" fill="#0151A1"/>
<path d="M108.291 147.69C106.307 149.347 102.054 149.875 97.4429 145.171C93.221 140.864 95.4947 125.289 95.4947 125.289L99.6229 125.109C99.6229 125.109 110.274 146.033 108.291 147.69Z" fill="#2A2A2A"/>
<path d="M115.076 156.129L115.018 152.87L126.735 152.665L126.823 156.305L115.076 156.129Z" fill="#FAA89B"/>
<path d="M115.041 155.762L114.243 166.809L117.335 166.959L117.534 164.06C117.534 164.06 129.453 172.657 134.839 172.507C140.224 172.357 128.506 161.91 127.907 160.311C127.308 158.711 126.86 155.663 126.86 155.663L115.041 155.762Z" fill="#0151A1"/>
<path d="M104.937 99.3394L98.6808 124.538C98.6808 124.538 91.9921 148.469 103.204 149.443C107.053 149.779 111.791 145.855 113.323 139.793L111.538 152.847C118.332 154.377 132.762 152.156 132.762 152.156L130.395 98.1404L104.937 99.3394Z" fill="#B4453A"/>
<path d="M133.874 49.9423C133.874 49.9423 130.545 44.3506 130.285 43.681L133.878 41.4484L133.755 44.5168L133.874 49.9423Z" fill="#292929"/>
<path d="M103.325 49.9287C103.325 49.9287 106.557 44.722 106.818 44.0523L103.309 40.8397L102.681 47.167L103.325 49.9287Z" fill="#292929"/>
<path d="M95.6768 125.969C94.741 125.955 88.651 126.907 88.651 126.907L87.7026 129.679L90.1398 130.889C90.1398 130.889 96.6126 125.982 95.6768 125.969Z" fill="#0151A1"/>
<path d="M119.308 49.0996C119.106 48.0764 116.947 47.5556 112.909 49.1429C108.047 51.0545 107.095 54.7538 107.329 55.6312C107.329 55.6312 100.713 59.8217 98.5628 63.744C98.5628 63.744 89.5797 68.1082 88.8073 75.2346C88.0361 82.3613 93.933 87.0568 96.0834 87.0568C96.0834 87.0568 95.6423 93.9064 99.1147 96.1716C102.587 98.4369 107.051 96.8347 108.65 94.1274C110.248 91.4212 115.87 72.5276 115.87 72.5276C115.87 72.5276 119.511 50.1227 119.308 49.0996Z" fill="#5E361F"/>
<path d="M118.571 48.7705C119.718 46.7012 124.974 48.8282 127.698 52.1542C130.421 55.4803 130.355 58.5794 130.355 58.5794C130.355 58.5794 135.098 59.6886 136.363 64.1257C136.363 64.1257 146.324 66.3442 148.933 72.9205C151.541 79.4971 144.981 88.1332 140.317 87.1037C140.317 87.1037 136.443 95.6608 127.906 89.7972C127.906 89.7972 121.177 71.4142 120.87 64.1257C120.632 58.5001 117.424 50.8399 118.571 48.7705Z" fill="#5E361F"/>
<path d="M130.181 98.1517L104.936 99.3393L104.672 100.406L130.652 103.471L130.564 101.053L130.181 98.1517Z" fill="#292929"/>
<path d="M132.973 33.6178C132.884 33.618 132.798 33.6323 132.72 33.6607C131.688 34.0318 132.5 36.4205 132.508 36.4415C131.877 36.9415 132.328 38.5499 132.901 40.1385C132.066 41.3635 133.274 47.0938 133.851 49.8707C133.851 49.8707 135.69 49.4303 135.704 49.49C135.851 50.1341 141.26 47.9725 141.26 47.9725C141.26 47.9725 140.11 43.2423 138.286 39.752C136.682 36.6843 134.304 33.6152 132.973 33.6178Z" fill="#FAA89B"/>
<path d="M118.447 113.06C118.447 113.06 115.109 134.718 113.265 139.592C112.762 143.02 111.538 152.847 111.538 152.847C112.553 153.074 113.749 153.213 115.03 153.294L118.447 113.06Z" fill="#292929"/>
<path d="M104.13 33.9899C102.797 33.9872 100.42 37.0563 98.8164 40.124C96.9917 43.6144 95.8457 48.3446 95.8457 48.3446C95.8457 48.3446 101.25 50.5062 101.398 49.862C101.412 49.7966 101.488 49.5466 101.512 49.4541L103.362 50.0946C103.927 47.3708 104.94 41.904 104.19 40.5392C104.768 38.9409 105.229 37.3168 104.593 36.8135C104.601 36.7926 105.414 34.4003 104.383 34.0293C104.304 34.0009 104.217 33.9901 104.13 33.9899Z" fill="#FAA89B"/>
<path d="M106.358 56.4756C106.195 56.5816 106.081 56.6599 105.882 56.7941C106.129 57.2341 106.411 57.6808 106.761 58.1433C107.553 59.1893 107.794 59.4497 110.335 62.0801C112.04 63.8452 113.012 64.9594 113.83 66.1885C114.868 67.7455 115.425 69.2191 115.473 70.7266C115.517 72.0822 115.354 72.7587 115.105 72.8452C114.871 72.9263 114.344 72.5838 113.577 71.7715C112.897 71.051 112.139 70.1158 110.725 68.2822C110.568 68.0802 109.244 66.3637 108.967 66.0096C108.265 65.1083 107.641 64.3277 107.028 63.5831C105.562 61.8018 104.21 60.3113 102.883 59.0308C102.733 59.1535 102.587 59.2687 102.436 59.3959C103.762 60.6699 105.118 62.1593 106.59 63.9482C107.199 64.6886 107.818 65.4626 108.517 66.3603C108.792 66.7135 110.114 68.4306 110.271 68.6329C111.698 70.4824 112.465 71.4258 113.163 72.1652C114.093 73.1493 114.747 73.5749 115.29 73.3856C115.49 73.3165 115.631 73.1457 115.747 72.9275C115.76 72.8865 115.87 72.5266 115.87 72.5266C115.87 72.5266 116.022 71.5637 116.038 71.471C116.046 71.2313 116.054 70.9953 116.045 70.7086C115.993 69.0825 115.398 67.5094 114.306 65.87C113.462 64.6043 112.473 63.4678 110.745 61.6793C108.228 59.0727 107.989 58.8148 107.218 57.7961C106.872 57.3384 106.594 56.903 106.358 56.4756ZM99.4735 62.3914C99.3261 62.5802 99.1833 62.77 99.0519 62.9604C100.432 67.2214 103.029 72.7984 105.236 76.1953C107.706 79.9963 109.411 83.9347 109.796 86.9741C110.231 90.4075 109.011 92.4758 105.936 92.8789C102.96 93.2706 99.3855 89.7135 95.8743 83.4961C93.5549 79.3881 91.4571 74.3604 90.4287 70.8088C90.2927 71.0262 90.1522 71.2412 90.0288 71.4673C91.1177 75.0295 93.1458 79.821 95.3773 83.7744C99.0016 90.1922 102.706 93.8821 106.011 93.4481C109.432 92.9992 110.834 90.6217 110.364 86.9031C109.966 83.7641 108.227 79.7512 105.714 75.8836C103.468 72.4248 100.799 66.6453 99.4735 62.3914Z" fill="#774F37"/>
<path d="M131.312 58.9058C131.348 59.4907 130.885 60.2261 128.934 62.5597C128.168 63.4773 127.236 64.3951 126.01 65.4801C125.469 65.9593 123.668 67.4924 123.399 67.7276C122.605 68.4235 122.084 68.9384 121.679 69.406C121.718 69.582 121.763 69.7676 121.803 69.9464C121.804 69.945 121.807 69.9443 121.808 69.9429C122.203 69.4435 122.789 68.8745 123.703 68.0747C123.968 67.8424 125.768 66.3061 126.313 65.8236C127.555 64.7248 128.5 63.7914 129.284 62.8532C131.121 60.6562 131.707 59.7987 131.769 59.099C131.606 59.0244 131.455 58.9621 131.312 58.9058ZM131.676 61.1568C131.295 61.1249 130.999 61.3783 130.813 61.912C130.56 62.6332 130.509 63.8017 130.569 65.6697C130.58 65.9694 130.637 67.3888 130.641 67.5056C130.701 69.018 129.857 70.5102 128.41 71.4603C126.849 72.484 124.789 72.7672 122.633 72.1331C122.515 72.0987 122.419 72.0621 122.317 72.0257C122.363 72.2013 122.415 72.3821 122.461 72.559C122.476 72.5637 122.488 72.5687 122.504 72.5732C124.788 73.2447 126.985 72.9414 128.66 71.8433C130.237 70.8086 131.163 69.1683 131.098 67.4878C131.094 67.3704 131.037 65.9533 131.026 65.6554C130.968 63.849 131.018 62.7089 131.245 62.0622C131.36 61.7341 131.496 61.6012 131.659 61.6114C131.892 61.626 132.25 61.8843 132.712 62.4166C133.941 63.8334 134.168 64.105 134.576 64.7035C136.045 66.862 135.83 68.6567 133.287 71.2456C133.004 71.533 132.029 72.5134 132.091 72.4516C131.635 72.9114 131.314 73.2454 131.016 73.5647C130.264 74.3687 129.735 75.0197 129.349 75.6512C128.035 77.7941 128.349 79.8257 130.631 82.6476C131.288 83.4618 131.969 84.3815 132.83 85.6C132.874 85.663 134.641 88.1985 135.116 88.8536C135.797 89.7961 136.323 90.4466 136.796 90.9619C136.932 90.8829 137.066 90.8062 137.193 90.7214C136.722 90.2175 136.187 89.551 135.487 88.581C135.015 87.9294 133.247 85.4007 133.202 85.3354C132.336 84.1089 131.649 83.1813 130.984 82.3578C128.817 79.6757 128.539 77.8537 129.741 75.8909C130.109 75.2905 130.615 74.6631 131.348 73.8796C131.643 73.5641 131.963 73.2307 132.416 72.7737C132.354 72.8362 133.329 71.8562 133.612 71.5676C136.304 68.8268 136.55 66.79 134.955 64.4458C134.533 63.8258 134.3 63.5502 133.054 62.1159C132.525 61.5062 132.058 61.1888 131.676 61.1568ZM146.999 69.8927C146.94 70.0075 146.907 70.0958 146.838 70.2255C146.054 71.6837 145.829 72.1139 145.559 72.745C145.202 73.5781 145.021 74.2787 144.999 74.9604C144.962 76.0889 145.383 77.1757 146.355 78.4217C146.648 78.795 147.505 79.8486 147.419 79.7421C147.745 80.1476 147.932 80.4098 148.069 80.6652C148.164 80.8416 148.23 81.0179 148.279 81.2092C148.373 81.0156 148.47 80.8244 148.555 80.6251C148.526 80.5656 148.506 80.5072 148.473 80.4465C148.318 80.1613 148.115 79.8773 147.773 79.4524C147.856 79.5555 147.001 78.5076 146.713 78.1388C145.802 76.9718 145.423 75.986 145.456 74.9747C145.476 74.3576 145.645 73.7123 145.981 72.9276C146.242 72.3142 146.462 71.8879 147.237 70.4439C147.273 70.3783 147.287 70.3347 147.32 70.2721C147.213 70.1444 147.109 70.0157 146.999 69.8927ZM139.657 79.7021C139.383 79.7513 139.19 79.9861 139.093 80.3571C138.922 81.0099 138.951 81.61 139.182 84.4582C139.282 85.6847 139.333 86.4864 139.357 87.3178C139.371 87.7874 139.368 88.2225 139.357 88.6417C139.549 88.3863 139.678 88.1882 139.811 87.9763C139.809 87.7507 139.817 87.5423 139.811 87.3041C139.787 86.4623 139.735 85.6527 139.636 84.4192C139.413 81.6696 139.385 81.05 139.535 80.4751C139.608 80.1957 139.693 80.1258 139.849 80.1636C140.109 80.2266 140.519 80.5461 141.081 81.1485C141.647 81.7543 142.2 82.4506 142.774 83.2706C143.054 83.6703 143.332 84.0894 143.657 84.591C143.824 84.851 144.365 85.6985 144.445 85.8221C144.463 85.8508 144.473 85.8622 144.492 85.8897C144.614 85.8015 144.739 85.7225 144.86 85.6252C144.846 85.6046 144.84 85.5954 144.828 85.5748C144.749 85.4522 144.207 84.6025 144.038 84.3402C143.711 83.8352 143.429 83.4115 143.146 83.006C142.56 82.1689 141.999 81.4565 141.417 80.8335C140.797 80.1693 140.329 79.8063 139.957 79.7169C139.847 79.6906 139.748 79.686 139.657 79.7021Z" fill="#774F37"/>
<path d="M131.746 70.9062C132.902 68.9334 133.781 64.7108 134.032 59.172C134.235 54.7152 133.828 49.6932 133.828 49.6932L140.982 47.1992C140.982 47.1992 148.874 65.298 140.424 79.6803C140.424 79.6803 130.589 72.8789 131.746 70.9062Z" fill="#FAA89B"/>
<path d="M124.583 74.8782C125.872 74.9088 130.012 73.6219 131.294 71.0126C131.294 71.0126 133.547 68.402 134.344 72.0645C134.344 72.0645 135.737 71.236 137.058 72.5523C138.378 73.8686 137.499 75.7782 137.499 75.7782C137.499 75.7782 140.508 75.2891 141.026 78.3506C141.545 81.4107 130.621 89.1535 130.621 89.1535C130.621 89.1535 123.294 74.8477 124.583 74.8782Z" fill="#FFEEE3"/>
<path d="M105.482 70.9062C104.325 68.9334 103.446 64.7108 103.195 59.172C102.993 54.7152 103.399 49.6932 103.399 49.6932L96.2467 47.1992C96.2467 47.1992 88.3548 65.298 96.8032 79.6803C96.8032 79.6803 106.639 72.8789 105.482 70.9062Z" fill="#FAA89B"/>
<path d="M112.644 74.8782C111.355 74.9088 107.216 73.6219 105.935 71.0126C105.935 71.0126 103.68 68.402 102.883 72.0645C102.883 72.0645 101.49 71.236 100.17 72.5523C98.8495 73.8686 99.7293 75.7782 99.7293 75.7782C99.7293 75.7782 96.866 75.392 96.3472 78.4537C95.8285 81.5137 106.607 89.1535 106.607 89.1535C106.607 89.1535 113.933 74.8477 112.644 74.8782Z" fill="#FFEEE3"/>
<path d="M113.197 74.7285L109.911 74.4335L103.78 98.7209C103.78 98.7209 107.066 102.407 112.217 99.1137C112.217 99.1137 116.925 104.129 122.321 99.4092C122.321 99.4092 129.164 103.737 133.376 99.6348L127.357 74.8438L124.004 74.8164L113.197 74.7285Z" fill="#FFEEE3"/>
<path d="M114.425 67.6905L112.796 76.9467C112.796 76.9467 113.564 82.075 118.597 82.461C123.631 82.8458 124.398 76.9467 124.398 76.9467L122.275 67.5623L114.425 67.6905Z" fill="#FAA89B"/>
<path d="M121.643 67.5737L114.427 67.6919L114.359 68.0748C114.606 68.2448 115.529 69.3653 116.913 70.2415C119.646 71.9717 123.606 73.9311 123.735 74.0121L122.297 67.6668C122.228 67.6564 121.906 67.611 121.643 67.5737Z" fill="#292929"/>
<path d="M115.287 48.3983C115.144 48.4312 114.992 48.4728 114.841 48.5128C114.88 48.8321 114.921 49.1403 115.016 49.5936C115.046 49.7378 115.058 49.7885 115.073 49.862C115.214 50.5537 115.266 50.9925 115.238 51.4582C115.206 51.9643 114.827 52.6748 114.487 52.8361C114.196 52.9744 113.691 52.7672 113.378 52.4102C112.902 51.8695 112.701 51.3776 112.43 50.3023C112.308 49.8139 112.26 49.6646 112.195 49.4541C112.051 49.5213 111.914 49.5913 111.778 49.6616C111.834 49.8497 111.877 49.9788 111.988 50.4168C112.275 51.5579 112.498 52.1043 113.035 52.7143C113.468 53.2075 114.167 53.491 114.68 53.2476C115.19 53.006 115.654 52.1452 115.695 51.4869C115.727 50.9713 115.668 50.4972 115.519 49.769C115.504 49.6945 115.496 49.6456 115.466 49.5006C115.368 49.0338 115.323 48.7142 115.287 48.3983ZM110.274 50.5957C110.128 50.7054 109.986 50.8161 109.853 50.9285C109.869 51.0871 109.877 51.2413 109.906 51.4081C110.053 52.232 110.344 53.0689 110.774 54.0492C110.792 54.089 110.881 54.2897 110.891 54.3141C111.313 55.2613 111.45 55.7447 111.373 56.2789C111.341 56.506 111.265 56.7229 111.135 56.9338C110.991 57.1677 110.79 57.298 110.521 57.349C109.593 57.5247 108.831 56.8516 108.043 55.4558C107.822 55.0666 107.645 54.6905 107.489 54.3141C107.406 54.5827 107.353 54.8246 107.329 55.0334C107.427 55.2493 107.522 55.4638 107.646 55.6848C108.028 56.361 108.397 56.8677 108.817 57.238C109.359 57.716 109.954 57.9236 110.606 57.7998C110.999 57.7255 111.311 57.5198 111.524 57.1736C111.686 56.9091 111.786 56.6324 111.827 56.3433C111.92 55.6941 111.765 55.1532 111.309 54.128C111.299 54.1035 111.209 53.9058 111.192 53.8668C110.775 52.9169 110.495 52.1098 110.356 51.3293C110.311 51.0719 110.282 50.8276 110.274 50.5957Z" fill="#774F37"/>
<path d="M113.749 62.1791C113.613 63.2328 112.649 63.976 111.596 63.8392C110.544 63.7025 109.801 62.7375 109.937 61.6839C110.075 60.6303 111.039 59.887 112.091 60.0238C113.144 60.1607 113.886 61.1255 113.749 62.1791Z" fill="#FAA89B"/>
<path d="M112.917 64.7451C113.171 65.6703 115.694 70.3906 118.791 70.5059C121.886 70.6204 124.498 65.8218 124.747 64.0649L124.692 59.698C124.692 59.698 119.825 53.3665 118.391 53.4629C116.956 53.5601 112.407 59.9038 112.284 61.2087C112.16 62.5146 112.665 63.8199 112.917 64.7451Z" fill="#FAA89B"/>
<path d="M127.397 62.1791C127.26 63.2328 126.297 63.976 125.243 63.8392C124.191 63.7025 123.448 62.7375 123.585 61.6839C123.722 60.6303 124.685 59.887 125.738 60.0238C126.791 60.1607 127.533 61.1255 127.397 62.1791Z" fill="#FAA89B"/>
<path d="M111.027 62.6449C110.938 62.6449 110.853 62.5928 110.816 62.5059C110.767 62.3895 110.821 62.255 110.937 62.2053L111.699 61.8785L111.293 61.3713C111.214 61.2726 111.23 61.1284 111.328 61.0493C111.426 60.9701 111.57 60.986 111.649 61.0847L112.243 61.8271C112.288 61.883 112.304 61.9565 112.287 62.026C112.27 62.0956 112.221 62.1528 112.155 62.181L111.117 62.6264C111.087 62.639 111.057 62.6449 111.027 62.6449Z" fill="#292929"/>
<path d="M118.858 65.2698C118.804 65.2698 118.75 65.2507 118.706 65.2119C118.612 65.1277 118.604 64.983 118.687 64.8885L119.335 64.1601C118.882 63.6479 118.484 62.7309 118.466 62.6875C118.416 62.5713 118.469 62.4367 118.585 62.3865C118.701 62.3366 118.835 62.3901 118.885 62.5061C119.016 62.8097 119.435 63.6658 119.797 63.977C119.844 64.0171 119.873 64.0741 119.877 64.1355C119.881 64.1969 119.86 64.2573 119.819 64.3033L119.029 65.193C118.984 65.244 118.921 65.2698 118.858 65.2698Z" fill="#292929"/>
<path d="M113.984 59.8748C113.984 59.8748 116.297 60.4348 117.161 59.886C117.726 59.5269 116.376 58.2396 113.984 59.8748Z" fill="#292929"/>
<path d="M118.946 67.7028C118.163 67.7028 117.453 67.2727 117.407 67.2443C117.3 67.178 117.267 67.0368 117.333 66.9291C117.399 66.8215 117.54 66.7881 117.647 66.8542C117.666 66.8657 119.091 67.7233 119.896 66.8372C119.981 66.7436 120.126 66.7366 120.219 66.8219C120.312 66.907 120.319 67.0519 120.234 67.1455C119.852 67.5664 119.387 67.7028 118.946 67.7028Z" fill="#292929"/>
<path d="M126.306 62.4965C126.276 62.4965 126.246 62.4905 126.216 62.4779L125.178 62.0325C125.112 62.0043 125.063 61.947 125.046 61.8776C125.029 61.8082 125.045 61.7346 125.089 61.6788L125.682 60.9364C125.761 60.8375 125.905 60.8217 126.003 60.9007C126.102 60.9798 126.118 61.1239 126.039 61.2227L125.634 61.7299L126.396 62.0568C126.512 62.1067 126.566 62.2412 126.517 62.3575C126.479 62.4444 126.395 62.4965 126.306 62.4965Z" fill="#292929"/>
<path d="M116.313 61.9704C116.313 62.434 116.047 62.8099 115.719 62.8099C115.391 62.8099 115.125 62.434 115.125 61.9704C115.125 61.5067 115.391 61.1309 115.719 61.1309C116.047 61.1309 116.313 61.5067 116.313 61.9704Z" fill="#292929"/>
<path d="M114.7 61.7231C114.639 61.7231 114.577 61.6985 114.532 61.6497C114.447 61.5572 114.452 61.4137 114.544 61.3277C114.857 61.0344 115.714 60.6439 116.72 61.2654C116.827 61.3318 116.861 61.4729 116.794 61.5805C116.728 61.6882 116.587 61.7219 116.48 61.6553C115.527 61.0666 114.882 61.6386 114.855 61.6632C114.811 61.7033 114.756 61.7231 114.7 61.7231Z" fill="#292929"/>
<path d="M121.218 61.822C121.218 62.2856 121.483 62.6613 121.811 62.6613C122.139 62.6613 122.405 62.2856 122.405 61.822C122.405 61.3582 122.139 60.9824 121.811 60.9824C121.483 60.9824 121.218 61.3582 121.218 61.822Z" fill="#292929"/>
<path d="M122.83 61.5752C122.775 61.5752 122.719 61.555 122.675 61.5142C122.646 61.4877 122.001 60.9189 121.05 61.5066C120.943 61.573 120.802 61.5395 120.736 61.4318C120.669 61.3241 120.703 61.183 120.81 61.1166C121.816 60.4951 122.674 60.8855 122.986 61.1789C123.079 61.2653 123.083 61.4102 122.997 61.5027C122.952 61.5508 122.891 61.5752 122.83 61.5752Z" fill="#292929"/>
<path d="M123.668 59.7261C123.668 59.7261 121.356 60.2862 120.491 59.7374C119.926 59.3782 121.276 58.0909 123.668 59.7261Z" fill="#292929"/>
<path d="M112.763 60.1448C113.656 60.6046 118.008 58.2381 119.132 54.0589C119.132 54.0589 121.058 58.4754 124.612 60.2926C124.612 60.2926 126.712 58.9694 125.371 55.3352C124.029 51.7012 117.683 48.6122 113.514 53.6635C111.662 55.9079 111.872 59.6849 112.763 60.1448Z" fill="#5E361F"/>
<path d="M102.98 47.3387L105.152 31.5716L94.4712 19.8885L110.536 17.3227L118.267 2.5238L126.336 17.0494L143.311 18.7354L132.633 30.9204L134.58 46.7922L118.692 39.4569L102.98 47.3387Z" fill="#FCC605"/>
<path d="M108.538 95.7387C108.538 95.1043 109.094 94.5912 109.782 94.5912C110.469 94.5912 111.026 95.1043 111.026 95.7387C111.026 96.3732 110.469 96.8874 109.782 96.8874C109.094 96.8874 108.538 96.3732 108.538 95.7387Z" fill="#0151A1"/>
<path d="M116.402 96.1338C116.402 95.4993 116.96 94.9851 117.647 94.9851C118.334 94.9851 118.891 95.4993 118.891 96.1338C118.891 96.7671 118.334 97.2813 117.647 97.2813C116.96 97.2813 116.402 96.7671 116.402 96.1338Z" fill="#0151A1"/>
<path d="M112.636 91.8416C112.636 91.2083 113.194 90.6941 113.881 90.6941C114.568 90.6941 115.125 91.2083 115.125 91.8416C115.125 92.4761 114.568 92.9903 113.881 92.9903C113.194 92.9903 112.636 92.4761 112.636 91.8416Z" fill="#0151A1"/>
<path d="M126.306 96.1108C126.306 95.4775 126.863 94.9633 127.55 94.9633C128.237 94.9633 128.795 95.4775 128.795 96.1108C128.795 96.7452 128.237 97.2594 127.55 97.2594C126.863 97.2594 126.306 96.7452 126.306 96.1108Z" fill="#0151A1"/>
<path d="M122.405 92.0546C122.405 91.4202 122.962 90.9071 123.65 90.9071C124.336 90.9071 124.894 91.4202 124.894 92.0546C124.894 92.6891 124.336 93.2033 123.65 93.2033C122.962 93.2033 122.405 92.6891 122.405 92.0546Z" fill="#0151A1"/>
<path d="M117.577 87.3065C117.577 86.672 118.134 86.1578 118.821 86.1578C119.509 86.1578 120.065 86.672 120.065 87.3065C120.065 87.9398 119.509 88.454 118.821 88.454C118.134 88.454 117.577 87.9398 117.577 87.3065Z" fill="#0151A1"/>
<path d="M109.921 85.2679C109.921 84.6346 110.479 84.1204 111.166 84.1204C111.854 84.1204 112.41 84.6346 112.41 85.2679C112.41 85.9023 111.854 86.4165 111.166 86.4165C110.479 86.4165 109.921 85.9023 109.921 85.2679Z" fill="#0151A1"/>
<path d="M125.061 85.6378C125.061 85.0033 125.618 84.4891 126.306 84.4891C126.993 84.4891 127.55 85.0033 127.55 85.6378C127.55 86.2723 126.993 86.7853 126.306 86.7853C125.618 86.7853 125.061 86.2723 125.061 85.6378Z" fill="#0151A1"/>
<path d="M107.433 76.705C107.433 76.0707 107.99 75.5566 108.677 75.5566C109.365 75.5566 109.921 76.0707 109.921 76.705C109.921 77.3394 109.365 77.8536 108.677 77.8536C107.99 77.8536 107.433 77.3394 107.433 76.705Z" fill="#0151A1"/>
<path d="M126.169 76.5848C126.169 75.95 126.727 75.4359 127.413 75.4359C128.101 75.4359 128.658 75.95 128.658 76.5848C128.658 77.2181 128.101 77.7323 127.413 77.7323C126.727 77.7323 126.169 77.2181 126.169 76.5848Z" fill="#0151A1"/>
<path d="M130.888 83.4802C130.888 82.8458 131.444 82.3315 132.132 82.3315C132.82 82.3315 133.376 82.8458 133.376 83.4802C133.376 84.1147 132.82 84.6277 132.132 84.6277C131.444 84.6277 130.888 84.1147 130.888 83.4802Z" fill="#0151A1"/>
<path d="M103.038 82.9718C103.038 82.3373 103.596 81.8231 104.282 81.8231C104.97 81.8231 105.528 82.3373 105.528 82.9718C105.528 83.6062 104.97 84.1205 104.282 84.1205C103.596 84.1205 103.038 83.6062 103.038 82.9718Z" fill="#0151A1"/>
<path d="M102.183 77.0886C102.183 76.4553 102.74 75.9407 103.428 75.9407C104.115 75.9407 104.672 76.4553 104.672 77.0886C104.672 77.7231 104.115 78.2373 103.428 78.2373C102.74 78.2373 102.183 77.7231 102.183 77.0886Z" fill="#0151A1"/>
<path d="M133.377 76.169C133.377 75.5345 133.935 75.0203 134.621 75.0203C135.309 75.0203 135.866 75.5345 135.866 76.169C135.866 76.8024 135.309 77.3166 134.621 77.3166C133.935 77.3166 133.377 76.8024 133.377 76.169Z" fill="#0151A1"/>
<path d="M100.311 40.1432C100.272 40.1432 100.232 40.1333 100.196 40.1122C100.087 40.0486 100.05 39.9084 100.113 39.7991C101.665 37.1202 104.292 34.2533 104.318 34.2247C104.404 34.1316 104.548 34.1259 104.641 34.2115C104.734 34.2973 104.74 34.4422 104.654 34.5352C104.628 34.5634 102.035 37.3943 100.509 40.0292C100.466 40.1023 100.39 40.1432 100.311 40.1432Z" fill="#232528"/>
<path d="M101.844 41.8924C101.804 41.8924 101.764 41.8821 101.728 41.8603C101.619 41.7958 101.583 41.6553 101.648 41.5464L103.855 37.8167C103.92 37.7079 104.06 37.672 104.168 37.7366C104.277 37.8012 104.313 37.9417 104.248 38.0505L102.041 41.7801C101.998 41.8523 101.922 41.8924 101.844 41.8924Z" fill="#232528"/>
<path d="M137.327 40.0414C137.248 40.0414 137.171 40.0005 137.129 39.9273C135.603 37.2929 133.087 34.5646 133.061 34.5373C132.976 34.4446 132.981 34.2997 133.073 34.2137C133.166 34.1276 133.31 34.133 133.396 34.2257C133.422 34.2533 135.972 37.018 137.524 39.6973C137.587 39.8066 137.55 39.9468 137.441 40.0104C137.405 40.0313 137.366 40.0414 137.327 40.0414Z" fill="#232528"/>
<path d="M136.183 41.7338C136.111 41.7338 136.04 41.7 135.996 41.6367L133.409 37.9587C133.336 37.8553 133.361 37.7125 133.464 37.6395C133.567 37.5667 133.71 37.5913 133.782 37.6947L136.369 41.3727C136.442 41.4761 136.417 41.6189 136.314 41.6919C136.274 41.7202 136.228 41.7338 136.183 41.7338Z" fill="#232528"/>
<path d="M135.407 44.1097C135.33 44.1097 135.254 44.0704 135.211 43.9992L133.836 41.72C133.77 41.6118 133.805 41.4709 133.913 41.4054C134.021 41.3399 134.161 41.3747 134.227 41.4828L135.602 43.7621C135.668 43.8703 135.633 44.0111 135.525 44.0766C135.488 44.0991 135.448 44.1097 135.407 44.1097Z" fill="#232528"/>
<path d="M102.46 45.5015C102.444 45.5015 102.427 45.4998 102.411 45.4961C102.288 45.469 102.21 45.3468 102.237 45.2232C102.52 43.9297 103.25 42.3896 103.281 42.3247C103.335 42.2105 103.472 42.1621 103.586 42.2167C103.7 42.2712 103.748 42.4078 103.693 42.5221C103.686 42.5376 102.955 44.0801 102.683 45.3215C102.66 45.4286 102.565 45.5015 102.46 45.5015Z" fill="#232528"/>
<path d="M66.8172 46.2581C64.1973 51.7152 53.7232 63.6657 50.0705 65.2545C48.3258 66.0135 49.1224 70.2084 50.6382 74.2553L50.424 87.8045L55.8084 113.314L62.1674 108.289C62.1674 108.289 58.6576 92.5068 55.6994 80.2895C58.3219 78.4892 70.3947 66.9155 76.7007 53.5948C74.012 52.2133 66.8172 46.2581 66.8172 46.2581Z" fill="#1F6066"/>
<path d="M39.9614 42.7018C41.1782 42.6462 42.2887 43.6414 42.2922 44.8203C42.2922 44.8203 44.436 47.7166 42.3139 48.4499L37.6167 44.689C37.6167 44.689 38.7446 42.7575 39.9614 42.7018Z" fill="#5E361F"/>
<path d="M42.5518 163.287C45.805 163.947 54.6686 167.972 54.7125 172.902L30.2646 171.016C30.2646 171.016 29.4729 164.919 31.0979 163.466C32.7229 162.015 40.1527 162.8 42.5518 163.287Z" fill="#1F6066"/>
<path d="M62.113 156.54C65.2217 157.069 73.7591 160.626 73.9488 165.308L62.0233 165.359L50.677 164.253C50.677 164.253 49.7422 158.485 51.2418 157.056C52.7412 155.628 59.82 156.149 62.113 156.54Z" fill="#1F6066"/>
<path d="M30.1289 118.815L30.8133 155.511C30.8133 155.511 38.2554 158.426 43.3878 156.968L50.9248 103.763L30.5191 107.287L30.1289 118.815Z" fill="#5E361F"/>
<path d="M49.8734 103.863L55.376 102.182L62.2879 148.928L49.7391 150.61L45.5786 127.27L49.8734 103.863Z" fill="#5E361F"/>
<path d="M42.604 95.3528L44.3185 107.75L56.0747 104.436L50.3191 86.0249L42.604 95.3528Z" fill="#DFDFDF"/>
<path d="M67.5461 46.4953L67.8523 37.5131L70.2163 39.102L74.8678 42.8092L81.0538 48.0871L75.9796 54.109C75.9796 54.109 66.4514 48.0346 67.5461 46.4953Z" fill="#FAA89B"/>
<path d="M66.8168 46.2581C64.1968 51.7152 53.7228 63.6657 50.07 65.2545C48.3254 66.0135 47.6636 69.9505 49.1794 73.9974L50.4235 87.8045L55.808 113.314L62.167 108.289C62.167 108.289 58.6572 92.5068 55.699 80.2895C58.3215 78.4892 70.3942 66.9155 76.7002 53.5948C74.0116 52.2133 66.8168 46.2581 66.8168 46.2581Z" fill="#1F6066"/>
<path d="M31.4639 159.464V163.828C31.4639 163.828 38.5202 165.607 42.1089 164.191L42.0685 160.07L31.4639 159.464Z" fill="#FAA89B"/>
<path d="M51.4688 153.242L51.5998 157.388C51.5998 157.388 58.3539 158.866 61.7192 157.414L61.6822 151.234L51.4688 153.242Z" fill="#FAA89B"/>
<path d="M50.813 65.0615C50.7572 65.0441 50.6975 65.0499 50.6416 65.0794C50.53 65.1382 50.4864 65.2752 50.5453 65.3871C50.8808 66.0261 52.0903 69.2049 54.1944 74.8997C54.2284 74.9918 55.729 79.07 56.0689 79.992C56.1781 79.9095 56.3186 79.795 56.4475 79.6919C56.0515 78.6165 54.656 74.8282 54.6229 74.7387C52.4988 68.9896 51.2992 65.8434 50.9487 65.176C50.9193 65.12 50.8688 65.0788 50.813 65.0615Z" fill="#32767C"/>
<path d="M69.9914 48.7992C68.7974 50.6588 65.8449 54.5037 62.5963 58.3511C57.8036 64.0272 53.5485 68.3692 51.2203 69.7496C51.1116 69.8141 51.0774 69.9521 51.1418 70.061C51.206 70.1699 51.3473 70.2077 51.456 70.1434C53.845 68.7268 58.1147 64.3624 62.9426 58.6446C66.1774 54.814 69.0933 51.023 70.3444 49.082C70.1605 48.9372 70.1662 48.938 69.9914 48.7992Z" fill="#32767C"/>
<path d="M41.043 62.9379L42.9213 74.8042L32.5493 67.0552L30.6079 55.1682L36.9187 59.8997L41.043 62.9379Z" fill="#FAA89B"/>
<path d="M37.1603 65.3382C37.1603 65.3382 40.7954 71.2927 40.855 71.0169C40.954 70.5574 40.656 61.9121 40.656 61.9121L33.2959 58.6801L37.1603 65.3382Z" fill="#292929"/>
<path d="M35.5108 44.2983L33.6833 45.0336C31.2193 46.025 28.011 50.069 29.2792 52.129L32.6378 57.5282C34.8306 60.9111 39.8427 62.6355 42.2782 61.6357C44.7139 60.636 46.3377 58.869 45.4961 55.749L41.7634 46.9752C40.7743 44.5054 37.9749 43.3069 35.5108 44.2983Z" fill="#FAA89B"/>
<path d="M30.5274 52.1179C30.6028 52.1557 34.2241 50.3409 33.6959 44.9344C33.6959 44.9344 37.7319 45.241 39.265 43.5424C40.798 41.844 40.9159 38.5825 38.5344 37.9718C36.1528 37.3612 33.2699 39.3681 33.2699 39.3681C33.2699 39.3681 34.6314 36.849 32.1586 36.2575C29.6857 35.6661 26.812 38.4423 28.0836 40.9651C28.0836 40.9651 23.6787 42.3993 25.7367 45.9483C25.7367 45.9483 22.9236 48.6015 24.6936 50.8795C24.6936 50.8795 23.2097 55.6718 27.0571 56.428C27.0571 56.428 28.9054 60.0952 31.395 59.0745C31.395 59.0745 30.452 52.08 30.5274 52.1179Z" fill="#5E361F"/>
<path d="M32.5017 54.7161C32.5017 53.3408 31.4143 52.2258 30.0729 52.2258C28.7315 52.2258 27.644 53.3408 27.644 54.7161C27.644 56.0914 28.7315 57.2063 30.0729 57.2063C31.4143 57.2063 32.5017 56.0914 32.5017 54.7161Z" fill="#FAA89B"/>
<path d="M41.8584 64.268C42.4977 64.0039 42.7867 63.1448 42.5038 62.3491L41.2177 58.7316C40.9348 57.9359 40.1872 57.5049 39.5478 57.769C38.9085 58.0332 38.6196 58.8923 38.9026 59.688L40.1887 63.3054C40.4716 64.1012 41.2193 64.5322 41.8584 64.268Z" fill="#FAA89B"/>
<path d="M41.8137 71.6045L49.4674 73.8175L50.1407 65.4614L43.3907 61.5295C43.3907 61.5295 40.3482 61.513 40.3289 61.7075C40.3095 61.9018 41.2928 70.2499 41.8137 71.6045Z" fill="#FAA89B"/>
<path d="M40.8871 69.8135C40.8871 69.8135 40.0284 67.149 39.2095 65.2026C38.3906 63.2561 37.2546 60.8896 37.6286 61.2287C38.0024 61.5678 39.979 62.0319 39.979 62.0319L40.7447 63.8702L40.8871 69.8135Z" fill="#FAA89B"/>
<path d="M54.7036 172.401C55.443 173.026 55.1562 174.21 54.3471 174.989C53.5381 175.767 41.2971 174.836 41.2971 174.836C41.2971 174.836 31.621 174.134 30.748 173.863C29.8749 173.592 29.2762 171.84 30.1534 170.8C30.1534 170.8 36.061 171.596 42.2184 171.835C49.4591 172.115 54.3405 172.096 54.7036 172.401Z" fill="#FFEEE3"/>
<path d="M51.2684 175.529C50.3272 175.529 49.104 175.501 47.5087 175.433C44.3797 175.299 41.3101 175.067 41.2795 175.064C40.8841 175.036 31.5678 174.357 30.68 174.081C30.2058 173.935 29.7922 173.437 29.6009 172.781C29.3725 171.999 29.5137 171.203 29.9785 170.652C30.0289 170.593 30.1058 170.563 30.1835 170.573C30.2425 170.581 36.1516 171.371 42.2268 171.606C44.7085 171.702 46.9515 171.764 48.7538 171.814C53.1575 171.935 54.5642 171.985 54.8502 172.226C55.1682 172.494 55.3437 172.866 55.3577 173.299C55.3781 173.927 55.0594 174.62 54.505 175.154C54.3755 175.278 54.1149 175.529 51.2684 175.529ZM30.253 171.044C29.9481 171.473 29.8676 172.064 30.0395 172.653C30.186 173.154 30.4904 173.543 30.8151 173.644C31.5111 173.86 38.6292 174.413 41.3133 174.608C47.2531 175.059 53.6928 175.264 54.189 174.823C54.6441 174.385 54.9171 173.807 54.9011 173.314C54.8913 173.013 54.7777 172.767 54.5634 172.583C54.2518 172.424 51.8183 172.356 48.7413 172.271C46.9379 172.221 44.6935 172.159 42.2093 172.063C36.6125 171.847 31.1572 171.162 30.253 171.044Z" fill="#292929"/>
<path d="M73.9261 164.834C74.6471 165.404 74.4095 166.537 73.6645 167.302C72.9207 168.066 61.2683 167.55 61.2683 167.55C61.2683 167.55 52.0588 167.175 51.2217 166.944C50.3845 166.713 49.7634 165.067 50.5652 164.053C50.5652 164.053 56.7555 165.009 62.7002 165.142C68.2554 165.267 73.5777 164.558 73.9261 164.834Z" fill="#FFEEE3"/>
<path d="M68.5411 167.949C68.1236 167.949 67.6727 167.947 67.185 167.941C64.2095 167.908 61.2873 167.78 61.2582 167.779C60.8819 167.764 52.0137 167.4 51.1612 167.165C50.7021 167.039 50.2915 166.574 50.0892 165.954C49.848 165.215 49.9591 164.451 50.3862 163.91C50.4373 163.846 50.519 163.814 50.6002 163.826C50.6619 163.836 56.8446 164.782 62.7054 164.913C65.7932 164.982 68.7673 164.796 70.9391 164.66C73.3314 164.51 73.8641 164.493 74.0678 164.654C74.38 164.901 74.5591 165.25 74.5859 165.665C74.6245 166.263 74.3413 166.935 73.8281 167.462C73.6813 167.613 73.3528 167.949 68.5411 167.949ZM50.6691 164.3C50.4013 164.712 50.3457 165.267 50.5235 165.812C50.6764 166.281 50.9743 166.639 51.2823 166.724C51.9482 166.907 58.7232 167.217 61.2775 167.321C66.9153 167.571 73.0289 167.571 73.5017 167.141C73.9187 166.713 74.1597 166.158 74.1296 165.694C74.1117 165.416 74.0005 165.191 73.7992 165.025C73.57 164.954 72.3054 165.033 70.9674 165.117C68.7876 165.253 65.8022 165.441 62.695 165.371C57.2923 165.25 51.6206 164.441 50.6691 164.3Z" fill="#292929"/>
<path d="M49.5212 149.464C49.5212 149.464 49.3619 152.017 49.8794 153.094C50.3969 154.172 61.6218 153.293 63.0547 150.94C63.0547 150.94 63.0945 148.506 62.2985 147.229C62.2985 147.229 60.5072 148.786 56.0889 149.304C52.2016 149.76 49.5212 149.464 49.5212 149.464Z" fill="#77533E"/>
<path d="M30.7412 155.185C30.7412 155.185 30.0619 157.651 30.3474 158.812C30.633 159.973 41.7983 161.426 43.6832 159.418C43.6832 159.418 44.2211 157.044 43.7039 155.631C43.7039 155.631 41.6318 156.784 37.2015 156.382C33.3037 156.028 30.7412 155.185 30.7412 155.185Z" fill="#77533E"/>
<path d="M32.3278 65.7878C30.733 68.1857 31.6489 70.8441 31.6566 70.8662C27.4707 71.8885 26.4859 73.7519 26.0293 82.3258C25.5713 90.9265 26.8649 120.401 26.8649 120.401L46.6138 120.962C46.6138 120.962 49.3411 95.5166 49.8917 92.618C50.763 88.0325 51.7877 73.715 51.7877 73.715L40.7617 70.9056C40.7617 70.9056 33.7303 67.6957 32.3278 65.7878Z" fill="#1F6066"/>
<path d="M29.7682 71.5032C29.611 71.577 29.4623 71.659 29.3184 71.7429L30.3323 120.501L30.7893 120.512L29.7682 71.5032Z" fill="#31757B"/>
<path d="M33.5171 66.8616L36.0058 120.662L36.4593 120.673L33.9883 67.2087C33.8192 67.092 33.6695 66.976 33.5171 66.8616Z" fill="#31757B"/>
<path d="M41.087 70.9879L40.2979 120.784L40.7549 120.795L41.5441 71.106L41.087 70.9879Z" fill="#31757B"/>
<path d="M47.528 72.6305C47.3654 75.0056 45.6305 100.33 45.6035 100.717C44.9507 110.11 44.5048 116.242 44.1538 120.891L44.6108 120.905C44.9619 116.253 45.4083 110.134 46.0606 100.749C46.0874 100.363 47.8026 75.2595 47.9744 72.745L47.528 72.6305Z" fill="#31757B"/>
<path d="M26.4756 110.194C26.4813 110.351 26.4843 110.502 26.49 110.655L47.4958 112.907C47.5169 112.713 47.524 112.651 47.5458 112.452L26.4756 110.194Z" fill="#31757B"/>
<path d="M26.04 95.4604C26.0434 95.6173 26.0437 95.7708 26.0471 95.9288L48.924 100.213C48.9408 100.069 48.9611 99.8993 48.9776 99.7585L26.04 95.4604Z" fill="#31757B"/>
<path d="M25.9648 85.0961C25.9622 85.261 25.9562 85.3858 25.9541 85.5576L50.5484 87.7793C50.5647 87.6327 50.5787 87.4713 50.5948 87.3212L25.9648 85.0961Z" fill="#31757B"/>
<path d="M26.9297 75.1357C26.8905 75.2716 26.8624 75.4453 26.8262 75.5902L51.5491 76.6855C51.5593 76.5492 51.5759 76.3488 51.5847 76.2308L26.9297 75.1357Z" fill="#31757B"/>
<path d="M51.4381 81.4954C51.3148 81.5229 51.2361 81.6431 51.2631 81.7668L57.8116 111.733L58.2151 111.414L51.7094 81.6672C51.6824 81.5435 51.5613 81.4679 51.4381 81.4954Z" fill="#32767C"/>
<path d="M55.4476 60.8134C55.3297 60.9321 55.2143 61.0414 55.0977 61.1569C55.832 62.5213 57.085 64.7423 59.5324 68.9945C59.5449 69.0163 60.9676 71.4918 62.3782 73.962C62.4843 73.848 62.5992 73.717 62.7066 73.6005C61.9827 72.3385 61.45 71.4092 59.9716 68.8407C59.952 68.8066 56.5609 62.8648 55.4476 60.8134Z" fill="#32767C"/>
<path d="M60.6821 55.0155C60.5844 55.1335 60.4841 55.2484 60.3857 55.3662C62.2627 57.2661 64.4164 59.4878 66.3953 61.6149C67.6682 62.9828 68.7137 64.1534 69.6403 65.2151C69.7329 65.0897 69.8243 64.9587 69.9157 64.8323C69.0004 63.7868 67.9744 62.6407 66.7301 61.3035C64.7386 59.1623 62.5686 56.9243 60.6821 55.0155Z" fill="#32767C"/>
<path d="M65.2664 48.9102C65.1887 49.0298 65.087 49.1637 65.0059 49.2859C66.722 50.4807 68.9501 52.1591 71.4718 54.1782C72.7287 55.1836 73.8678 56.1281 74.9213 57.0162C74.9978 56.8793 75.079 56.7455 75.1532 56.6081C74.1158 55.7349 72.9949 54.8105 71.7574 53.8202C69.2277 51.7949 66.9974 50.115 65.2664 48.9102Z" fill="#32767C"/>
<path d="M74.6069 52.2708C73.3398 54.9583 68.9648 60.8932 63.117 68.0248C57.7737 74.5406 52.5081 80.4318 51.5983 80.9231C51.4871 80.9826 51.4455 81.1223 51.5054 81.2346C51.5653 81.3457 51.7049 81.3869 51.8161 81.3273C52.8083 80.7914 58.0524 74.9219 63.4701 68.3147C69.2973 61.2094 73.6506 55.3092 74.9897 52.5284C74.8652 52.4444 74.7361 52.3603 74.6069 52.2708Z" fill="#32767C"/>
<path d="M57.7115 88.7781L51.6022 92.8116C51.5518 92.8448 51.5222 92.8963 51.5093 92.9513L51.5486 93.1379C51.6206 93.2341 51.7541 93.2616 51.8557 93.1952L57.8221 89.2545C57.7849 89.0941 57.7489 88.9384 57.7115 88.7781Z" fill="#32767C"/>
<path d="M59.6786 97.2814L53.0122 100.073L53.1337 100.643L59.8071 97.8471C59.7669 97.6707 59.7193 97.46 59.6786 97.2814Z" fill="#32767C"/>
<path d="M35.877 87.9867L37.3495 89.8087L39.8789 74.854L35.877 87.9867Z" fill="#292929"/>
<path d="M39.2564 62.0583C38.5875 62.0583 37.3092 61.7952 35.5497 60.8036C35.4397 60.7417 35.4006 60.6021 35.4625 60.4918C35.5242 60.3815 35.6638 60.3422 35.7736 60.4044C37.8436 61.5708 39.1588 61.6503 39.4904 61.582C39.6139 61.5562 39.7347 61.6367 39.7599 61.7607C39.7852 61.8846 39.7054 62.0057 39.5817 62.0309C39.4982 62.0479 39.3893 62.0583 39.2564 62.0583Z" fill="#292929"/>
<path d="M76.8824 54.0269C76.8346 54.0269 76.7865 54.0121 76.7453 53.981L66.9121 46.58C66.8112 46.5041 66.7908 46.3604 66.8666 46.2593C66.9423 46.1582 67.0857 46.1378 67.1866 46.2137L77.0197 53.6148C77.1206 53.6907 77.1411 53.8343 77.0652 53.9354C77.0204 53.9953 76.9517 54.0269 76.8824 54.0269Z" fill="#292929"/>
<path d="M46.6326 134.021C46.6245 134.021 46.6163 134.021 46.6082 134.02C46.4826 134.007 46.3917 133.894 46.4051 133.768C46.5494 132.412 47.8546 120.389 49.2289 115.818C49.2654 115.697 49.3932 115.629 49.5137 115.665C49.6345 115.702 49.703 115.83 49.6665 115.951C48.3041 120.481 47.0034 132.465 46.8595 133.817C46.8471 133.934 46.7479 134.021 46.6326 134.021Z" fill="#292929"/>
<path d="M48.1465 106.754L54.0698 105.06L55.8809 113.333L48.1465 106.754Z" fill="#292929"/>
<path d="M38.3006 165.016C35.4929 165.016 32.2741 164.454 31.4285 163.954C31.3197 163.89 31.2836 163.75 31.3476 163.641C31.4117 163.532 31.5517 163.495 31.6604 163.56C32.9847 164.341 40.038 165.113 41.9704 163.947C42.0785 163.881 42.2189 163.916 42.284 164.025C42.3491 164.133 42.3143 164.274 42.2061 164.339C41.3934 164.83 39.9148 165.016 38.3006 165.016Z" fill="#292929"/>
<path d="M57.5439 158.398C57.0361 158.398 56.5405 158.379 56.0817 158.351C53.9439 158.221 51.9613 157.843 51.519 157.586C51.4099 157.522 51.3728 157.382 51.4363 157.272C51.4997 157.163 51.6398 157.126 51.7486 157.189C52.4496 157.598 59.3362 158.671 61.6552 157.159C61.761 157.09 61.9025 157.12 61.9713 157.226C62.0401 157.332 62.0101 157.474 61.9042 157.543C60.8796 158.211 59.1529 158.398 57.5439 158.398Z" fill="#292929"/>
<path d="M68.5614 161.191C68.5142 161.191 68.4666 161.176 68.4257 161.146C66.6862 159.858 62.0393 157.733 61.5289 157.682C61.4034 157.669 61.3118 157.557 61.3244 157.431C61.337 157.305 61.448 157.214 61.5746 157.226C62.2025 157.289 66.9581 159.49 68.6972 160.778C68.7988 160.853 68.8203 160.996 68.7453 161.098C68.7005 161.159 68.6314 161.191 68.5614 161.191Z" fill="#292929"/>
<path d="M68.3866 165.185C68.2793 165.185 68.1836 165.109 68.1626 165C67.9628 163.962 68.412 159.827 68.8628 159.341C68.9488 159.248 69.0934 159.243 69.1859 159.329C69.2783 159.415 69.2834 159.56 69.1975 159.653C68.9067 160.005 68.4135 163.885 68.6114 164.913C68.6352 165.037 68.5542 165.157 68.4303 165.181C68.4156 165.184 68.401 165.185 68.3866 165.185Z" fill="#292929"/>
<path d="M48.9038 168.123C48.8566 168.123 48.809 168.108 48.7682 168.078C47.0297 166.79 42.3825 164.665 41.8717 164.614C41.7461 164.601 41.6546 164.489 41.6672 164.363C41.6797 164.237 41.7913 164.145 41.9174 164.158C42.5458 164.222 47.3015 166.422 49.0398 167.71C49.1413 167.785 49.1628 167.928 49.0877 168.03C49.043 168.091 48.9738 168.123 48.9038 168.123Z" fill="#292929"/>
<path d="M48.7291 172.117C48.6219 172.117 48.5261 172.041 48.5051 171.932C48.3058 170.893 48.7557 166.757 49.2064 166.273C49.2924 166.18 49.4371 166.175 49.5294 166.261C49.6217 166.348 49.6268 166.493 49.5406 166.585C49.2499 166.936 48.7566 170.816 48.9539 171.845C48.9777 171.969 48.8967 172.089 48.7727 172.113C48.7581 172.116 48.7435 172.117 48.7291 172.117Z" fill="#292929"/>
<path d="M29.6999 56.2128C29.6717 56.2128 29.643 56.2075 29.6153 56.1964C29.498 56.1494 29.441 56.0162 29.4878 55.8987L29.9559 54.7237L29.032 54.3661C28.9143 54.3205 28.8557 54.1879 28.9011 54.0699C28.9466 53.9519 29.0788 53.8932 29.1966 53.9388L30.3361 54.3798C30.393 54.4018 30.4389 54.4459 30.4633 54.5019C30.4876 54.558 30.4887 54.6215 30.466 54.6784L29.9122 56.0686C29.8766 56.1582 29.7907 56.2128 29.6999 56.2128Z" fill="#292929"/>
<path d="M72.6762 45.673C72.6461 45.673 72.6154 45.667 72.586 45.6542C72.47 45.6042 72.4165 45.4695 72.4665 45.3532C72.8305 44.5052 72.9987 42.3266 72.6617 41.567C72.6104 41.4514 72.6624 41.3161 72.7777 41.2646C72.8931 41.2133 73.028 41.2653 73.0793 41.3809C73.4694 42.2604 73.2998 44.5711 72.8861 45.5343C72.849 45.6211 72.7648 45.673 72.6762 45.673Z" fill="#292929"/>
<path d="M75.0448 47.8023C74.9957 47.8023 74.9462 47.7865 74.9044 47.7539C74.8049 47.6761 74.7872 47.5321 74.8647 47.4324C75.5702 46.5257 76.5155 45.4642 77.5734 45.303C77.6982 45.2838 77.8147 45.3698 77.8336 45.4949C77.8527 45.62 77.7669 45.7368 77.6421 45.7558C76.7336 45.8943 75.8276 46.9398 75.2252 47.7141C75.1801 47.7721 75.1128 47.8023 75.0448 47.8023Z" fill="#292929"/>
<path d="M42.1087 50.694C41.8511 50.194 41.8684 49.6241 42.1473 49.4211C42.4264 49.218 42.8615 49.4587 43.1191 49.9586C43.3768 50.4585 43.3594 51.0285 43.0804 51.2314C42.8015 51.4345 42.3664 51.1939 42.1087 50.694Z" fill="#292929"/>
<path d="M35.8626 51.0956C35.9199 51.4133 37.232 50.6261 38.0004 50.3622C38.7688 50.0985 39.0147 49.6587 38.5093 49.3299C37.7736 48.8512 35.7139 50.2681 35.8626 51.0956Z" fill="#292929"/>
<path d="M43.2939 48.1663C43.3939 48.4591 42.0749 48.5575 41.3907 48.7769C40.7067 48.9961 40.3287 48.7753 40.5539 48.2195C40.8817 47.4105 43.0332 47.4042 43.2939 48.1663Z" fill="#292929"/>
<path d="M42.5539 54.2371C42.5454 54.2371 42.537 54.2367 42.5283 54.2357C42.4028 54.2218 42.3124 54.1085 42.3264 53.9828C42.3548 53.7263 42.5939 53.085 42.7303 52.7342C42.1468 52.4816 41.2762 51.7711 40.9702 51.4733C40.8797 51.3853 40.8775 51.2402 40.9654 51.1495C41.0534 51.0587 41.1981 51.0566 41.2886 51.1447C41.7435 51.5874 42.7219 52.311 43.0684 52.3664C43.1372 52.3774 43.197 52.4193 43.2313 52.4801C43.2656 52.5408 43.2703 52.614 43.2441 52.6786C43.0773 53.0912 42.804 53.8239 42.7807 54.0335C42.7677 54.1505 42.6687 54.2371 42.5539 54.2371Z" fill="#292929"/>
<path d="M41.4119 50.3544C41.3685 50.3544 41.3245 50.3421 41.2855 50.3161C41.1805 50.246 41.152 50.1038 41.2219 49.9985C41.6743 49.317 42.6638 49.0602 43.1742 49.1429C43.2989 49.163 43.3834 49.2807 43.3633 49.4056C43.3432 49.5304 43.2254 49.6151 43.1013 49.5951C42.766 49.5411 41.9567 49.7188 41.6024 50.2524C41.5583 50.3186 41.4858 50.3544 41.4119 50.3544Z" fill="#292929"/>
<path d="M45.0068 62.216C45.7214 61.7482 46.9175 61.6897 47.3404 62.3183C47.3404 62.3183 48.3176 62.0114 49.0323 62.6545C49.747 63.2978 50.4486 64.9765 50.067 66.0721C49.6856 67.1678 45.9402 64.2772 45.9402 64.2772C45.9402 64.2772 44.2921 62.6839 45.0068 62.216Z" fill="#FAA89B"/>
<path d="M38.057 52.8324C37.7993 52.3324 37.8166 51.7625 38.0956 51.5595C38.3746 51.3564 38.8096 51.5972 39.0673 52.0971C39.3249 52.5971 39.3077 53.1669 39.0287 53.37C38.7496 53.573 38.3147 53.3323 38.057 52.8324Z" fill="#292929"/>
<path d="M37.3596 52.4932C37.3162 52.4932 37.2722 52.4809 37.2333 52.4549C37.1283 52.3848 37.0997 52.2427 37.1696 52.1373C37.622 51.4559 38.6116 51.1989 39.1219 51.2817C39.2464 51.3019 39.3312 51.4195 39.311 51.5443C39.2909 51.6691 39.1733 51.7539 39.049 51.7338C38.7145 51.6797 37.9043 51.8574 37.5501 52.3911C37.5061 52.4574 37.4336 52.4932 37.3596 52.4932Z" fill="#292929"/>
<path d="M42.3326 56.9479C42.1754 56.9479 42.0355 56.9291 41.9233 56.8925C41.8032 56.8535 41.7374 56.7243 41.7764 56.6041C41.8152 56.4837 41.9447 56.418 42.0642 56.4568C42.5106 56.6018 43.8381 56.3101 44.2661 55.3089C44.3158 55.1927 44.4503 55.1389 44.5661 55.1886C44.6822 55.2384 44.7359 55.3731 44.6862 55.4894C44.2495 56.5106 43.0891 56.9479 42.3326 56.9479Z" fill="#292929"/>
<path d="M51.4817 42.2628L57.3716 27.4814L49.8062 13.5673L66.0152 14.9478L77.0698 2.4458L81.4174 18.4896L97.4914 24.2169L84.203 33.4713L82.2858 49.3467L68.6238 38.3983L51.4817 42.2628Z" fill="#FCC605"/>
<path d="M42.6752 101.305C40.4458 101.305 37.7771 100.429 34.7061 98.685C31.6292 96.9379 29.2691 94.918 29.2457 94.8979C29.1499 94.8155 29.139 94.671 29.2211 94.5749C29.3033 94.4789 29.4477 94.4678 29.5433 94.5503C29.6356 94.6297 38.8419 102.464 44.7443 100.536C46.9228 99.8245 48.4082 97.844 49.1593 94.6498C50.4159 89.3054 51.5492 74.5645 51.5605 74.4162C51.5701 74.2901 51.6794 74.195 51.8057 74.2052C51.9317 74.2148 52.0258 74.3249 52.0162 74.4511C52.0049 74.5997 50.8688 89.376 49.6042 94.7551C48.814 98.1158 47.2263 100.207 44.8855 100.972C44.2057 101.194 43.468 101.305 42.6752 101.305Z" fill="#292929"/>
<path d="M37.4555 90.1478C37.443 90.1478 37.4304 90.1467 37.4178 90.1447C37.2933 90.1241 37.209 90.0061 37.2297 89.8813L40.3743 70.8585C40.3949 70.7338 40.5126 70.6498 40.6371 70.67C40.7616 70.6907 40.8459 70.8087 40.8252 70.9334L37.6806 89.9562C37.662 90.0682 37.5653 90.1478 37.4555 90.1478Z" fill="#292929"/>
<path d="M39.772 76.17C39.746 76.17 39.7194 76.1654 39.6935 76.1559C37.325 75.2878 32.2353 71.7106 31.5295 70.9204C31.4453 70.8261 31.4533 70.6814 31.5473 70.597C31.6413 70.5126 31.7858 70.5206 31.87 70.6149C32.5398 71.3647 37.5922 74.898 39.8505 75.7257C39.969 75.7691 40.03 75.9006 39.9866 76.0194C39.9528 76.1124 39.8652 76.17 39.772 76.17Z" fill="#292929"/>
<path d="M40.0686 65.5284C39.9892 65.5284 39.912 65.4869 39.8699 65.4128C39.8073 65.3029 39.8454 65.1631 39.955 65.1003C40.6145 64.7229 40.0036 63.1674 39.4646 61.7948C39.2245 61.1836 38.9764 60.5516 38.8241 59.9965C38.5253 58.9081 38.931 58.2025 39.4656 57.9861C40.0678 57.7422 40.9765 58.0501 41.6491 59.2864C42.0608 60.0433 42.3304 60.6398 42.5683 61.1659C42.9719 62.0586 43.2635 62.7037 43.9751 63.463C44.0615 63.5552 44.0569 63.7001 43.9649 63.7867C43.8729 63.8733 43.7283 63.8688 43.6419 63.7765C42.8785 62.9618 42.5738 62.2878 42.1521 61.3548C41.9175 60.8359 41.6516 60.2477 41.2479 59.5056C40.71 58.5167 40.0512 58.243 39.6368 58.4108C39.2901 58.5511 39.0406 59.0582 39.2647 59.8749C39.4105 60.4064 39.6543 61.0268 39.89 61.6269C40.5265 63.2479 41.1848 64.9239 40.1817 65.4979C40.1459 65.5186 40.107 65.5284 40.0686 65.5284Z" fill="#292929"/>
<path d="M46.2599 64.6345C46.1694 64.6345 46.0838 64.5804 46.0479 64.4912C45.501 63.1325 44.8085 62.2556 44.0981 62.022C43.7558 61.9094 43.4195 61.9532 43.0981 62.1521C42.9909 62.2187 42.8498 62.1852 42.7837 62.0776C42.7173 61.9699 42.7506 61.8288 42.858 61.7624C43.293 61.4932 43.7713 61.4325 44.2407 61.5867C45.0934 61.8672 45.865 62.8122 46.4718 64.3197C46.5191 64.437 46.4626 64.5705 46.3455 64.6178C46.3174 64.6292 46.2883 64.6345 46.2599 64.6345Z" fill="#292929"/>
<path d="M48.3154 64.8353C48.2223 64.8353 48.1349 64.7778 48.1008 64.6851C48.0966 64.6734 47.6667 63.5035 47.2357 62.7366C47.0711 62.4434 46.7842 62.2335 46.4279 62.1455C46.0493 62.0522 45.6501 62.1084 45.3601 62.2966C45.2541 62.3653 45.1127 62.335 45.044 62.2288C44.9755 62.1226 45.0057 61.9807 45.1117 61.912C45.5055 61.6565 46.0384 61.5776 46.5373 61.7006C47.0172 61.8193 47.4066 62.1072 47.6339 62.5117C48.0832 63.3113 48.5118 64.478 48.5298 64.5273C48.5733 64.646 48.5125 64.7776 48.3939 64.8211C48.3682 64.8307 48.3416 64.8353 48.3154 64.8353Z" fill="#292929"/>
<path d="M49.5583 64.0673C49.4565 64.0673 49.3636 63.9985 49.3371 63.8951C49.1278 63.0777 48.6923 62.727 48.3641 62.5769C48.0112 62.4156 47.6856 62.4419 47.6092 62.4802C47.4964 62.5368 47.359 62.491 47.3025 62.3778C47.246 62.2647 47.2919 62.127 47.4047 62.0704C47.6306 61.9573 48.0976 61.9516 48.5537 62.1601C48.9727 62.3517 49.5255 62.7885 49.7797 63.7813C49.8112 63.9038 49.7375 64.0287 49.6152 64.06C49.5962 64.0648 49.5772 64.0673 49.5583 64.0673Z" fill="#292929"/>
</svg>
