<svg width="144" height="43" viewBox="0 0 144 43" fill="none" xmlns="http://www.w3.org/2000/svg">
<path d="M143.2 38.0409C143.2 40.3325 141.367 42.1886 139.099 42.1886H4.90575C2.6394 42.1886 0.799805 40.3325 0.799805 38.0409V4.96439C0.799805 2.67395 2.6394 0.811279 4.90575 0.811279H139.098C141.367 0.811279 143.199 2.67395 143.199 4.96439L143.2 38.0409Z" fill="url(#paint0_linear_1319_2357)"/>
<path d="M32.1364 21.2678C32.1054 17.803 34.9513 16.1174 35.0814 16.039C33.4697 13.6707 30.9716 13.3472 30.0937 13.3214C27.9956 13.0988 25.9604 14.5866 24.8916 14.5866C23.8014 14.5866 22.1556 13.3429 20.3817 13.3794C18.099 13.4149 15.9636 14.7468 14.7924 16.8151C12.3753 21.0323 14.178 27.2297 16.4937 30.6385C17.6521 32.308 19.0057 34.1721 20.7774 34.1065C22.5108 34.0344 23.1582 32.9928 25.25 32.9928C27.3225 32.9928 27.9305 34.1065 29.7374 34.0645C31.5977 34.0344 32.7689 32.3876 33.8868 30.703C35.2254 28.7895 35.763 26.9051 35.7844 26.8083C35.7406 26.7933 32.1716 25.4205 32.1364 21.2678Z" fill="white"/>
<path d="M28.723 11.0789C29.6553 9.90393 30.2932 8.3054 30.1161 6.68323C28.7668 6.74343 27.0793 7.62385 26.1076 8.77303C25.2478 9.78568 24.4798 11.4455 24.6782 13.0064C26.194 13.1203 27.7502 12.2356 28.723 11.0789Z" fill="white"/>
<path d="M52.3202 10.7597C52.3202 12.025 51.9436 12.9774 51.1916 13.6171C50.4951 14.2072 49.5052 14.5029 48.2231 14.5029C47.5874 14.5029 47.0434 14.4749 46.5879 14.419V7.5057C47.182 7.40895 47.822 7.3595 48.5132 7.3595C49.7346 7.3595 50.6551 7.62717 51.2759 8.16252C51.9714 8.76775 52.3202 9.63312 52.3202 10.7597ZM51.1415 10.7909C51.1415 9.97067 50.926 9.3418 50.4951 8.9032C50.0642 8.46567 49.4348 8.24637 48.606 8.24637C48.254 8.24637 47.9543 8.27002 47.7058 8.31947V13.5751C47.8434 13.5966 48.0951 13.6063 48.461 13.6063C49.3164 13.6063 49.9767 13.3666 50.4418 12.8871C50.9068 12.4077 51.1415 11.7089 51.1415 10.7909Z" fill="white"/>
<path d="M58.5693 11.8648C58.5693 12.6442 58.3485 13.2827 57.9069 13.7837C57.444 14.2986 56.8307 14.5555 56.0648 14.5555C55.3267 14.5555 54.7389 14.3094 54.3005 13.8149C53.8632 13.3214 53.6445 12.699 53.6445 11.9487C53.6445 11.1639 53.8696 10.52 54.3219 10.0201C54.7741 9.52025 55.3821 9.26978 56.148 9.26978C56.8861 9.26978 57.4792 9.51595 57.9283 10.0094C58.3549 10.4888 58.5693 11.108 58.5693 11.8648ZM57.4099 11.9014C57.4099 11.4337 57.3096 11.0328 57.1101 10.6984C56.8755 10.2942 56.5416 10.0921 56.1075 10.0921C55.6584 10.0921 55.3171 10.2942 55.0824 10.6984C54.8819 11.0328 54.7827 11.4402 54.7827 11.9218C54.7827 12.3894 54.8829 12.7904 55.0824 13.1247C55.3245 13.5289 55.6616 13.731 56.0968 13.731C56.5235 13.731 56.8584 13.5257 57.0995 13.114C57.3064 12.7732 57.4099 12.369 57.4099 11.9014Z" fill="white"/>
<path d="M66.9494 9.37292L65.3761 14.4405H64.3521L63.7003 12.2399C63.535 11.6906 63.4006 11.1445 63.2961 10.6027H63.2758C63.1787 11.1596 63.0443 11.7046 62.8715 12.2399L62.1793 14.4405H61.1435L59.6641 9.37292H60.8129L61.3814 11.782C61.519 12.3518 61.6321 12.8946 61.7227 13.4085H61.743C61.8262 12.9849 61.9638 12.4453 62.1579 11.7928L62.8715 9.374H63.7825L64.4662 11.7411C64.6315 12.3184 64.7659 12.8742 64.8694 13.4096H64.9003C64.9761 12.8882 65.0902 12.3324 65.2417 11.7411L65.8518 9.374H66.9494V9.37292Z" fill="white"/>
<path d="M72.7449 14.4406H71.627V11.5381C71.627 10.6437 71.2899 10.1965 70.6137 10.1965C70.2819 10.1965 70.0142 10.319 69.8062 10.5652C69.6003 10.8114 69.4958 11.1016 69.4958 11.4338V14.4395H68.3779V10.8211C68.3779 10.376 68.3641 9.89333 68.3374 9.37088H69.3198L69.3721 10.1632H69.403C69.5331 9.91698 69.7273 9.7138 69.9822 9.55148C70.2851 9.36228 70.6243 9.2666 70.9955 9.2666C71.4649 9.2666 71.8553 9.41925 72.1657 9.72563C72.5518 10.1008 72.7449 10.6609 72.7449 11.4048V14.4406Z" fill="white"/>
<path d="M75.8272 14.4405H74.7104V7.04773H75.8272V14.4405Z" fill="white"/>
<path d="M82.4087 11.8648C82.4087 12.6442 82.1879 13.2827 81.7463 13.7837C81.2834 14.2986 80.669 14.5555 79.9042 14.5555C79.165 14.5555 78.5772 14.3094 78.1399 13.8149C77.7026 13.3214 77.4839 12.699 77.4839 11.9487C77.4839 11.1639 77.709 10.52 78.1612 10.0201C78.6135 9.52025 79.2215 9.26978 79.9863 9.26978C80.7255 9.26978 81.3175 9.51595 81.7676 10.0094C82.1943 10.4888 82.4087 11.108 82.4087 11.8648ZM81.2482 11.9014C81.2482 11.4337 81.1479 11.0328 80.9484 10.6984C80.7148 10.2942 80.3799 10.0921 79.9468 10.0921C79.4967 10.0921 79.1554 10.2942 78.9218 10.6984C78.7212 11.0328 78.622 11.4402 78.622 11.9218C78.622 12.3894 78.7223 12.7904 78.9218 13.1247C79.1639 13.5289 79.501 13.731 79.9362 13.731C80.3628 13.731 80.6967 13.5257 80.9378 13.114C81.1458 12.7732 81.2482 12.369 81.2482 11.9014Z" fill="white"/>
<path d="M87.8189 14.4405H86.8152L86.732 13.8568H86.701C86.3576 14.3223 85.868 14.5555 85.2322 14.5555C84.7576 14.5555 84.3736 14.4018 84.0845 14.0965C83.8221 13.8192 83.6909 13.4741 83.6909 13.0645C83.6909 12.4453 83.9469 11.9734 84.4621 11.6466C84.9762 11.3198 85.6995 11.1596 86.6307 11.1671V11.0726C86.6307 10.405 86.2829 10.0717 85.5864 10.0717C85.0904 10.0717 84.6531 10.1975 84.2755 10.4469L84.0482 9.7073C84.5154 9.41597 85.0925 9.26978 85.7731 9.26978C87.0872 9.26978 87.7464 9.96853 87.7464 11.366V13.2322C87.7464 13.7385 87.7709 14.1417 87.8189 14.4405ZM86.6584 12.699V11.9175C85.4253 11.896 84.8088 12.2368 84.8088 12.9387C84.8088 13.2032 84.8792 13.401 85.0232 13.5332C85.1672 13.6654 85.3507 13.731 85.5693 13.731C85.8147 13.731 86.044 13.6525 86.253 13.4967C86.4632 13.3397 86.5922 13.1408 86.6402 12.8968C86.652 12.842 86.6584 12.7753 86.6584 12.699Z" fill="white"/>
<path d="M94.1711 14.4405H93.1791L93.1268 13.6267H93.0959C92.7791 14.2459 92.2394 14.5555 91.481 14.5555C90.8751 14.5555 90.3706 14.3158 89.9706 13.8364C89.5706 13.3569 89.3711 12.7345 89.3711 11.9702C89.3711 11.1499 89.5876 10.4856 90.0228 9.97818C90.4442 9.50518 90.9604 9.26868 91.5748 9.26868C92.25 9.26868 92.7226 9.49765 92.9914 9.95668H93.0127V7.04773H94.1316V13.0753C94.1316 13.5687 94.1444 14.0234 94.1711 14.4405ZM93.0127 12.3034V11.4585C93.0127 11.3123 93.002 11.194 92.9818 11.1037C92.9188 10.8328 92.7834 10.6049 92.5775 10.4211C92.3695 10.2373 92.1188 10.1448 91.8297 10.1448C91.4127 10.1448 91.0863 10.3114 90.8463 10.6458C90.6084 10.9801 90.4879 11.4069 90.4879 11.9282C90.4879 12.4292 90.602 12.8355 90.8314 13.1484C91.0735 13.4816 91.3999 13.6482 91.8084 13.6482C92.1754 13.6482 92.4687 13.5096 92.6916 13.2311C92.9071 12.9742 93.0127 12.6646 93.0127 12.3034Z" fill="white"/>
<path d="M103.731 11.8648C103.731 12.6442 103.511 13.2827 103.069 13.7837C102.606 14.2986 101.994 14.5555 101.227 14.5555C100.49 14.5555 99.9021 14.3094 99.4626 13.8149C99.0253 13.3214 98.8066 12.699 98.8066 11.9487C98.8066 11.1639 99.0317 10.52 99.484 10.0201C99.9362 9.52025 100.544 9.26978 101.311 9.26978C102.048 9.26978 102.642 9.51595 103.09 10.0094C103.517 10.4888 103.731 11.108 103.731 11.8648ZM102.573 11.9014C102.573 11.4337 102.473 11.0328 102.273 10.6984C102.038 10.2942 101.705 10.0921 101.27 10.0921C100.822 10.0921 100.48 10.2942 100.245 10.6984C100.044 11.0328 99.9448 11.4402 99.9448 11.9218C99.9448 12.3894 100.045 12.7904 100.245 13.1247C100.487 13.5289 100.824 13.731 101.259 13.731C101.686 13.731 102.022 13.5257 102.263 13.114C102.469 12.7732 102.573 12.369 102.573 11.9014Z" fill="white"/>
<path d="M109.742 14.4406H108.625V11.5381C108.625 10.6437 108.288 10.1965 107.611 10.1965C107.279 10.1965 107.011 10.319 106.804 10.5652C106.597 10.8114 106.494 11.1016 106.494 11.4338V14.4395H105.375V10.8211C105.375 10.376 105.362 9.89333 105.335 9.37088H106.317L106.369 10.1632H106.4C106.531 9.91698 106.725 9.7138 106.979 9.55148C107.283 9.36228 107.621 9.2666 107.994 9.2666C108.462 9.2666 108.852 9.41925 109.163 9.72563C109.55 10.1008 109.742 10.6609 109.742 11.4048V14.4406Z" fill="white"/>
<path d="M117.265 10.2169H116.034V12.6786C116.034 13.3043 116.253 13.6171 116.686 13.6171C116.886 13.6171 117.053 13.5999 117.184 13.5644L117.213 14.4191C116.992 14.5029 116.702 14.5448 116.344 14.5448C115.903 14.5448 115.559 14.4094 115.311 14.1385C115.061 13.8676 114.938 13.4118 114.938 12.7722V10.2169H114.203V9.37301H114.938V8.44421L116.033 8.11096V9.37194H117.264V10.2169H117.265Z" fill="white"/>
<path d="M123.183 14.4405H122.064V11.5595C122.064 10.6511 121.727 10.1964 121.052 10.1964C120.533 10.1964 120.179 10.4598 119.985 10.9865C119.952 11.0973 119.933 11.2327 119.933 11.3918V14.4394H118.816V7.04773H119.933V10.1018H119.954C120.306 9.54603 120.811 9.26868 121.464 9.26868C121.927 9.26868 122.31 9.42133 122.614 9.7277C122.993 10.1093 123.183 10.6769 123.183 11.4273V14.4405Z" fill="white"/>
<path d="M129.288 11.6671C129.288 11.8692 129.273 12.039 129.246 12.1777H125.894C125.909 12.6786 126.069 13.0603 126.379 13.3247C126.663 13.5612 127.029 13.6795 127.477 13.6795C127.973 13.6795 128.425 13.5999 128.832 13.4397L129.007 14.2223C128.53 14.4309 127.969 14.5352 127.32 14.5352C126.541 14.5352 125.928 14.304 125.484 13.8418C125.038 13.3795 124.817 12.7593 124.817 11.981C124.817 11.2166 125.023 10.5802 125.438 10.0728C125.871 9.53103 126.457 9.26013 127.196 9.26013C127.919 9.26013 128.469 9.53103 128.84 10.0728C129.14 10.5028 129.288 11.035 129.288 11.6671ZM128.221 11.3757C128.23 11.0414 128.156 10.7533 128.005 10.5104C127.81 10.1975 127.515 10.0406 127.115 10.0406C126.75 10.0406 126.453 10.1932 126.225 10.4996C126.04 10.7436 125.93 11.035 125.894 11.3757H128.221Z" fill="white"/>
<path d="M57.2213 33.8668H54.7989L53.472 29.6646H48.8597L47.5957 33.8668H45.2373L49.8069 19.5607H52.6293L57.2213 33.8668ZM53.072 27.9016L51.872 24.166C51.745 23.7843 51.5072 22.8856 51.1562 21.4709H51.1136C50.9738 22.0794 50.7488 22.9781 50.4394 24.166L49.2608 27.9016H53.072Z" fill="white"/>
<path d="M68.9733 28.5821C68.9733 30.3365 68.5029 31.7233 67.5621 32.7413C66.7194 33.6475 65.673 34.1001 64.4239 34.1001C63.0757 34.1001 62.1071 33.6121 61.5173 32.636H61.4746V38.0701H59.2005V26.9471C59.2005 25.8441 59.1717 24.7121 59.1162 23.5511H61.1162L61.2431 25.1862H61.2858C62.0442 23.9543 63.1951 23.3394 64.7397 23.3394C65.9471 23.3394 66.9551 23.8199 67.7615 24.782C68.5701 25.7452 68.9733 27.0116 68.9733 28.5821ZM66.6565 28.666C66.6565 27.6619 66.4325 26.8342 65.9823 26.1827C65.4906 25.5033 64.8303 25.1636 64.0026 25.1636C63.4415 25.1636 62.9317 25.3528 62.4762 25.7259C62.0197 26.1021 61.721 26.5934 61.5813 27.2018C61.5109 27.4856 61.4757 27.7178 61.4757 27.9006V29.6206C61.4757 30.3709 61.7039 31.0041 62.1605 31.5212C62.617 32.0383 63.2101 32.2963 63.9397 32.2963C64.7962 32.2963 65.4629 31.963 65.9397 31.2987C66.4175 30.6332 66.6565 29.756 66.6565 28.666Z" fill="white"/>
<path d="M80.7461 28.5821C80.7461 30.3365 80.2757 31.7233 79.3339 32.7413C78.4923 33.6475 77.4459 34.1001 76.1968 34.1001C74.8485 34.1001 73.88 33.6121 73.2912 32.636H73.2485V38.0701H70.9744V26.9471C70.9744 25.8441 70.9456 24.7121 70.8901 23.5511H72.8901L73.0171 25.1862H73.0597C73.8171 23.9543 74.968 23.3394 76.5136 23.3394C77.72 23.3394 78.728 23.8199 79.5365 24.782C80.3419 25.7452 80.7461 27.0116 80.7461 28.5821ZM78.4293 28.666C78.4293 27.6619 78.2043 26.8342 77.7541 26.1827C77.2624 25.5033 76.6043 25.1636 75.7755 25.1636C75.2133 25.1636 74.7045 25.3528 74.248 25.7259C73.7915 26.1021 73.4939 26.5934 73.3541 27.2018C73.2848 27.4856 73.2485 27.7178 73.2485 27.9006V29.6206C73.2485 30.3709 73.4768 31.0041 73.9312 31.5212C74.3877 32.0372 74.9808 32.2963 75.7125 32.2963C76.5691 32.2963 77.2357 31.963 77.7125 31.2987C78.1904 30.6332 78.4293 29.756 78.4293 28.666Z" fill="white"/>
<path d="M93.9085 29.8549C93.9085 31.0718 93.4893 32.0619 92.6477 32.8262C91.7229 33.6615 90.4354 34.0786 88.781 34.0786C87.2535 34.0786 86.029 33.7819 85.1021 33.1874L85.629 31.2771C86.6274 31.8856 87.7229 32.1909 88.9165 32.1909C89.773 32.1909 90.4397 31.9952 90.9186 31.6061C91.3954 31.2169 91.6333 30.6945 91.6333 30.043C91.6333 29.4625 91.437 28.9734 91.0434 28.5767C90.6519 28.1801 89.9981 27.8113 89.085 27.4706C86.5997 26.5364 85.3581 25.1679 85.3581 23.3684C85.3581 22.1923 85.7933 21.228 86.6647 20.4777C87.533 19.7262 88.6914 19.3511 90.1399 19.3511C91.4316 19.3511 92.5047 19.5779 93.3613 20.0305L92.7927 21.8988C91.9927 21.4602 91.0882 21.2409 90.0759 21.2409C89.2759 21.2409 88.6509 21.4398 88.2029 21.8354C87.8242 22.1891 87.6343 22.6202 87.6343 23.1308C87.6343 23.6962 87.8509 24.1639 88.2861 24.5315C88.6647 24.8712 89.3527 25.2389 90.3511 25.6355C91.5725 26.1311 92.4695 26.7105 93.0466 27.3749C93.6215 28.0371 93.9085 28.8659 93.9085 29.8549Z" fill="white"/>
<path d="M101.427 25.271H98.9208V30.2795C98.9208 31.5533 99.3624 32.1897 100.248 32.1897C100.654 32.1897 100.991 32.1543 101.258 32.0833L101.321 33.8237C100.873 33.9925 100.283 34.0774 99.5522 34.0774C98.6541 34.0774 97.9522 33.8012 97.4456 33.2497C96.941 32.6971 96.6872 31.7705 96.6872 30.4687V25.2689H95.1938V23.5489H96.6872V21.6601L98.9208 20.9807V23.5489H101.427V25.271Z" fill="white"/>
<path d="M112.737 28.624C112.737 30.2096 112.287 31.5114 111.389 32.5294C110.447 33.5776 109.197 34.1 107.638 34.1C106.136 34.1 104.941 33.598 104.049 32.5939C103.157 31.5899 102.711 30.3225 102.711 28.7949C102.711 27.1964 103.17 25.887 104.091 24.869C105.009 23.8499 106.248 23.3403 107.807 23.3403C109.309 23.3403 110.517 23.8424 111.429 24.8475C112.302 25.8225 112.737 27.0813 112.737 28.624ZM110.378 28.6981C110.378 27.7468 110.176 26.9308 109.767 26.2504C109.291 25.4269 108.609 25.0163 107.726 25.0163C106.812 25.0163 106.117 25.428 105.64 26.2504C105.232 26.9319 105.03 27.7607 105.03 28.7411C105.03 29.6925 105.232 30.5084 105.64 31.1878C106.132 32.0113 106.819 32.4219 107.706 32.4219C108.574 32.4219 109.255 32.0027 109.747 31.1663C110.166 30.473 110.378 29.6484 110.378 28.6981Z" fill="white"/>
<path d="M120.13 25.5668C119.905 25.5248 119.665 25.5033 119.413 25.5033C118.613 25.5033 117.994 25.8076 117.559 26.4171C117.18 26.9546 116.99 27.634 116.99 28.4542V33.8668H114.717L114.739 26.7998C114.739 25.6108 114.71 24.5283 114.653 23.5522H116.634L116.717 25.5259H116.78C117.02 24.8476 117.399 24.3015 117.917 23.8919C118.424 23.5232 118.971 23.3394 119.561 23.3394C119.771 23.3394 119.961 23.3544 120.13 23.3813V25.5668Z" fill="white"/>
<path d="M130.3 28.2209C130.3 28.6315 130.273 28.9777 130.217 29.2604H123.395C123.421 30.2795 123.751 31.0589 124.384 31.5964C124.959 32.0769 125.703 32.3177 126.616 32.3177C127.626 32.3177 128.548 32.1554 129.376 31.8296L129.733 33.4206C128.764 33.8463 127.621 34.0581 126.301 34.0581C124.714 34.0581 123.468 33.5873 122.561 32.6466C121.657 31.706 121.204 30.4429 121.204 28.8583C121.204 27.3028 121.625 26.0074 122.469 24.9744C123.352 23.8714 124.545 23.3199 126.047 23.3199C127.523 23.3199 128.639 23.8714 129.398 24.9744C129.998 25.8505 130.3 26.9341 130.3 28.2209ZM128.132 27.6264C128.147 26.947 127.998 26.36 127.69 25.8645C127.296 25.227 126.692 24.9088 125.878 24.9088C125.134 24.9088 124.529 25.2195 124.068 25.843C123.689 26.3385 123.464 26.933 123.395 27.6253H128.132V27.6264Z" fill="white"/>
<defs>
<linearGradient id="paint0_linear_1319_2357" x1="123.957" y1="42.1886" x2="118.191" y2="-9.31418" gradientUnits="userSpaceOnUse">
<stop stop-color="#1292C8"/>
<stop offset="1" stop-color="#52BD8C"/>
</linearGradient>
</defs>
</svg>
