<svg width="47" height="47" viewBox="0 0 47 47" fill="none" xmlns="http://www.w3.org/2000/svg">
<path opacity="0.4" fill-rule="evenodd" clip-rule="evenodd" d="M18.8284 32.1101C18.2093 32.4373 18.1755 32.5584 18.1204 34.6476C18.0661 36.7087 18.0082 36.9673 17.4754 37.5289C17.1149 37.9089 16.4007 38.2504 15.964 38.2514C15.2637 38.2533 14.6316 38.7413 14.5134 39.3714C14.4269 39.8322 14.6832 40.4304 15.0834 40.7024C15.6732 41.1032 17.0403 40.952 18.1697 40.3611C18.8273 40.017 19.7756 39.0894 20.1569 38.4172C20.6624 37.526 20.7954 36.7712 20.7954 34.7949C20.7954 33.2221 20.778 33.0211 20.6121 32.6784C20.4789 32.4033 20.3249 32.2494 20.0499 32.1162C19.5843 31.8908 19.2464 31.8892 18.8284 32.1101ZM22.9853 32.1345C22.3061 32.5239 22.3085 32.509 22.3087 36.4263C22.3088 40.2988 22.3107 40.3117 22.9225 40.7205C23.5563 41.1439 24.4776 40.8958 24.8228 40.2087C24.9631 39.9296 24.9785 39.5547 24.9786 36.4263C24.9787 33.2154 24.9663 32.9303 24.8137 32.6435C24.6132 32.2666 24.0661 31.9358 23.6436 31.9358C23.4723 31.9358 23.1761 32.0252 22.9853 32.1345ZM27.2307 32.118C26.9638 32.2501 26.8047 32.4108 26.6744 32.6801C26.5095 33.0208 26.4918 33.2247 26.4918 34.7949C26.4918 36.7712 26.6249 37.526 27.1304 38.4172C27.5117 39.0894 28.46 40.017 29.1175 40.3611C30.2469 40.952 31.6141 41.1032 32.2038 40.7024C32.6041 40.4304 32.8603 39.8322 32.7739 39.3714C32.6557 38.7413 32.0236 38.2533 31.3233 38.2514C30.8865 38.2504 30.1723 37.9089 29.8119 37.5289C29.2791 36.9673 29.2211 36.7087 29.1668 34.6476C29.1115 32.5475 29.0782 32.4314 28.4399 32.1057C28.0058 31.8843 27.6965 31.8875 27.2307 32.118Z" fill="#1191C8"/>
<path fill-rule="evenodd" clip-rule="evenodd" d="M5.23471 6.33894C4.97401 6.40204 4.41772 6.62358 3.9985 6.83132C2.66848 7.49042 1.66155 8.67029 1.11131 10.2144L0.905171 10.7929L0.878113 18.0585C0.847584 26.2352 0.835657 26.0537 1.49279 27.3926C2.18357 28.8001 3.57697 29.9459 5.13013 30.3835C5.42011 30.4652 6.17293 30.5417 6.97701 30.571L8.33436 30.6207L8.3357 28.6729C8.33721 26.4543 8.4158 25.9609 8.93694 24.9004C9.41721 23.9231 10.4392 22.914 11.4496 22.4194C12.7958 21.7604 12.2559 21.7883 23.6435 21.7883C35.031 21.7883 34.4911 21.7604 35.8374 22.4194C36.8478 22.914 37.8697 23.9231 38.35 24.9004C38.8711 25.9609 38.9497 26.4543 38.9512 28.6729L38.9526 30.6207L40.3099 30.571C41.114 30.5417 41.8668 30.4652 42.1568 30.3835C43.71 29.9459 45.1034 28.8001 45.7942 27.3926C46.4513 26.0537 46.4394 26.2352 46.4088 18.0585L46.3818 10.7929L46.1756 10.2144C45.6093 8.62507 44.6066 7.47083 43.2101 6.80079C42.7532 6.58148 42.1671 6.3587 41.9077 6.30556C41.1668 6.15398 5.8663 6.18611 5.23471 6.33894ZM33.3113 11.5105C33.9469 11.9857 34.1242 12.6713 33.7703 13.2851C33.4281 13.8786 33.152 13.9631 31.6541 13.9336C30.5255 13.9113 30.3338 13.8858 30.1272 13.7301C29.4951 13.2539 29.3922 12.4046 29.8899 11.7718C30.2228 11.3486 30.509 11.2803 31.8482 11.3048C32.9187 11.3243 33.0955 11.3491 33.3113 11.5105ZM39.6629 11.4384C39.8332 11.5239 40.067 11.7342 40.1826 11.9055C40.4688 12.3303 40.429 13.1225 40.1041 13.4703C39.7011 13.9016 39.4966 13.9526 38.1691 13.9526C37.0308 13.9526 36.9076 13.9364 36.6293 13.7506C35.7757 13.1803 35.8508 11.9147 36.7652 11.4622C37.2662 11.2142 39.1852 11.1984 39.6629 11.4384ZM13.4176 24.5516C12.5477 24.7225 11.6227 25.458 11.2542 26.2718C11.0637 26.6926 11.047 26.8637 11.0206 28.661L10.9921 30.5968H23.6435H36.2949L36.2664 28.661C36.2399 26.8637 36.2232 26.6926 36.0327 26.2718C35.798 25.7534 35.1582 25.0896 34.6336 24.8203C34.4367 24.7192 34.0608 24.5957 33.7982 24.5459C33.2076 24.434 13.9896 24.4393 13.4176 24.5516Z" fill="#1191C8"/>
</svg>
