<svg width="24" height="24" viewBox="0 0 24 24" fill="none" xmlns="http://www.w3.org/2000/svg">
<path d="M11.4258 22.569L11.9998 21.75L12.5728 22.57C12.4046 22.6875 12.2043 22.7505 11.9991 22.7503C11.7939 22.7501 11.5938 22.6868 11.4258 22.569Z" fill="#757575"/>
<path fill-rule="evenodd" clip-rule="evenodd" d="M12 5.75C10.9391 5.75 9.92172 6.17143 9.17157 6.92157C8.42143 7.67172 8 8.68913 8 9.75C8 10.8109 8.42143 11.8283 9.17157 12.5784C9.92172 13.3286 10.9391 13.75 12 13.75C13.0609 13.75 14.0783 13.3286 14.8284 12.5784C15.5786 11.8283 16 10.8109 16 9.75C16 8.68913 15.5786 7.67172 14.8284 6.92157C14.0783 6.17143 13.0609 5.75 12 5.75ZM10 9.75C10 9.21957 10.2107 8.71086 10.5858 8.33579C10.9609 7.96071 11.4696 7.75 12 7.75C12.5304 7.75 13.0391 7.96071 13.4142 8.33579C13.7893 8.71086 14 9.21957 14 9.75C14 10.2804 13.7893 10.7891 13.4142 11.1642C13.0391 11.5393 12.5304 11.75 12 11.75C11.4696 11.75 10.9609 11.5393 10.5858 11.1642C10.2107 10.7891 10 10.2804 10 9.75Z" fill="#757575"/>
<path fill-rule="evenodd" clip-rule="evenodd" d="M11.426 22.569L12 21.75C12.573 22.57 12.575 22.568 12.575 22.568L12.577 22.567L12.583 22.563L12.603 22.548L12.673 22.498L12.93 22.306C14.2277 21.3015 15.425 20.1735 16.505 18.938C18.437 16.715 20.5 13.485 20.5 9.75C20.5 7.49566 19.6045 5.33365 18.0104 3.73959C16.4163 2.14553 14.2543 1.25 12 1.25C9.74566 1.25 7.58365 2.14553 5.98959 3.73959C4.39553 5.33365 3.5 7.49566 3.5 9.75C3.5 13.485 5.563 16.715 7.495 18.937C8.57502 20.1729 9.77228 21.3011 11.07 22.306C11.1779 22.3882 11.2869 22.4689 11.397 22.548L11.417 22.563L11.423 22.567L11.426 22.569ZM7.404 5.154C8.31304 4.24504 9.47119 3.62603 10.732 3.37526C11.9928 3.12449 13.2997 3.25321 14.4874 3.74515C15.6751 4.23709 16.6902 5.07015 17.4044 6.139C18.1187 7.20784 18.4999 8.46448 18.5 9.75C18.5 12.765 16.813 15.535 14.995 17.625C14.0836 18.6684 13.0813 19.6289 12 20.495C10.9187 19.6292 9.91645 18.6691 9.005 17.626C7.187 15.534 5.5 12.764 5.5 9.75C5.5001 8.02613 6.18499 6.37291 7.404 5.154Z" fill="#757575"/>
</svg>
