<svg width="64" height="65" viewBox="0 0 64 65" fill="none" xmlns="http://www.w3.org/2000/svg">
<path d="M50.6668 36.1268H5.3335C4.24016 36.1268 3.3335 35.2202 3.3335 34.1268C3.3335 33.0335 4.24016 32.1268 5.3335 32.1268H50.6668C51.7602 32.1268 52.6668 33.0335 52.6668 34.1268C52.6668 35.2202 51.7602 36.1268 50.6668 36.1268Z" fill="url(#paint0_linear_529_1845)"/>
<path d="M40.5868 58.5001H15.4136C6.26691 58.5001 3.3335 55.5935 3.3335 46.5535V27.9135C3.3335 20.7401 4.96022 16.5001 13.2269 16.0201C13.9202 15.9935 14.6402 15.9668 15.4136 15.9668H40.5868C49.7334 15.9668 52.6668 18.8735 52.6668 27.9135V46.9801C52.5602 55.7001 49.6267 58.5001 40.5868 58.5001ZM15.4136 19.9668C14.6936 19.9668 14.0269 19.9935 13.4136 20.0201C8.64024 20.3135 7.3335 21.3268 7.3335 27.9135V46.5535C7.3335 53.3801 8.45357 54.5001 15.4136 54.5001H40.5868C47.4667 54.5001 48.5868 53.4335 48.6668 46.9535V27.9135C48.6668 21.0868 47.5467 19.9668 40.5868 19.9668H15.4136Z" fill="url(#paint1_linear_529_1845)"/>
<path d="M50.6668 48.9801C50.1602 48.9801 49.6535 48.7935 49.3068 48.4468C48.9068 48.0735 48.6668 47.5401 48.6668 46.9801V27.9135C48.6668 21.0868 47.5467 19.9668 40.5868 19.9668H15.4136C14.6936 19.9668 14.0269 19.9935 13.4136 20.0201C12.8802 20.0468 12.3468 19.8335 11.9468 19.4601C11.5468 19.0868 11.3335 18.5535 11.3335 17.9935C11.4402 9.30013 14.3736 6.50012 23.4136 6.50012H48.5868C57.7334 6.50012 60.6668 9.40679 60.6668 18.4468V37.0868C60.6668 44.2601 59.0401 48.5001 50.7734 48.9801C50.7468 48.9801 50.6935 48.9801 50.6668 48.9801ZM15.4136 15.9668H40.5868C49.7334 15.9668 52.6668 18.8735 52.6668 27.9135V44.7668C55.7602 44.2068 56.6668 42.6068 56.6668 37.0868V18.4468C56.6668 11.6201 55.5467 10.5001 48.5868 10.5001H23.4136C17.3336 10.5001 15.7602 11.3268 15.4136 15.9668Z" fill="url(#paint2_linear_529_1845)"/>
<path d="M18.5609 49.9935H13.9741C12.8808 49.9935 11.9741 49.0869 11.9741 47.9935C11.9741 46.9002 12.8808 45.9935 13.9741 45.9935H18.5609C19.6542 45.9935 20.5609 46.9002 20.5609 47.9935C20.5609 49.0869 19.6809 49.9935 18.5609 49.9935Z" fill="url(#paint3_linear_529_1845)"/>
<path d="M33.4663 49.9935H24.293C23.1996 49.9935 22.293 49.0869 22.293 47.9935C22.293 46.9002 23.1996 45.9935 24.293 45.9935H33.4663C34.5596 45.9935 35.4663 46.9002 35.4663 47.9935C35.4663 49.0869 34.5863 49.9935 33.4663 49.9935Z" fill="url(#paint4_linear_529_1845)"/>
<defs>
<linearGradient id="paint0_linear_529_1845" x1="52.6668" y1="34.086" x2="3.33349" y2="34.0861" gradientUnits="userSpaceOnUse">
<stop stop-color="#1292C8"/>
<stop offset="1" stop-color="#52BD8C"/>
</linearGradient>
<linearGradient id="paint1_linear_529_1845" x1="52.6668" y1="36.7995" x2="3.33349" y2="36.7995" gradientUnits="userSpaceOnUse">
<stop stop-color="#1292C8"/>
<stop offset="1" stop-color="#52BD8C"/>
</linearGradient>
<linearGradient id="paint2_linear_529_1845" x1="60.6668" y1="27.3067" x2="11.3335" y2="27.3067" gradientUnits="userSpaceOnUse">
<stop stop-color="#1292C8"/>
<stop offset="1" stop-color="#52BD8C"/>
</linearGradient>
<linearGradient id="paint3_linear_529_1845" x1="20.5609" y1="47.9527" x2="11.9741" y2="47.9527" gradientUnits="userSpaceOnUse">
<stop stop-color="#1292C8"/>
<stop offset="1" stop-color="#52BD8C"/>
</linearGradient>
<linearGradient id="paint4_linear_529_1845" x1="35.4663" y1="47.9527" x2="22.293" y2="47.9527" gradientUnits="userSpaceOnUse">
<stop stop-color="#1292C8"/>
<stop offset="1" stop-color="#52BD8C"/>
</linearGradient>
</defs>
</svg>
