<svg width="45" height="32" viewBox="0 0 45 32" fill="none" xmlns="http://www.w3.org/2000/svg">
<path d="M41.786 14.2766C41.6713 14.2766 41.5554 14.2617 41.4395 14.2308C40.7265 14.0397 40.3035 13.3071 40.4943 12.5945L41.9228 7.26393H12.6243C11.8864 7.26393 11.2881 6.66565 11.2881 5.92774C11.2881 5.18984 11.8864 4.59155 12.6243 4.59155H43.6642C44.0796 4.59155 44.4716 4.78487 44.7244 5.11434C44.9774 5.44381 45.0627 5.87215 44.955 6.27364L43.0757 13.2863C42.9156 13.883 42.3757 14.2766 41.786 14.2766Z" fill="url(#paint0_linear_238_1476)"/>
<path d="M14.8404 4.59106H12.7773L14.4057 7.26345H16.4536L14.8404 4.59106Z" fill="url(#paint1_linear_238_1476)"/>
<path d="M28.5191 29.868C28.5191 30.7853 27.7755 31.5289 26.8582 31.5289C25.9409 31.5289 25.1973 30.7853 25.1973 29.868C25.1973 28.9506 25.9409 28.207 26.8582 28.207C27.7755 28.207 28.5191 28.9509 28.5191 29.868Z" fill="url(#paint2_linear_238_1476)"/>
<path d="M39.9539 31.5289C40.8712 31.5289 41.6148 30.7853 41.6148 29.868C41.6148 28.9506 40.8712 28.207 39.9539 28.207C39.0366 28.207 38.293 28.9506 38.293 29.868C38.293 30.7853 39.0366 31.5289 39.9539 31.5289Z" fill="url(#paint3_linear_238_1476)"/>
<path d="M41.262 27.1213H24.6126C23.8747 27.1213 23.2764 26.523 23.2764 25.7851C23.2764 25.0472 23.8747 24.4489 24.6126 24.4489H40.2341L42.0782 17.4991C42.2678 16.7859 43 16.3616 43.7123 16.5505C44.4256 16.7397 44.8505 17.4713 44.6609 18.1849L42.553 26.1281C42.3979 26.7135 41.8679 27.1213 41.262 27.1213Z" fill="url(#paint4_linear_238_1476)"/>
<path d="M41.3174 20.3661H44.082L44.6847 18.0769H41.9248L41.3174 20.3661Z" fill="url(#paint5_linear_238_1476)"/>
<path d="M43.3693 19.1782H19.8168C19.3487 19.1782 18.9147 18.9334 18.6727 18.5325L9.38278 3.14358H1.3362C0.59829 3.14358 0 2.54529 0 1.80738C0 1.06948 0.59829 0.471191 1.3362 0.471191H10.1368C10.6049 0.471191 11.0387 0.716004 11.2806 1.11686L20.5708 16.5058H43.369C44.1069 16.5058 44.7052 17.1041 44.7052 17.842C44.7055 18.5799 44.1072 19.1782 43.3693 19.1782Z" fill="url(#paint6_linear_238_1476)"/>
<defs>
<linearGradient id="paint0_linear_238_1476" x1="45.0006" y1="9.33524" x2="11.2881" y2="9.33524" gradientUnits="userSpaceOnUse">
<stop stop-color="#1292C8"/>
<stop offset="1" stop-color="#52BD8C"/>
</linearGradient>
<linearGradient id="paint1_linear_238_1476" x1="15.9568" y1="7.26345" x2="15.0822" y2="4.14036" gradientUnits="userSpaceOnUse">
<stop stop-color="#1292C8"/>
<stop offset="1" stop-color="#52BD8C"/>
</linearGradient>
<linearGradient id="paint2_linear_238_1476" x1="28.5191" y1="29.8341" x2="25.1973" y2="29.8341" gradientUnits="userSpaceOnUse">
<stop stop-color="#1292C8"/>
<stop offset="1" stop-color="#52BD8C"/>
</linearGradient>
<linearGradient id="paint3_linear_238_1476" x1="41.6148" y1="29.8341" x2="38.293" y2="29.8341" gradientUnits="userSpaceOnUse">
<stop stop-color="#1292C8"/>
<stop offset="1" stop-color="#52BD8C"/>
</linearGradient>
<linearGradient id="paint4_linear_238_1476" x1="44.7061" y1="21.7051" x2="23.2764" y2="21.7051" gradientUnits="userSpaceOnUse">
<stop stop-color="#1292C8"/>
<stop offset="1" stop-color="#52BD8C"/>
</linearGradient>
<linearGradient id="paint5_linear_238_1476" x1="44.2297" y1="20.3661" x2="43.5226" y2="17.6662" gradientUnits="userSpaceOnUse">
<stop stop-color="#1292C8"/>
<stop offset="1" stop-color="#52BD8C"/>
</linearGradient>
<linearGradient id="paint6_linear_238_1476" x1="38.664" y1="19.1782" x2="34.9594" y2="-3.80118" gradientUnits="userSpaceOnUse">
<stop stop-color="#1292C8"/>
<stop offset="1" stop-color="#52BD8C"/>
</linearGradient>
</defs>
</svg>
