<svg width="18" height="18" viewBox="0 0 18 18" fill="none" xmlns="http://www.w3.org/2000/svg">
<path d="M16.0857 6.15C16.125 6.9376 16.125 7.87452 16.125 9C16.125 12.3588 16.125 14.0381 15.0816 15.0816C14.0381 16.125 12.3588 16.125 9 16.125C5.64124 16.125 3.96186 16.125 2.91843 15.0816C1.875 14.0381 1.875 12.3588 1.875 9C1.875 5.64124 1.875 3.96186 2.91843 2.91843C3.96186 1.875 5.64124 1.875 9 1.875C9.80395 1.875 10.5117 1.875 11.1375 1.88931" stroke="#141B34" stroke-width="1.125" stroke-linecap="round"/>
<path d="M6 8.625C6 8.625 7.125 8.625 8.625 11.25C8.625 11.25 12.4191 4.375 16.125 3" stroke="#141B34" stroke-width="1.125" stroke-linecap="round" stroke-linejoin="round"/>
</svg>
