<svg width="25" height="25" viewBox="0 0 25 25" fill="none" xmlns="http://www.w3.org/2000/svg">
<path d="M11.9258 23.069L12.4998 22.25L13.0728 23.07C12.9046 23.1875 12.7043 23.2505 12.4991 23.2503C12.2939 23.2501 12.0938 23.1868 11.9258 23.069Z" fill="url(#paint0_linear_230_1354)"/>
<path fill-rule="evenodd" clip-rule="evenodd" d="M12.5 6.25C11.4391 6.25 10.4217 6.67143 9.67157 7.42157C8.92143 8.17172 8.5 9.18913 8.5 10.25C8.5 11.3109 8.92143 12.3283 9.67157 13.0784C10.4217 13.8286 11.4391 14.25 12.5 14.25C13.5609 14.25 14.5783 13.8286 15.3284 13.0784C16.0786 12.3283 16.5 11.3109 16.5 10.25C16.5 9.18913 16.0786 8.17172 15.3284 7.42157C14.5783 6.67143 13.5609 6.25 12.5 6.25ZM10.5 10.25C10.5 9.71957 10.7107 9.21086 11.0858 8.83579C11.4609 8.46071 11.9696 8.25 12.5 8.25C13.0304 8.25 13.5391 8.46071 13.9142 8.83579C14.2893 9.21086 14.5 9.71957 14.5 10.25C14.5 10.7804 14.2893 11.2891 13.9142 11.6642C13.5391 12.0393 13.0304 12.25 12.5 12.25C11.9696 12.25 11.4609 12.0393 11.0858 11.6642C10.7107 11.2891 10.5 10.7804 10.5 10.25Z" fill="url(#paint1_linear_230_1354)"/>
<path fill-rule="evenodd" clip-rule="evenodd" d="M11.926 23.069L12.5 22.25C13.073 23.07 13.075 23.068 13.075 23.068L13.077 23.067L13.083 23.063L13.103 23.048L13.173 22.998L13.43 22.806C14.7277 21.8015 15.925 20.6735 17.005 19.438C18.937 17.215 21 13.985 21 10.25C21 7.99566 20.1045 5.83365 18.5104 4.23959C16.9163 2.64553 14.7543 1.75 12.5 1.75C10.2457 1.75 8.08365 2.64553 6.48959 4.23959C4.89553 5.83365 4 7.99566 4 10.25C4 13.985 6.063 17.215 7.995 19.437C9.07502 20.6729 10.2723 21.8011 11.57 22.806C11.6779 22.8882 11.7869 22.9689 11.897 23.048L11.917 23.063L11.923 23.067L11.926 23.069ZM7.904 5.654C8.81304 4.74504 9.97119 4.12603 11.232 3.87526C12.4928 3.62449 13.7997 3.75321 14.9874 4.24515C16.1751 4.73709 17.1902 5.57015 17.9044 6.639C18.6187 7.70784 18.9999 8.96448 19 10.25C19 13.265 17.313 16.035 15.495 18.125C14.5836 19.1684 13.5813 20.1289 12.5 20.995C11.4187 20.1292 10.4164 19.1691 9.505 18.126C7.687 16.034 6 13.264 6 10.25C6.0001 8.52613 6.68499 6.87291 7.904 5.654Z" fill="url(#paint2_linear_230_1354)"/>
<defs>
<linearGradient id="paint0_linear_230_1354" x1="13.0728" y1="22.7399" x2="11.9258" y2="22.7399" gradientUnits="userSpaceOnUse">
<stop stop-color="#1292C8"/>
<stop offset="1" stop-color="#52BD8C"/>
</linearGradient>
<linearGradient id="paint1_linear_230_1354" x1="16.5" y1="10.1684" x2="8.5" y2="10.1684" gradientUnits="userSpaceOnUse">
<stop stop-color="#1292C8"/>
<stop offset="1" stop-color="#52BD8C"/>
</linearGradient>
<linearGradient id="paint2_linear_230_1354" x1="21" y1="12.192" x2="4" y2="12.192" gradientUnits="userSpaceOnUse">
<stop stop-color="#1292C8"/>
<stop offset="1" stop-color="#52BD8C"/>
</linearGradient>
</defs>
</svg>
