<svg width="25" height="25" viewBox="0 0 25 25" fill="none" xmlns="http://www.w3.org/2000/svg">
<path fill-rule="evenodd" clip-rule="evenodd" d="M12.5007 21.74C17.6039 21.74 21.7407 17.6031 21.7407 12.5C21.7407 7.3969 17.6039 3.26001 12.5007 3.26001C7.39763 3.26001 3.26074 7.3969 3.26074 12.5C3.26074 17.6031 7.39763 21.74 12.5007 21.74ZM11.7169 8.45129C11.6016 8.10549 11.2279 7.9186 10.8821 8.03387C10.5363 8.14913 10.3494 8.52291 10.4646 8.86871L11.7363 12.6835C11.8283 12.9598 12.0373 13.1814 12.3076 13.2896L15.4656 14.5533C15.804 14.6888 16.1881 14.5242 16.3236 14.1858C16.459 13.8474 16.2944 13.4632 15.956 13.3278L12.9401 12.1209L11.7169 8.45129Z" fill="url(#paint0_linear_236_1432)"/>
<defs>
<linearGradient id="paint0_linear_236_1432" x1="21.7407" y1="12.3114" x2="3.26074" y2="12.3114" gradientUnits="userSpaceOnUse">
<stop stop-color="#1292C8"/>
<stop offset="1" stop-color="#52BD8C"/>
</linearGradient>
</defs>
</svg>
