<svg width="25" height="25" viewBox="0 0 25 25" fill="none" xmlns="http://www.w3.org/2000/svg">
<path fill-rule="evenodd" clip-rule="evenodd" d="M3.08579 6.08579C2.5 6.67157 2.5 7.61438 2.5 9.5V15.5C2.5 17.3856 2.5 18.3284 3.08579 18.9142C3.67157 19.5 4.61438 19.5 6.5 19.5H18.5C20.3856 19.5 21.3284 19.5 21.9142 18.9142C22.5 18.3284 22.5 17.3856 22.5 15.5V9.5C22.5 7.61438 22.5 6.67157 21.9142 6.08579C21.3284 5.5 20.3856 5.5 18.5 5.5H6.5C4.61438 5.5 3.67157 5.5 3.08579 6.08579ZM5.5 7.5C4.94772 7.5 4.5 7.94772 4.5 8.5C4.5 9.05228 4.94772 9.5 5.5 9.5H7.5C8.05228 9.5 8.5 9.05228 8.5 8.5C8.5 7.94772 8.05228 7.5 7.5 7.5H5.5ZM16.5 16.5C16.5 15.9477 16.9477 15.5 17.5 15.5H19.5C20.0523 15.5 20.5 15.9477 20.5 16.5C20.5 17.0523 20.0523 17.5 19.5 17.5H17.5C16.9477 17.5 16.5 17.0523 16.5 16.5ZM13.5 12.5C13.5 13.0523 13.0523 13.5 12.5 13.5C11.9477 13.5 11.5 13.0523 11.5 12.5C11.5 11.9477 11.9477 11.5 12.5 11.5C13.0523 11.5 13.5 11.9477 13.5 12.5ZM15.5 12.5C15.5 14.1569 14.1569 15.5 12.5 15.5C10.8431 15.5 9.5 14.1569 9.5 12.5C9.5 10.8431 10.8431 9.5 12.5 9.5C14.1569 9.5 15.5 10.8431 15.5 12.5Z" fill="url(#paint0_linear_1008_136)"/>
<defs>
<linearGradient id="paint0_linear_1008_136" x1="22.5" y1="12.3571" x2="2.5" y2="12.3571" gradientUnits="userSpaceOnUse">
<stop stop-color="#1292C8"/>
<stop offset="1" stop-color="#52BD8C"/>
</linearGradient>
</defs>
</svg>
