<svg width="47" height="47" viewBox="0 0 47 47" fill="none" xmlns="http://www.w3.org/2000/svg">
<path opacity="0.4" fill-rule="evenodd" clip-rule="evenodd" d="M7.08522 0.790856C6.63935 1.01687 6.37018 1.46212 6.37018 1.97382C6.37018 2.48552 6.63935 2.93077 7.08522 3.15678C7.37106 3.30172 7.74043 3.31224 11.78 3.29057C16.0504 3.26774 16.1709 3.2623 16.4106 3.0832C16.8526 2.75301 17.0142 2.45608 17.0142 1.97382C17.0142 1.49155 16.8526 1.19463 16.4106 0.86444C16.1709 0.685341 16.0504 0.6799 11.78 0.657067C7.74043 0.635393 7.37106 0.645918 7.08522 0.790856ZM41.9455 0.78711C41.7748 0.875678 41.5441 1.08448 41.4328 1.25118C41.2566 1.51501 41.2304 1.66789 41.2304 2.43298V3.31171L40.4057 3.31189C39.4494 3.31198 39.0755 3.45156 38.7581 3.92696C38.334 4.5621 38.5825 5.48533 39.2708 5.83122C39.4992 5.9461 39.7986 5.98722 40.4057 5.98731L41.2304 5.98749V6.86622C41.2304 7.63131 41.2566 7.78419 41.4328 8.04802C41.9754 8.86065 43.052 8.84175 43.6737 8.00869C43.8192 7.81362 43.8613 7.59465 43.8898 6.88504L43.9252 6.00354L44.8004 5.97322C45.5147 5.94851 45.721 5.90909 45.9217 5.75898C46.3635 5.42861 46.525 5.13177 46.525 4.6496C46.525 4.16742 46.3635 3.87059 45.9217 3.54022C45.721 3.39011 45.5147 3.35069 44.8004 3.32598L43.9252 3.29565L43.8898 2.41416C43.852 1.47229 43.7608 1.24841 43.2634 0.876927C42.9336 0.630577 42.327 0.589281 41.9455 0.78711ZM1.64666 6.14242C1.20079 6.36843 0.931641 6.81368 0.931641 7.32538C0.931641 7.83708 1.20079 8.28233 1.64666 8.50834C1.93259 8.65328 2.30401 8.66381 6.38605 8.64213C10.7014 8.6193 10.8214 8.61395 11.0612 8.43476C11.5032 8.10457 11.6648 7.80765 11.6648 7.32538C11.6648 6.84312 11.5032 6.54619 11.0612 6.216C10.8214 6.03681 10.7014 6.03146 6.38605 6.00863C2.30401 5.98695 1.93259 5.99748 1.64666 6.14242ZM33.8322 38.4264C33.6616 38.515 33.4308 38.7238 33.3196 38.8905C33.1434 39.1543 33.1172 39.3072 33.1172 40.0723V40.951L32.2925 40.9512C31.3362 40.9513 30.9623 41.0909 30.6449 41.5663C30.2207 42.2014 30.4692 43.1246 31.1575 43.4705C31.3859 43.5854 31.6853 43.6265 32.2925 43.6266L33.1172 43.6268V44.5055C33.1172 45.2706 33.1434 45.4235 33.3196 45.6873C33.8622 46.5 34.9387 46.4811 35.5604 45.648C35.7059 45.4529 35.7481 45.234 35.7765 44.5243L35.8119 43.6429L36.6872 43.6125C37.4014 43.5878 37.6077 43.5484 37.8084 43.3983C38.2503 43.0679 38.4117 42.7711 38.4117 42.2889C38.4117 41.8067 38.2503 41.5099 37.8084 41.1795C37.6077 41.0294 37.4014 40.99 36.6872 40.9653L35.8119 40.935L35.7765 40.0535C35.7387 39.1116 35.6475 38.8877 35.1501 38.5162C34.8203 38.2699 34.2137 38.2286 33.8322 38.4264Z" fill="url(#paint0_linear_172_535)"/>
<path fill-rule="evenodd" clip-rule="evenodd" d="M24.3348 2.75037C23.1783 2.9069 21.5723 3.5317 20.5236 4.23329C19.4267 4.96698 14.7304 9.71605 14.2609 10.5661C13.7108 11.5625 13.4888 12.3843 13.4378 13.6136L13.3934 14.6839L17.1255 10.9774C21.0791 7.05115 21.2343 6.92191 22.4119 6.57584C23.0407 6.39113 24.2916 6.39113 24.9204 6.57584C26.1866 6.94796 27.2768 7.8612 27.842 9.02302L28.1695 9.69625L28.7931 9.48023C29.6791 9.17331 30.8595 9.17519 31.7439 9.48495C34.4288 10.4251 35.638 13.22 34.5143 15.888C34.4722 15.9878 34.6331 16.1047 35.147 16.3479C37.4032 17.4155 38.368 20.0993 37.3579 22.4983C37.3105 22.6111 37.4461 22.7129 37.9846 22.9687C38.8189 23.365 39.7213 24.2355 40.0926 25.002C40.7931 26.4482 40.7782 27.9969 40.0501 29.3935C39.8237 29.8278 39.2119 30.4961 36.977 32.7497C35.4423 34.2973 34.1866 35.5969 34.1866 35.6378C34.1866 35.6786 34.7183 35.6926 35.368 35.6689C36.3409 35.6334 36.6751 35.5833 37.2625 35.3845C38.6254 34.9236 39.0104 34.6261 41.705 31.9521C44.3695 29.3078 44.8485 28.7485 45.4561 27.5722C46.7475 25.072 46.836 21.9302 45.6867 19.3942C44.9841 17.8443 44.9775 17.8369 38.252 11.0877C31.3498 4.16131 31.2504 4.07292 29.5907 3.39479C28.3444 2.88549 27.2442 2.68454 25.7919 2.70087C25.1376 2.70818 24.482 2.73048 24.3348 2.75037ZM22.8087 9.2692C22.6558 9.35295 19.4462 12.4828 15.6761 16.2244C9.13416 22.717 8.81873 23.0159 8.75998 22.78C8.7261 22.6441 8.59646 20.6866 8.472 18.43L8.24573 14.3271L7.95409 13.7508C7.11361 12.0892 4.88193 11.7711 3.64845 13.137C3.10727 13.7363 3.00125 14.089 2.84639 15.8064C2.58721 18.6797 2.41487 20.1032 1.68691 25.387C0.996387 30.3989 0.981775 30.5558 0.978655 33.013C0.976248 34.9072 1.00397 35.4216 1.14413 36.0901C1.64947 38.5006 2.73272 40.4276 4.67018 42.3624C6.55254 44.2422 8.84547 45.4716 11.5408 46.0465C12.7668 46.3079 15.2447 46.3344 16.509 46.0995C18.2958 45.7676 20.1027 45.0352 21.6535 44.0143C22.4671 43.4786 23.2591 42.7167 30.0623 35.9237C34.4337 31.5592 37.6366 28.293 37.7249 28.1099C37.8085 27.9369 37.8925 27.5544 37.9118 27.2601C37.9823 26.1832 37.1925 25.2729 36.1096 25.1831C35.2042 25.108 35.198 25.1127 32.0023 28.2892C28.8405 31.432 28.8505 31.4243 28.0884 31.2813C27.2419 31.1225 26.8118 30.1712 27.2264 29.3748C27.3211 29.1929 29.0504 27.3983 31.0693 25.387C33.5086 22.9567 34.7959 21.6104 34.907 21.3734C35.2486 20.6447 35.0609 19.6192 34.4876 19.0814C33.9514 18.5782 33.0242 18.4147 32.3338 18.7014C32.1082 18.7951 30.7772 20.0612 28.1686 22.6636C24.8165 26.0075 24.2928 26.4959 24.0005 26.5496C22.9474 26.743 22.1774 25.9729 22.3701 24.9188C22.4238 24.6247 23.006 24.0073 27.1853 19.8125C29.8001 17.188 31.9979 14.9203 32.0695 14.7731C32.2757 14.3494 32.3187 13.9557 32.2138 13.4544C32.1337 13.0719 32.0332 12.9078 31.6481 12.531C30.9604 11.8581 30.193 11.7292 29.3722 12.1488C29.2006 12.2365 26.9939 14.3807 24.4686 16.9137C21.9432 19.4467 19.7281 21.5967 19.5462 21.6915C18.7502 22.1064 17.7993 21.6762 17.6405 20.8292C17.4944 20.0501 17.41 20.1546 21.5294 16.0218C24.1308 13.4121 25.3964 12.0805 25.49 11.8549C25.902 10.8619 25.4195 9.65335 24.4491 9.24788C24.0088 9.06387 23.1632 9.07484 22.8087 9.2692Z" fill="url(#paint1_linear_172_535)"/>
<defs>
<linearGradient id="paint0_linear_172_535" x1="46.525" y1="23.001" x2="0.93164" y2="23.001" gradientUnits="userSpaceOnUse">
<stop stop-color="#1292C8"/>
<stop offset="1" stop-color="#52BD8C"/>
</linearGradient>
<linearGradient id="paint1_linear_172_535" x1="46.4906" y1="24.0356" x2="0.978515" y2="24.0356" gradientUnits="userSpaceOnUse">
<stop stop-color="#1292C8"/>
<stop offset="1" stop-color="#52BD8C"/>
</linearGradient>
</defs>
</svg>
