<svg width="46" height="47" viewBox="0 0 46 47" fill="none" xmlns="http://www.w3.org/2000/svg">
<path fill-rule="evenodd" clip-rule="evenodd" d="M14.1518 0.0916222C13.8216 0.244499 13.5255 0.55917 13.3999 0.89061C13.3384 1.05303 13.3048 2.3828 13.3048 4.65463V8.16758L11.0822 8.19424C8.63685 8.22359 8.64077 8.2227 8.18384 8.835C8.00642 9.07279 8 9.18937 8 12.19C8 15.1906 8.00642 15.3072 8.18384 15.545C8.57274 16.0661 8.79108 16.1567 9.73721 16.1895L10.615 16.2199L10.6541 20.3369C10.6904 24.1474 10.7077 24.5187 10.8864 25.3231C11.4197 27.7246 12.4688 29.6417 14.1946 31.3682C15.5969 32.771 17.0879 33.7025 18.8919 34.3026C19.6665 34.5603 20.8904 34.8449 21.2238 34.8449C21.3666 34.8449 21.4113 34.9548 21.5047 35.5362C21.7855 37.2827 22.6891 39.3911 23.7732 40.8291C25.884 43.6288 29.1698 45.3912 32.6794 45.606C33.4514 45.6533 33.6504 45.6372 33.9289 45.505C34.8355 45.0745 34.9559 43.7906 34.1438 43.2121C33.9308 43.0605 33.6741 43.0048 32.9161 42.9459C29.4111 42.6733 26.5028 40.7569 25.0216 37.7437C24.6311 36.9494 24.0928 35.321 24.0928 34.934C24.0928 34.8975 24.4477 34.8027 24.8814 34.7233C27.2074 34.2976 29.2585 33.2267 31.0168 31.5199C32.97 29.6241 34.1732 27.3087 34.5727 24.677C34.6695 24.0397 34.7015 22.8866 34.7019 20.0248L34.7024 16.2199L35.6163 16.1895C36.3889 16.1638 36.5732 16.1283 36.8089 15.9602C37.3619 15.5656 37.3771 15.4643 37.3771 12.19C37.3771 8.91564 37.3619 8.8144 36.8089 8.41981C36.5409 8.22858 36.443 8.21984 34.2789 8.19433L32.0277 8.16775V4.5955C32.0277 0.647293 32.0238 0.616789 31.4595 0.214084C31.2574 0.0698592 31.0538 0.0151841 30.7192 0.0151841C30.2206 0.0151841 29.9179 0.178496 29.5814 0.629187C29.4038 0.867064 29.3967 0.998444 29.3724 4.52584L29.3473 8.17632H22.6634H15.9795V4.59978C15.9795 0.660672 15.9737 0.615094 15.4254 0.224519C15.0962 -0.0100575 14.5049 -0.0717788 14.1518 0.0916222ZM23.2564 16.3484C23.8104 16.6114 24.1229 17.3216 23.9638 17.956C23.9293 18.0931 23.5436 18.5682 23.0961 19.0247L22.2904 19.8466L24.2561 20.8362C26.2889 21.8594 26.5388 22.0431 26.6413 22.5899C26.7743 23.2991 26.6771 23.4521 25.0434 25.1058C24.2018 25.9578 23.4049 26.7115 23.2725 26.7808C22.5093 27.1802 21.4784 26.5916 21.3572 25.6872C21.2911 25.1944 21.479 24.8683 22.3377 23.9862C22.7314 23.5818 23.0366 23.2355 23.0159 23.2168C22.9953 23.1982 22.0892 22.7362 21.0024 22.1905C19.0904 21.2302 19.0206 21.1857 18.8404 20.8134C18.4412 19.9885 18.6258 19.6501 20.4685 17.8278C21.2703 17.0349 22.0225 16.3477 22.1402 16.3006C22.4687 16.1691 22.9194 16.1885 23.2564 16.3484Z" fill="url(#paint0_linear_172_556)"/>
<defs>
<linearGradient id="paint0_linear_172_556" x1="37.3771" y1="22.3495" x2="8" y2="22.3495" gradientUnits="userSpaceOnUse">
<stop stop-color="#1292C8"/>
<stop offset="1" stop-color="#52BD8C"/>
</linearGradient>
</defs>
</svg>
