<svg width="30" height="30" viewBox="0 0 30 30" fill="none" xmlns="http://www.w3.org/2000/svg">
<path fill-rule="evenodd" clip-rule="evenodd" d="M18.8953 9.98994L17.4834 9.99088C16.3762 9.99088 16.1616 10.5168 16.1616 11.2884V12.9909H18.8025L18.4584 15.6581H16.1616V22.4999H13.4081V15.6581H11.1056V12.9909H13.4081V11.0249C13.4081 8.74213 14.8022 7.49994 16.8375 7.49994C17.8125 7.49994 18.6506 7.57213 18.8953 7.60494V9.98994ZM15 -6.10352e-05C6.71625 -6.10352e-05 0 6.71525 0 14.9999C0 23.2837 6.71625 29.9999 15 29.9999C23.2847 29.9999 30 23.2837 30 14.9999C30 6.71525 23.2847 -6.10352e-05 15 -6.10352e-05Z" fill="url(#paint0_linear_908_1178)"/>
<defs>
<linearGradient id="paint0_linear_908_1178" x1="30" y1="14.6938" x2="-6.7438e-07" y2="14.6938" gradientUnits="userSpaceOnUse">
<stop stop-color="#1292C8"/>
<stop offset="1" stop-color="#52BD8C"/>
</linearGradient>
</defs>
</svg>
