<svg width="32" height="32" viewBox="0 0 32 32" fill="none" xmlns="http://www.w3.org/2000/svg">
<path fill-rule="evenodd" clip-rule="evenodd" d="M16.0175 18.8948C17.6103 18.8948 18.9022 17.6066 18.9022 16.0166C18.9022 14.4276 17.6103 13.1394 16.0175 13.1394C14.4247 13.1394 13.1328 14.4276 13.1328 16.0166C13.1328 17.6066 14.4247 18.8948 16.0175 18.8948ZM19.3392 13.0693H21.367C21.5986 13.0693 21.787 12.8818 21.787 12.6512V10.6271C21.787 10.3965 21.5986 10.209 21.367 10.209H19.3392C19.1076 10.209 18.9192 10.3965 18.9192 10.6271V12.6512C18.9192 12.8818 19.1076 13.0693 19.3392 13.0693ZM23.5 21.7206C23.5 22.7031 22.7022 23.4999 21.7169 23.4999H10.2831C9.29875 23.4999 8.5 22.7031 8.5 21.7206V10.2784C8.5 9.29588 9.29875 8.49994 10.2831 8.49994H21.7169C22.7022 8.49994 23.5 9.29588 23.5 10.2784V21.7206ZM16 0.999939C7.71531 0.999939 1 7.71525 1 15.9999C1 24.2837 7.71531 30.9999 16 30.9999C24.2847 30.9999 31 24.2837 31 15.9999C31 7.71525 24.2847 0.999939 16 0.999939ZM20.5804 16.017C20.5804 18.5267 18.5339 20.5695 16.0176 20.5695C13.5014 20.5695 11.4548 18.5267 11.4548 16.017C11.4548 15.6008 11.5111 15.1967 11.617 14.8133H10.2136V21.3364C10.2136 21.5679 10.4011 21.7554 10.6326 21.7554H21.4017C21.6342 21.7554 21.8217 21.5679 21.8217 21.3364V14.8133H20.4183C20.5242 15.1967 20.5804 15.6008 20.5804 16.017Z" fill="url(#paint0_linear_806_2423)"/>
<defs>
<linearGradient id="paint0_linear_806_2423" x1="31" y1="15.6938" x2="0.999999" y2="15.6938" gradientUnits="userSpaceOnUse">
<stop stop-color="#1292C8"/>
<stop offset="1" stop-color="#52BD8C"/>
</linearGradient>
</defs>
</svg>
