<svg width="30" height="30" viewBox="0 0 30 30" fill="none" xmlns="http://www.w3.org/2000/svg">
<path fill-rule="evenodd" clip-rule="evenodd" d="M22.5 22.4859H19.3922V17.6221C19.3922 16.4624 19.3716 14.9709 17.7769 14.9709C16.1597 14.9709 15.9131 16.2346 15.9131 17.5396V22.4859H12.8081V12.4846H15.7875V13.8524H15.8306C16.245 13.0659 17.2594 12.2362 18.7716 12.2362C21.9187 12.2362 22.5 14.3071 22.5 17.0006V22.4859ZM9.30375 11.1187C8.30531 11.1187 7.5 10.3106 7.5 9.31588C7.5 8.32119 8.30531 7.51306 9.30375 7.51306C10.2975 7.51306 11.1047 8.32119 11.1047 9.31588C11.1047 10.3106 10.2975 11.1187 9.30375 11.1187ZM10.8581 22.4859H7.74656V12.4846H10.8581V22.4859ZM15 -6.10352e-05C6.71531 -6.10352e-05 0 6.71525 0 14.9999C0 23.2837 6.71531 29.9999 15 29.9999C23.2847 29.9999 30 23.2837 30 14.9999C30 6.71525 23.2847 -6.10352e-05 15 -6.10352e-05Z" fill="url(#paint0_linear_908_1202)"/>
<defs>
<linearGradient id="paint0_linear_908_1202" x1="30" y1="14.6938" x2="-6.7438e-07" y2="14.6938" gradientUnits="userSpaceOnUse">
<stop stop-color="#1292C8"/>
<stop offset="1" stop-color="#52BD8C"/>
</linearGradient>
</defs>
</svg>
