<svg width="30" height="30" viewBox="0 0 30 30" fill="none" xmlns="http://www.w3.org/2000/svg">
<path fill-rule="evenodd" clip-rule="evenodd" d="M18.6683 17.5884C18.5137 18.0224 17.7712 18.4181 17.414 18.4715C17.0943 18.5193 16.6893 18.539 16.244 18.3984C15.974 18.3121 15.628 18.1978 15.1855 18.0065C13.3218 17.2021 12.104 15.3262 12.0112 15.2024C11.9183 15.0787 11.2527 14.1956 11.2527 13.2815C11.2527 12.3674 11.7327 11.9174 11.9033 11.7318C12.073 11.5462 12.2746 11.4993 12.3983 11.4993C12.5221 11.4993 12.6458 11.5003 12.7546 11.5059C12.869 11.5115 13.0218 11.4628 13.1727 11.8246C13.3274 12.1968 13.6987 13.1109 13.7455 13.2037C13.7915 13.2965 13.8224 13.4053 13.7605 13.529C13.6987 13.6528 13.6677 13.7306 13.5749 13.8393C13.4821 13.9471 13.3799 14.0812 13.2965 14.1646C13.2037 14.2565 13.1062 14.3578 13.2149 14.5434C13.3237 14.729 13.6958 15.3374 14.248 15.8296C14.9577 16.4624 15.5568 16.6584 15.7424 16.7521C15.928 16.8449 16.0368 16.829 16.1446 16.7053C16.2533 16.5815 16.6096 16.1634 16.7333 15.9768C16.8571 15.7912 16.9808 15.8221 17.1515 15.884C17.3212 15.9459 18.2352 16.3949 18.4208 16.4887C18.6065 16.5815 18.7302 16.6274 18.7771 16.7053C18.823 16.7831 18.823 17.1543 18.6683 17.5884ZM15.0337 8.75525C11.6249 8.75525 8.85178 11.5265 8.85084 14.9324C8.85084 16.0996 9.17709 17.2368 9.79584 18.2203L9.94303 18.4537L9.31866 20.7337L11.6577 20.1206L11.8827 20.2537C12.8315 20.8171 13.919 21.1153 15.028 21.1153H15.0308C18.4368 21.1153 21.209 18.344 21.2108 14.9371C21.2108 13.2862 20.5696 11.7346 19.4024 10.5665C18.2352 9.39931 16.6837 8.75525 15.0337 8.75525ZM15.0309 22.3706H15.0281C13.7831 22.3706 12.5606 22.0584 11.475 21.4659L7.53281 22.4999L8.58844 18.6478C7.93781 17.5209 7.59469 16.2421 7.59562 14.9315C7.5975 10.8337 10.9322 7.49994 15.0309 7.49994C17.0194 7.49994 18.8869 8.27431 20.2903 9.67963C21.6938 11.084 22.4672 12.9515 22.4662 14.9381C22.4644 19.0359 19.1287 22.3706 15.0309 22.3706ZM15 -6.10352e-05C6.71531 -6.10352e-05 0 6.71525 0 14.9999C0 23.2837 6.71531 29.9999 15 29.9999C23.2837 29.9999 30 23.2837 30 14.9999C30 6.71525 23.2837 -6.10352e-05 15 -6.10352e-05Z" fill="url(#paint0_linear_908_1209)"/>
<defs>
<linearGradient id="paint0_linear_908_1209" x1="30" y1="14.6938" x2="-6.7438e-07" y2="14.6938" gradientUnits="userSpaceOnUse">
<stop stop-color="#1292C8"/>
<stop offset="1" stop-color="#52BD8C"/>
</linearGradient>
</defs>
</svg>
