<svg width="16" height="23" viewBox="0 0 16 23" fill="none" xmlns="http://www.w3.org/2000/svg">
<path fill-rule="evenodd" clip-rule="evenodd" d="M2.18182 9.73336C1.20406 9.73336 1 9.92521 1 10.8445L1 12.5111C1 13.4304 1.20406 13.6222 2.18182 13.6222H4.54545L4.54545 20.2889C4.54545 21.2082 4.74951 21.4 5.72727 21.4H8.09091C9.06867 21.4 9.27273 21.2082 9.27273 20.2889L9.27273 13.6222L11.9267 13.6222C12.6683 13.6222 12.8594 13.4867 13.0631 12.8164L13.5696 11.1497C13.9185 10.0014 13.7035 9.73336 12.4332 9.73336L9.27273 9.73336V6.95558C9.27273 6.34193 9.80184 5.84447 10.4545 5.84447L13.8182 5.84447C14.7959 5.84447 15 5.65262 15 4.73336V2.51114C15 1.59188 14.7959 1.40002 13.8182 1.40002L10.4545 1.40002C7.19104 1.40002 4.54545 3.88733 4.54545 6.95558V9.73336H2.18182Z" stroke="url(#paint0_linear_908_826)" stroke-width="1.5" stroke-linejoin="round"/>
<defs>
<linearGradient id="paint0_linear_908_826" x1="13.1081" y1="21.4" x2="2.46064" y2="2.05386" gradientUnits="userSpaceOnUse">
<stop stop-color="#1292C8"/>
<stop offset="1" stop-color="#52BD8C"/>
</linearGradient>
</defs>
</svg>
