<svg width="140" height="44" viewBox="0 0 140 44" fill="none" xmlns="http://www.w3.org/2000/svg">
<path d="M134.815 44H5.18519C2.33463 44 0 41.5236 0 38.5V5.5C0 2.47637 2.33463 -2.3988e-06 5.18519 -2.3988e-06H134.815C137.665 -2.3988e-06 140 2.47637 140 5.5V38.5C140 41.5236 137.665 44 134.815 44Z" fill="url(#paint0_linear_1319_2385)"/>
<path d="M10.8213 8.2926C10.5166 8.63085 10.3403 9.15748 10.3403 9.83948V34.166C10.3403 34.848 10.5166 35.3746 10.8213 35.7129L10.8964 35.7871L23.7479 22.1609V21.8391L10.8964 8.21286L10.8213 8.2926Z" fill="url(#paint1_linear_1319_2385)"/>
<path d="M28.0271 26.7052L23.748 22.1608V21.8391L28.0323 17.2947L28.1282 17.3538L33.2019 20.4159C34.6499 21.2849 34.6499 22.715 33.2019 23.5894L28.1282 26.6461L28.0271 26.7052Z" fill="url(#paint2_linear_1319_2385)"/>
<path d="M28.1281 26.6461L23.748 22L10.8213 35.7128C11.3022 36.2491 12.0865 36.3137 12.9783 35.7775L28.1281 26.6461Z" fill="url(#paint3_linear_1319_2385)"/>
<path d="M28.1281 17.3539L12.9783 8.2225C12.0865 7.69175 11.3022 7.75638 10.8213 8.29263L23.748 22L28.1281 17.3539Z" fill="url(#paint4_linear_1319_2385)"/>
<path d="M49.1739 11.2681C49.1739 12.1866 48.9146 12.9223 48.4039 13.4709C47.8167 14.1213 47.0519 14.4485 46.1146 14.4485C45.2189 14.4485 44.4541 14.1158 43.8267 13.4599C43.198 12.7944 42.8843 11.9776 42.8843 11C42.8843 10.0224 43.198 9.20564 43.8267 8.54564C44.4541 7.88426 45.2189 7.55151 46.1146 7.55151C46.5606 7.55151 46.9858 7.64914 47.3915 7.83064C47.7959 8.01351 48.1252 8.26101 48.3637 8.56626L47.8219 9.14651C47.4058 8.62539 46.8393 8.36826 46.1146 8.36826C45.4613 8.36826 44.8948 8.61026 44.4139 9.09839C43.9382 9.58789 43.6996 10.2218 43.6996 11C43.6996 11.7783 43.9382 12.4176 44.4139 12.9071C44.8948 13.3898 45.4613 13.6373 46.1146 13.6373C46.8082 13.6373 47.3915 13.3898 47.8517 12.9016C48.155 12.5785 48.3274 12.133 48.3728 11.5638H46.1146V10.769H49.1272C49.1635 10.9409 49.1739 11.1073 49.1739 11.2681Z" fill="white" stroke="white" stroke-width="0.16" stroke-miterlimit="10"/>
<path d="M53.9532 8.51263H51.1234V10.6026H53.6745V11.3974H51.1234V13.4874H53.9532V14.2973H50.3223V7.70276H53.9532V8.51263Z" fill="white" stroke="white" stroke-width="0.16" stroke-miterlimit="10"/>
<path d="M57.3264 14.2973H56.5253V8.51263H54.7896V7.70276H59.0634V8.51263H57.3264V14.2973Z" fill="white" stroke="white" stroke-width="0.16" stroke-miterlimit="10"/>
<path d="M62.1562 14.2973V7.70276H62.9561V14.2973H62.1562Z" fill="white" stroke="white" stroke-width="0.16" stroke-miterlimit="10"/>
<path d="M66.5017 14.2973H65.7071V8.51263H63.9648V7.70276H68.2439V8.51263H66.5017V14.2973Z" fill="white" stroke="white" stroke-width="0.16" stroke-miterlimit="10"/>
<path d="M76.3354 13.4489C75.7223 14.1158 74.9626 14.4485 74.0565 14.4485C73.1452 14.4485 72.3856 14.1158 71.7724 13.4489C71.1606 12.7834 70.856 11.9666 70.856 11C70.856 10.0334 71.1606 9.21664 71.7724 8.55114C72.3856 7.88426 73.1452 7.55151 74.0565 7.55151C74.9574 7.55151 75.7171 7.88426 76.3302 8.55664C76.9473 9.22764 77.2519 10.0389 77.2519 11C77.2519 11.9666 76.9473 12.7834 76.3354 13.4489ZM72.3648 12.8961C72.8263 13.3898 73.3876 13.6373 74.0565 13.6373C74.7202 13.6373 75.2867 13.3898 75.743 12.8961C76.2032 12.4025 76.4365 11.7686 76.4365 11C76.4365 10.2314 76.2032 9.59751 75.743 9.10389C75.2867 8.61026 74.7202 8.36276 74.0565 8.36276C73.3876 8.36276 72.8263 8.61026 72.3648 9.10389C71.9047 9.59751 71.6713 10.2314 71.6713 11C71.6713 11.7686 71.9047 12.4025 72.3648 12.8961Z" fill="white" stroke="white" stroke-width="0.16" stroke-miterlimit="10"/>
<path d="M78.3755 14.2973V7.70276H79.3477L82.3707 12.8315H82.4057L82.3707 11.5638V7.70276H83.1705V14.2973H82.3357L79.1701 8.91551H79.1351L79.1701 10.1888V14.2973H78.3755Z" fill="white" stroke="white" stroke-width="0.16" stroke-miterlimit="10"/>
<path d="M70.6586 23.9277C68.2228 23.9277 66.233 25.894 66.233 28.6069C66.233 31.2977 68.2228 33.2846 70.6586 33.2846C73.0995 33.2846 75.0893 31.2977 75.0893 28.6069C75.0893 25.894 73.0995 23.9277 70.6586 23.9277ZM70.6586 31.4421C69.3221 31.4421 68.1723 30.272 68.1723 28.6069C68.1723 26.9197 69.3221 25.7702 70.6586 25.7702C71.995 25.7702 73.15 26.9197 73.15 28.6069C73.15 30.272 71.995 31.4421 70.6586 31.4421ZM61.0025 23.9277C58.5615 23.9277 56.5769 25.894 56.5769 28.6069C56.5769 31.2977 58.5615 33.2846 61.0025 33.2846C63.4421 33.2846 65.428 31.2977 65.428 28.6069C65.428 25.894 63.4421 23.9277 61.0025 23.9277ZM61.0025 31.4421C59.6647 31.4421 58.511 30.272 58.511 28.6069C58.511 26.9197 59.6647 25.7702 61.0025 25.7702C62.3389 25.7702 63.4888 26.9197 63.4888 28.6069C63.4888 30.272 62.3389 31.4421 61.0025 31.4421ZM49.5121 25.3619V27.3501H53.9882C53.8573 28.4611 53.5073 29.2779 52.9706 29.8471C52.3173 30.5346 51.2997 31.2977 49.5121 31.2977C46.7575 31.2977 44.6004 28.9396 44.6004 26.0177C44.6004 23.0959 46.7575 20.7377 49.5121 20.7377C51.0015 20.7377 52.0852 21.3551 52.8851 22.1554L54.206 20.7542C53.0873 19.6212 51.5991 18.7509 49.5121 18.7509C45.7347 18.7509 42.5601 22.011 42.5601 26.0177C42.5601 30.0245 45.7347 33.2846 49.5121 33.2846C51.5538 33.2846 53.0873 32.5751 54.2928 31.2441C55.5282 29.9337 55.9132 28.0912 55.9132 26.6035C55.9132 26.1415 55.8769 25.7166 55.8121 25.3619H49.5121ZM96.4976 26.9032C96.1334 25.8569 95.0095 23.9277 92.7202 23.9277C90.4517 23.9277 88.563 25.8239 88.563 28.6069C88.563 31.2276 90.4323 33.2846 92.938 33.2846C94.9641 33.2846 96.1334 31.9742 96.6143 31.2111L95.1106 30.1482C94.6089 30.9265 93.9258 31.4421 92.938 31.4421C91.9567 31.4421 91.2528 30.965 90.8017 30.0245L96.7011 27.4354L96.4976 26.9032ZM90.4828 28.4611C90.4323 26.6571 91.8037 25.7331 92.7863 25.7331C93.5563 25.7331 94.2097 26.1415 94.4274 26.7259L90.4828 28.4611ZM85.6878 33H87.6271V19.25H85.6878V33ZM82.5119 24.97H82.4471C82.0115 24.4227 81.1806 23.9277 80.128 23.9277C77.9191 23.9277 75.8995 25.9847 75.8995 28.622C75.8995 31.2441 77.9191 33.2846 80.128 33.2846C81.1806 33.2846 82.0115 32.7855 82.4471 32.2217H82.5119V32.8927C82.5119 34.6816 81.611 35.6427 80.1578 35.6427C78.973 35.6427 78.238 34.7352 77.9347 33.9721L76.2482 34.7187C76.7343 35.959 78.0215 37.4852 80.1578 37.4852C82.4315 37.4852 84.35 36.0662 84.35 32.6136V24.2124H82.5119V24.97ZM80.2939 31.4421C78.9575 31.4421 77.8387 30.2555 77.8387 28.622C77.8387 26.9734 78.9575 25.7702 80.2939 25.7702C81.611 25.7702 82.6493 26.9734 82.6493 28.622C82.6493 30.2555 81.611 31.4421 80.2939 31.4421ZM105.577 19.25H100.939V33H102.873V27.7901H105.577C107.725 27.7901 109.831 26.1415 109.831 23.5194C109.831 20.8986 107.72 19.25 105.577 19.25ZM105.627 25.8775H102.873V21.1626H105.627C107.072 21.1626 107.896 22.4345 107.896 23.5194C107.896 24.5836 107.072 25.8775 105.627 25.8775ZM117.583 23.9016C116.186 23.9016 114.733 24.5561 114.135 26.0067L115.851 26.7699C116.221 26.0067 116.9 25.7592 117.618 25.7592C118.622 25.7592 119.639 26.3986 119.655 27.5275V27.6719C119.305 27.4574 118.555 27.1397 117.634 27.1397C115.785 27.1397 113.902 28.2191 113.902 30.2335C113.902 32.076 115.416 33.2626 117.118 33.2626C118.419 33.2626 119.137 32.6397 119.589 31.9151H119.655V32.978H121.523V27.7035C121.523 25.2656 119.806 23.9016 117.583 23.9016ZM117.35 31.4366C116.717 31.4366 115.836 31.1039 115.836 30.272C115.836 29.2077 116.935 28.7994 117.887 28.7994C118.738 28.7994 119.137 28.9987 119.655 29.2614C119.503 30.5346 118.47 31.4366 117.35 31.4366ZM128.328 24.2027L126.105 30.1634H126.039L123.741 24.2027H121.655L125.108 32.5325L123.138 37.1676H125.159L130.48 24.2027H128.328ZM110.894 33H112.834V19.25H110.894V33Z" fill="white"/>
<defs>
<linearGradient id="paint0_linear_1319_2385" x1="140" y1="22.449" x2="-3.1471e-06" y2="22.4489" gradientUnits="userSpaceOnUse">
<stop stop-color="#1292C8"/>
<stop offset="1" stop-color="#52BD8C"/>
</linearGradient>
<linearGradient id="paint1_linear_1319_2385" x1="22.6069" y1="34.4193" x2="4.17825" y2="17.0455" gradientUnits="userSpaceOnUse">
<stop stop-color="#00A0FF"/>
<stop offset="0.0066" stop-color="#00A1FF"/>
<stop offset="0.2601" stop-color="#00BEFF"/>
<stop offset="0.5122" stop-color="#00D2FF"/>
<stop offset="0.7604" stop-color="#00DFFF"/>
<stop offset="1" stop-color="#00E3FF"/>
</linearGradient>
<linearGradient id="paint2_linear_1319_2385" x1="35.0874" y1="21.9984" x2="9.99435" y2="21.9984" gradientUnits="userSpaceOnUse">
<stop stop-color="#FFE000"/>
<stop offset="0.4087" stop-color="#FFBD00"/>
<stop offset="0.7754" stop-color="#FFA500"/>
<stop offset="1" stop-color="#FF9C00"/>
</linearGradient>
<linearGradient id="paint3_linear_1319_2385" x1="25.7463" y1="19.4743" x2="0.75562" y2="-4.08599" gradientUnits="userSpaceOnUse">
<stop stop-color="#FF3A44"/>
<stop offset="1" stop-color="#C31162"/>
</linearGradient>
<linearGradient id="paint4_linear_1319_2385" x1="7.56738" y1="43.8062" x2="18.7268" y2="33.2856" gradientUnits="userSpaceOnUse">
<stop stop-color="#32A071"/>
<stop offset="0.0685" stop-color="#2DA771"/>
<stop offset="0.4762" stop-color="#15CF74"/>
<stop offset="0.8009" stop-color="#06E775"/>
<stop offset="1" stop-color="#00F076"/>
</linearGradient>
</defs>
</svg>
