<svg width="188" height="60" viewBox="0 0 188 60" fill="none" xmlns="http://www.w3.org/2000/svg">
<g filter="url(#filter0_d_499_4723)">
<path d="M177.333 52H10.6667C7.00167 52 4 49.0734 4 45.5V6.5C4 2.92663 7.00167 2.74817e-06 10.6667 2.74817e-06H177.333C180.998 2.74817e-06 184 2.92663 184 6.5V45.5C184 49.0734 180.998 52 177.333 52Z" fill="black"/>
<path d="M177.333 1.04162C180.42 1.04162 182.932 3.4905 182.932 6.5V45.5C182.932 48.5095 180.42 50.9584 177.333 50.9584H10.6667C7.58 50.9584 5.06833 48.5095 5.06833 45.5V6.5C5.06833 3.4905 7.58 1.04162 10.6667 1.04162H177.333ZM177.333 2.74817e-06H10.6667C7.00167 2.74817e-06 4 2.92663 4 6.5V45.5C4 49.0734 7.00167 52 10.6667 52H177.333C180.998 52 184 49.0734 184 45.5V6.5C184 2.92663 180.998 2.74817e-06 177.333 2.74817e-06Z" fill="#A6A6A6"/>
<path d="M17.9133 9.80044C17.5216 10.2002 17.2949 10.8226 17.2949 11.6286V40.3781C17.2949 41.1841 17.5216 41.8064 17.9133 42.2062L18.0099 42.2939L34.5332 26.1902V25.8099L18.0099 9.7062L17.9133 9.80044Z" fill="url(#paint0_linear_499_4723)"/>
<path d="M40.0349 31.5608L34.5332 26.1902V25.8099L40.0415 20.4393L40.1649 20.5092L46.6882 24.128C48.5499 25.155 48.5499 26.845 46.6882 27.8785L40.1649 31.4909L40.0349 31.5608Z" fill="url(#paint1_linear_499_4723)"/>
<path d="M40.165 31.491L34.5333 26.0001L17.9133 42.2062C18.5317 42.84 19.54 42.9163 20.6867 42.2826L40.165 31.491Z" fill="url(#paint2_linear_499_4723)"/>
<path d="M40.165 20.5091L20.6867 9.71751C19.54 9.09025 18.5317 9.16663 17.9133 9.80038L34.5333 26L40.165 20.5091Z" fill="url(#paint3_linear_499_4723)"/>
<path d="M67.2234 13.3169C67.2234 14.4024 66.8901 15.2718 66.2334 15.9202C65.4784 16.6888 64.4951 17.0756 63.2901 17.0756C62.1384 17.0756 61.155 16.6823 60.3484 15.9072C59.54 15.1207 59.1367 14.1554 59.1367 13.0001C59.1367 11.8447 59.54 10.8794 60.3484 10.0994C61.155 9.31781 62.1384 8.92456 63.2901 8.92456C63.8634 8.92456 64.41 9.03994 64.9317 9.25444C65.4517 9.47056 65.875 9.76306 66.1817 10.1238L65.4851 10.8096C64.95 10.1937 64.2217 9.88981 63.2901 9.88981C62.4501 9.88981 61.7217 10.1758 61.1034 10.7527C60.4917 11.3312 60.185 12.0803 60.185 13.0001C60.185 13.9198 60.4917 14.6754 61.1034 15.2539C61.7217 15.8243 62.4501 16.1168 63.2901 16.1168C64.1817 16.1168 64.9317 15.8243 65.5234 15.2474C65.9134 14.8656 66.1351 14.3391 66.1934 13.6663H63.2901V12.7271H67.1634C67.2101 12.9302 67.2234 13.1268 67.2234 13.3169Z" fill="white" stroke="white" stroke-width="0.16" stroke-miterlimit="10"/>
<path d="M73.3683 10.0604H69.73V12.5304H73.01V13.4696H69.73V15.9396H73.3683V16.8968H68.7V9.10327H73.3683V10.0604Z" fill="white" stroke="white" stroke-width="0.16" stroke-miterlimit="10"/>
<path d="M77.705 16.8968H76.675V10.0604H74.4434V9.10327H79.9384V10.0604H77.705V16.8968Z" fill="white" stroke="white" stroke-width="0.16" stroke-miterlimit="10"/>
<path d="M83.915 16.8968V9.10327H84.9434V16.8968H83.915Z" fill="white" stroke="white" stroke-width="0.16" stroke-miterlimit="10"/>
<path d="M89.5016 16.8968H88.48V10.0604H86.24V9.10327H91.7416V10.0604H89.5016V16.8968Z" fill="white" stroke="white" stroke-width="0.16" stroke-miterlimit="10"/>
<path d="M102.145 15.8942C101.357 16.6823 100.38 17.0756 99.2151 17.0756C98.0434 17.0756 97.0668 16.6823 96.2784 15.8942C95.4918 15.1077 95.1001 14.1424 95.1001 13.0001C95.1001 11.8577 95.4918 10.8924 96.2784 10.1059C97.0668 9.31781 98.0434 8.92456 99.2151 8.92456C100.373 8.92456 101.35 9.31781 102.138 10.1124C102.932 10.9054 103.323 11.8642 103.323 13.0001C103.323 14.1424 102.932 15.1077 102.145 15.8942ZM97.0401 15.2409C97.6334 15.8243 98.3551 16.1168 99.2151 16.1168C100.068 16.1168 100.797 15.8243 101.383 15.2409C101.975 14.6576 102.275 13.9084 102.275 13.0001C102.275 12.0917 101.975 11.3426 101.383 10.7592C100.797 10.1758 100.068 9.88331 99.2151 9.88331C98.3551 9.88331 97.6334 10.1758 97.0401 10.7592C96.4484 11.3426 96.1484 12.0917 96.1484 13.0001C96.1484 13.9084 96.4484 14.6576 97.0401 15.2409Z" fill="white" stroke="white" stroke-width="0.16" stroke-miterlimit="10"/>
<path d="M104.768 16.8968V9.10327H106.018L109.905 15.1645H109.95L109.905 13.6663V9.10327H110.933V16.8968H109.86L105.79 10.5365H105.745L105.79 12.0413V16.8968H104.768Z" fill="white" stroke="white" stroke-width="0.16" stroke-miterlimit="10"/>
<path d="M94.8466 28.2783C91.715 28.2783 89.1566 30.602 89.1566 33.8082C89.1566 36.9883 91.715 39.3364 94.8466 39.3364C97.985 39.3364 100.543 36.9883 100.543 33.8082C100.543 30.602 97.985 28.2783 94.8466 28.2783ZM94.8466 37.1589C93.1283 37.1589 91.65 35.776 91.65 33.8082C91.65 31.8143 93.1283 30.4558 94.8466 30.4558C96.565 30.4558 98.05 31.8143 98.05 33.8082C98.05 35.776 96.565 37.1589 94.8466 37.1589ZM82.4316 28.2783C79.2933 28.2783 76.7416 30.602 76.7416 33.8082C76.7416 36.9883 79.2933 39.3364 82.4316 39.3364C85.5683 39.3364 88.1216 36.9883 88.1216 33.8082C88.1216 30.602 85.5683 28.2783 82.4316 28.2783ZM82.4316 37.1589C80.7116 37.1589 79.2283 35.776 79.2283 33.8082C79.2283 31.8143 80.7116 30.4558 82.4316 30.4558C84.15 30.4558 85.6283 31.8143 85.6283 33.8082C85.6283 35.776 84.15 37.1589 82.4316 37.1589ZM67.6583 29.9732V32.3229H73.4133C73.245 33.6359 72.795 34.6012 72.105 35.2739C71.265 36.0864 69.9566 36.9883 67.6583 36.9883C64.1166 36.9883 61.3433 34.2014 61.3433 30.7483C61.3433 27.2952 64.1166 24.5083 67.6583 24.5083C69.5733 24.5083 70.9666 25.2379 71.995 26.1837L73.6933 24.5278C72.255 23.1888 70.3416 22.1602 67.6583 22.1602C62.8016 22.1602 58.72 26.013 58.72 30.7483C58.72 35.4835 62.8016 39.3364 67.6583 39.3364C70.2833 39.3364 72.255 38.4979 73.805 36.9249C75.3933 35.3763 75.8883 33.1988 75.8883 31.4405C75.8883 30.8945 75.8416 30.3924 75.7583 29.9732H67.6583ZM128.068 31.7948C127.6 30.5582 126.155 28.2783 123.212 28.2783C120.295 28.2783 117.867 30.5192 117.867 33.8082C117.867 36.9054 120.27 39.3364 123.492 39.3364C126.097 39.3364 127.6 37.7878 128.218 36.8859L126.285 35.6298C125.64 36.5495 124.762 37.1589 123.492 37.1589C122.23 37.1589 121.325 36.595 120.745 35.4835L128.33 32.4237L128.068 31.7948ZM120.335 33.6359C120.27 31.5039 122.033 30.4119 123.297 30.4119C124.287 30.4119 125.127 30.8945 125.407 31.5852L120.335 33.6359ZM114.17 39H116.663V22.75H114.17V39ZM110.087 29.51H110.003C109.443 28.8633 108.375 28.2783 107.022 28.2783C104.182 28.2783 101.585 30.7093 101.585 33.826C101.585 36.9249 104.182 39.3364 107.022 39.3364C108.375 39.3364 109.443 38.7465 110.003 38.0803H110.087V38.8733C110.087 40.9874 108.928 42.1233 107.06 42.1233C105.537 42.1233 104.592 41.0508 104.202 40.1489L102.033 41.0313C102.658 42.497 104.313 44.3008 107.06 44.3008C109.983 44.3008 112.45 42.6238 112.45 38.5434V28.6147H110.087V29.51ZM107.235 37.1589C105.517 37.1589 104.078 35.7565 104.078 33.826C104.078 31.8777 105.517 30.4558 107.235 30.4558C108.928 30.4558 110.263 31.8777 110.263 33.826C110.263 35.7565 108.928 37.1589 107.235 37.1589ZM139.742 22.75H133.778V39H136.265V32.8429H139.742C142.503 32.8429 145.212 30.8945 145.212 27.7957C145.212 24.6984 142.497 22.75 139.742 22.75ZM139.807 30.5825H136.265V25.0104H139.807C141.663 25.0104 142.723 26.5135 142.723 27.7957C142.723 29.0534 141.663 30.5825 139.807 30.5825ZM155.178 28.2474C153.382 28.2474 151.513 29.0209 150.745 30.7353L152.952 31.6372C153.427 30.7353 154.3 30.4428 155.223 30.4428C156.513 30.4428 157.822 31.1984 157.842 32.5325V32.7032C157.392 32.4497 156.428 32.0743 155.243 32.0743C152.867 32.0743 150.445 33.3499 150.445 35.7305C150.445 37.908 152.392 39.3104 154.58 39.3104C156.253 39.3104 157.177 38.5743 157.757 37.7179H157.842V38.974H160.243V32.7405C160.243 29.8594 158.037 28.2474 155.178 28.2474ZM154.878 37.1524C154.065 37.1524 152.932 36.7592 152.932 35.776C152.932 34.5183 154.345 34.0357 155.568 34.0357C156.663 34.0357 157.177 34.2713 157.842 34.5817C157.647 36.0864 156.318 37.1524 154.878 37.1524ZM168.993 28.6033L166.135 35.6477H166.05L163.095 28.6033H160.413L164.853 38.4475L162.32 43.9254H164.918L171.76 28.6033H168.993ZM146.578 39H149.072V22.75H146.578V39Z" fill="white"/>
</g>
<defs>
<filter id="filter0_d_499_4723" x="0" y="0" width="188" height="60" filterUnits="userSpaceOnUse" color-interpolation-filters="sRGB">
<feFlood flood-opacity="0" result="BackgroundImageFix"/>
<feColorMatrix in="SourceAlpha" type="matrix" values="0 0 0 0 0 0 0 0 0 0 0 0 0 0 0 0 0 0 127 0" result="hardAlpha"/>
<feOffset dy="4"/>
<feGaussianBlur stdDeviation="2"/>
<feComposite in2="hardAlpha" operator="out"/>
<feColorMatrix type="matrix" values="0 0 0 0 0 0 0 0 0 0 0 0 0 0 0 0 0 0 0.25 0"/>
<feBlend mode="normal" in2="BackgroundImageFix" result="effect1_dropShadow_499_4723"/>
<feBlend mode="normal" in="SourceGraphic" in2="effect1_dropShadow_499_4723" result="shape"/>
</filter>
<linearGradient id="paint0_linear_499_4723" x1="33.0662" y1="40.6775" x2="11.256" y2="18.3081" gradientUnits="userSpaceOnUse">
<stop stop-color="#00A0FF"/>
<stop offset="0.0066" stop-color="#00A1FF"/>
<stop offset="0.2601" stop-color="#00BEFF"/>
<stop offset="0.5122" stop-color="#00D2FF"/>
<stop offset="0.7604" stop-color="#00DFFF"/>
<stop offset="1" stop-color="#00E3FF"/>
</linearGradient>
<linearGradient id="paint1_linear_499_4723" x1="49.1124" y1="25.9982" x2="16.8499" y2="25.9982" gradientUnits="userSpaceOnUse">
<stop stop-color="#FFE000"/>
<stop offset="0.4087" stop-color="#FFBD00"/>
<stop offset="0.7754" stop-color="#FFA500"/>
<stop offset="1" stop-color="#FF9C00"/>
</linearGradient>
<linearGradient id="paint2_linear_499_4723" x1="37.1027" y1="23.0152" x2="7.52635" y2="-7.31951" gradientUnits="userSpaceOnUse">
<stop stop-color="#FF3A44"/>
<stop offset="1" stop-color="#C31162"/>
</linearGradient>
<linearGradient id="paint3_linear_499_4723" x1="13.7297" y1="51.7709" x2="26.9369" y2="38.2253" gradientUnits="userSpaceOnUse">
<stop stop-color="#32A071"/>
<stop offset="0.0685" stop-color="#2DA771"/>
<stop offset="0.4762" stop-color="#15CF74"/>
<stop offset="0.8009" stop-color="#06E775"/>
<stop offset="1" stop-color="#00F076"/>
</linearGradient>
</defs>
</svg>
