<svg width="205" height="127" viewBox="0 0 205 127" fill="none" xmlns="http://www.w3.org/2000/svg">
<g filter="url(#filter0_dddd_3001_2204)">
<rect x="6" y="3" width="162" height="86" rx="11.721" fill="white"/>
<rect x="17.7212" y="6.44165" width="168.105" height="79.1167" rx="11.721" fill="white"/>
<rect x="17.7212" y="6.44165" width="79.1167" height="79.1167" rx="5.8605" fill="#EAF6EF"/>
<path d="M68.2683 37.1361C68.1584 37.1178 68.0302 37.1178 67.9203 37.1361C65.393 37.0445 63.3784 34.975 63.3784 32.4111C63.3784 29.7922 65.4845 27.686 68.1034 27.686C70.7223 27.686 72.8285 29.8105 72.8285 32.4111C72.8101 34.975 70.7956 37.0445 68.2683 37.1361Z" stroke="#52BD8B" stroke-width="2.74711" stroke-linecap="round" stroke-linejoin="round"/>
<path d="M66.3821 50.4688C68.8911 50.89 71.6565 50.4504 73.5978 49.1501C76.1801 47.4286 76.1801 44.6083 73.5978 42.8867C71.6382 41.5864 68.8362 41.1469 66.3271 41.5864" stroke="#52BD8B" stroke-width="2.74711" stroke-linecap="round" stroke-linejoin="round"/>
<path d="M46.2365 37.1361C46.3464 37.1178 46.4746 37.1178 46.5844 37.1361C49.1118 37.0445 51.1263 34.975 51.1263 32.4111C51.1263 29.7922 49.0202 27.686 46.4013 27.686C43.7824 27.686 41.6763 29.8105 41.6763 32.4111C41.6946 34.975 43.7091 37.0445 46.2365 37.1361Z" stroke="#52BD8B" stroke-width="2.74711" stroke-linecap="round" stroke-linejoin="round"/>
<path d="M48.1227 50.4688C45.6136 50.89 42.8482 50.4504 40.9069 49.1501C38.3246 47.4286 38.3246 44.6083 40.9069 42.8867C42.8665 41.5864 45.6686 41.1469 48.1776 41.5864" stroke="#52BD8B" stroke-width="2.74711" stroke-linecap="round" stroke-linejoin="round"/>
<path d="M57.28 50.8165C57.1701 50.7982 57.0419 50.7982 56.932 50.8165C54.4047 50.7249 52.3901 48.6554 52.3901 46.0915C52.3901 43.4726 54.4962 41.3665 57.1152 41.3665C59.7341 41.3665 61.8402 43.4909 61.8402 46.0915C61.8219 48.6554 59.8073 50.7433 57.28 50.8165Z" stroke="#52BD8B" stroke-width="2.74711" stroke-linecap="round" stroke-linejoin="round"/>
<path d="M51.9504 56.5855C49.3681 58.307 49.3681 61.1274 51.9504 62.8489C54.8806 64.8085 59.6789 64.8085 62.6092 62.8489C65.1914 61.1274 65.1914 58.307 62.6092 56.5855C59.6972 54.6442 54.8806 54.6442 51.9504 56.5855Z" stroke="#52BD8B" stroke-width="2.74711" stroke-linecap="round" stroke-linejoin="round"/>
<path d="M108.877 26.6686V16.0131H110.807V20.524H115.745V16.0131H117.68V26.6686H115.745V22.1421H110.807V26.6686H108.877ZM121.996 26.8299C121.49 26.8299 121.034 26.7397 120.628 26.5593C120.225 26.3755 119.906 26.1049 119.67 25.7477C119.438 25.3904 119.322 24.9499 119.322 24.4261C119.322 23.9752 119.405 23.6024 119.572 23.3075C119.738 23.0127 119.965 22.7768 120.253 22.5999C120.541 22.423 120.865 22.2895 121.226 22.1993C121.59 22.1057 121.967 22.038 122.355 21.9964C122.823 21.9479 123.203 21.9045 123.495 21.8663C123.786 21.8247 123.998 21.7623 124.129 21.679C124.265 21.5923 124.332 21.4588 124.332 21.2784V21.2472C124.332 20.8553 124.216 20.5518 123.984 20.3367C123.751 20.1217 123.417 20.0141 122.979 20.0141C122.518 20.0141 122.152 20.1147 121.882 20.3159C121.615 20.5171 121.434 20.7547 121.341 21.0287L119.582 20.7789C119.721 20.2933 119.95 19.8875 120.269 19.5615C120.588 19.232 120.978 18.9857 121.439 18.8227C121.901 18.6562 122.411 18.5729 122.969 18.5729C123.354 18.5729 123.737 18.618 124.119 18.7082C124.5 18.7984 124.849 18.9475 125.165 19.1557C125.48 19.3603 125.734 19.6395 125.924 19.9933C126.119 20.3471 126.216 20.7894 126.216 21.32V26.6686H124.405V25.5708H124.343C124.228 25.7928 124.067 26.0009 123.859 26.1951C123.654 26.3859 123.396 26.5402 123.084 26.6582C122.775 26.7726 122.412 26.8299 121.996 26.8299ZM122.485 25.4459C122.863 25.4459 123.191 25.3713 123.469 25.2222C123.746 25.0696 123.959 24.8684 124.109 24.6187C124.261 24.3689 124.337 24.0966 124.337 23.8018V22.8601C124.278 22.9086 124.178 22.9537 124.036 22.9954C123.897 23.037 123.741 23.0734 123.567 23.1046C123.394 23.1358 123.222 23.1636 123.052 23.1879C122.882 23.2121 122.735 23.233 122.61 23.2503C122.329 23.2885 122.078 23.3509 121.856 23.4376C121.634 23.5243 121.459 23.6457 121.33 23.8018C121.202 23.9544 121.138 24.1521 121.138 24.3949C121.138 24.7418 121.264 25.0037 121.517 25.1806C121.771 25.3575 122.093 25.4459 122.485 25.4459ZM128.11 29.6654V18.677H129.962V19.9985H130.071C130.168 19.8043 130.305 19.5979 130.482 19.3794C130.659 19.1574 130.898 18.9684 131.2 18.8123C131.502 18.6527 131.887 18.5729 132.355 18.5729C132.972 18.5729 133.529 18.7308 134.025 19.0464C134.525 19.3586 134.92 19.8216 135.211 20.4356C135.506 21.046 135.654 21.7952 135.654 22.6832C135.654 23.5607 135.51 24.3065 135.222 24.9204C134.934 25.5344 134.542 26.0026 134.046 26.3252C133.55 26.6478 132.988 26.8091 132.36 26.8091C131.902 26.8091 131.523 26.7327 131.221 26.5801C130.919 26.4275 130.676 26.2437 130.492 26.0286C130.312 25.8101 130.172 25.6037 130.071 25.4095H129.993V29.6654H128.11ZM129.957 22.6728C129.957 23.1896 130.029 23.6423 130.175 24.0307C130.324 24.4192 130.537 24.7227 130.815 24.9412C131.096 25.1563 131.436 25.2638 131.835 25.2638C132.251 25.2638 132.6 25.1528 132.881 24.9308C133.161 24.7054 133.373 24.3984 133.515 24.0099C133.661 23.618 133.734 23.1723 133.734 22.6728C133.734 22.1768 133.663 21.7363 133.52 21.3513C133.378 20.9663 133.167 20.6645 132.886 20.446C132.605 20.2274 132.254 20.1182 131.835 20.1182C131.432 20.1182 131.091 20.224 130.81 20.4356C130.529 20.6471 130.316 20.9437 130.17 21.3252C130.028 21.7068 129.957 22.156 129.957 22.6728ZM137.267 29.6654V18.677H139.119V19.9985H139.228C139.325 19.8043 139.462 19.5979 139.639 19.3794C139.816 19.1574 140.055 18.9684 140.357 18.8123C140.659 18.6527 141.044 18.5729 141.512 18.5729C142.129 18.5729 142.686 18.7308 143.182 19.0464C143.682 19.3586 144.077 19.8216 144.368 20.4356C144.663 21.046 144.811 21.7952 144.811 22.6832C144.811 23.5607 144.667 24.3065 144.379 24.9204C144.091 25.5344 143.699 26.0026 143.203 26.3252C142.707 26.6478 142.145 26.8091 141.517 26.8091C141.059 26.8091 140.68 26.7327 140.378 26.5801C140.076 26.4275 139.833 26.2437 139.649 26.0286C139.469 25.8101 139.329 25.6037 139.228 25.4095H139.15V29.6654H137.267ZM139.114 22.6728C139.114 23.1896 139.186 23.6423 139.332 24.0307C139.481 24.4192 139.695 24.7227 139.972 24.9412C140.253 25.1563 140.593 25.2638 140.992 25.2638C141.408 25.2638 141.757 25.1528 142.038 24.9308C142.318 24.7054 142.53 24.3984 142.672 24.0099C142.818 23.618 142.891 23.1723 142.891 22.6728C142.891 22.1768 142.82 21.7363 142.677 21.3513C142.535 20.9663 142.324 20.6645 142.043 20.446C141.762 20.2274 141.411 20.1182 140.992 20.1182C140.589 20.1182 140.248 20.224 139.967 20.4356C139.686 20.6471 139.473 20.9437 139.327 21.3252C139.185 21.7068 139.114 22.156 139.114 22.6728ZM147.322 29.6654C147.066 29.6654 146.828 29.6446 146.61 29.603C146.395 29.5648 146.223 29.5197 146.094 29.4677L146.532 28.0005C146.806 28.0803 147.05 28.1184 147.265 28.115C147.48 28.1115 147.669 28.0439 147.832 27.9121C147.999 27.7837 148.139 27.5687 148.254 27.2669L148.415 26.8351L145.517 18.677H147.515L149.357 24.7123H149.44L151.287 18.677H153.29L150.09 27.6363C149.941 28.0595 149.743 28.4219 149.497 28.7237C149.251 29.0289 148.949 29.2613 148.592 29.4209C148.238 29.5839 147.815 29.6654 147.322 29.6654ZM117.998 37.6083H116.052C115.996 37.2892 115.894 37.0065 115.745 36.7602C115.596 36.5105 115.41 36.2989 115.188 36.1255C114.966 35.9521 114.713 35.822 114.429 35.7353C114.148 35.6451 113.844 35.6 113.518 35.6C112.939 35.6 112.425 35.7457 111.978 36.037C111.531 36.3249 111.18 36.7481 110.927 37.3065C110.674 37.8615 110.547 38.5396 110.547 39.3409C110.547 40.156 110.674 40.8427 110.927 41.4012C111.184 41.9562 111.534 42.3759 111.978 42.6603C112.425 42.9412 112.937 43.0817 113.513 43.0817C113.832 43.0817 114.13 43.0401 114.408 42.9568C114.689 42.8701 114.94 42.7435 115.162 42.577C115.388 42.4105 115.577 42.2059 115.729 41.9631C115.885 41.7203 115.993 41.4428 116.052 41.1306L117.998 41.141C117.925 41.6475 117.767 42.1226 117.524 42.5666C117.285 43.0106 116.971 43.4026 116.583 43.7425C116.194 44.0789 115.74 44.3425 115.219 44.5333C114.699 44.7206 114.122 44.8143 113.487 44.8143C112.55 44.8143 111.714 44.5975 110.979 44.1639C110.244 43.7303 109.665 43.1043 109.241 42.2857C108.818 41.4671 108.607 40.4855 108.607 39.3409C108.607 38.1928 108.82 37.2112 109.247 36.396C109.673 35.5775 110.254 34.9514 110.99 34.5178C111.725 34.0842 112.557 33.8675 113.487 33.8675C114.08 33.8675 114.632 33.9507 115.141 34.1172C115.651 34.2837 116.106 34.5282 116.505 34.8508C116.903 35.1699 117.231 35.5618 117.488 36.0266C117.748 36.488 117.918 37.0152 117.998 37.6083ZM124.776 41.3075V36.677H126.659V44.6686H124.833V43.2482H124.75C124.569 43.6956 124.273 44.0616 123.86 44.346C123.451 44.6304 122.946 44.7726 122.346 44.7726C121.822 44.7726 121.359 44.6564 120.957 44.424C120.558 44.1882 120.246 43.8465 120.02 43.3991C119.795 42.9482 119.682 42.4036 119.682 41.7654V36.677H121.566V41.474C121.566 41.9804 121.704 42.3828 121.982 42.6811C122.259 42.9794 122.624 43.1285 123.074 43.1285C123.352 43.1285 123.621 43.0609 123.881 42.9256C124.141 42.7903 124.354 42.5892 124.521 42.3221C124.691 42.0515 124.776 41.7134 124.776 41.3075ZM134.912 38.7894L133.195 38.9767C133.147 38.8032 133.062 38.6402 132.94 38.4876C132.822 38.335 132.663 38.2118 132.462 38.1182C132.261 38.0245 132.014 37.9777 131.723 37.9777C131.331 37.9777 131.001 38.0627 130.734 38.2326C130.471 38.4026 130.341 38.6229 130.344 38.8934C130.341 39.1258 130.426 39.3148 130.599 39.4605C130.776 39.6062 131.067 39.7259 131.473 39.8195L132.836 40.1109C133.592 40.2739 134.154 40.5323 134.522 40.8861C134.893 41.2399 135.08 41.703 135.084 42.2753C135.08 42.7782 134.933 43.2222 134.642 43.6072C134.354 43.9887 133.953 44.287 133.44 44.5021C132.926 44.7171 132.337 44.8247 131.671 44.8247C130.693 44.8247 129.905 44.62 129.309 44.2107C128.712 43.798 128.357 43.2239 128.242 42.4886L130.079 42.3117C130.162 42.6724 130.339 42.9447 130.609 43.1285C130.88 43.3124 131.232 43.4043 131.666 43.4043C132.113 43.4043 132.472 43.3124 132.743 43.1285C133.017 42.9447 133.154 42.7175 133.154 42.447C133.154 42.218 133.065 42.029 132.888 41.8798C132.715 41.7307 132.444 41.6162 132.077 41.5365L130.714 41.2503C129.947 41.0907 129.38 40.8219 129.012 40.4439C128.645 40.0623 128.462 39.5802 128.466 38.9975C128.462 38.5049 128.596 38.0783 128.867 37.7176C129.141 37.3534 129.52 37.0724 130.006 36.8747C130.495 36.6735 131.059 36.5729 131.697 36.5729C132.633 36.5729 133.37 36.7724 133.908 37.1713C134.449 37.5702 134.784 38.1095 134.912 38.7894ZM140.628 36.677V38.1338H136.033V36.677H140.628ZM137.168 34.7623H139.051V42.2649C139.051 42.5181 139.089 42.7123 139.166 42.8476C139.245 42.9794 139.349 43.0696 139.478 43.1181C139.606 43.1667 139.748 43.191 139.904 43.191C140.022 43.191 140.13 43.1823 140.227 43.165C140.328 43.1476 140.404 43.132 140.456 43.1181L140.773 44.5905C140.673 44.6252 140.529 44.6634 140.341 44.705C140.158 44.7466 139.932 44.7709 139.665 44.7778C139.193 44.7917 138.768 44.7206 138.39 44.5645C138.012 44.405 137.712 44.1587 137.49 43.8257C137.272 43.4927 137.164 43.0765 137.168 42.577V34.7623ZM145.603 44.8247C144.822 44.8247 144.146 44.653 143.574 44.3096C143.001 43.9662 142.557 43.4858 142.242 42.8684C141.93 42.251 141.773 41.5295 141.773 40.704C141.773 39.8785 141.93 39.1553 142.242 38.5344C142.557 37.9135 143.001 37.4314 143.574 37.088C144.146 36.7446 144.822 36.5729 145.603 36.5729C146.383 36.5729 147.06 36.7446 147.632 37.088C148.204 37.4314 148.646 37.9135 148.959 38.5344C149.274 39.1553 149.432 39.8785 149.432 40.704C149.432 41.5295 149.274 42.251 148.959 42.8684C148.646 43.4858 148.204 43.9662 147.632 44.3096C147.06 44.653 146.383 44.8247 145.603 44.8247ZM145.613 43.3158C146.036 43.3158 146.39 43.1996 146.675 42.9672C146.959 42.7314 147.171 42.4157 147.309 42.0203C147.452 41.6249 147.523 41.1844 147.523 40.6988C147.523 40.2097 147.452 39.7675 147.309 39.3721C147.171 38.9732 146.959 38.6558 146.675 38.42C146.39 38.1841 146.036 38.0662 145.613 38.0662C145.18 38.0662 144.819 38.1841 144.531 38.42C144.247 38.6558 144.033 38.9732 143.891 39.3721C143.752 39.7675 143.683 40.2097 143.683 40.6988C143.683 41.1844 143.752 41.6249 143.891 42.0203C144.033 42.4157 144.247 42.7314 144.531 42.9672C144.819 43.1996 145.18 43.3158 145.613 43.3158ZM151.031 44.6686V36.677H152.831V38.0349H152.925C153.091 37.5771 153.367 37.2198 153.752 36.9632C154.137 36.703 154.596 36.5729 155.131 36.5729C155.672 36.5729 156.128 36.7047 156.499 36.9684C156.873 37.2285 157.137 37.584 157.29 38.0349H157.373C157.55 37.591 157.848 37.2372 158.268 36.9736C158.691 36.7065 159.192 36.5729 159.771 36.5729C160.507 36.5729 161.107 36.8053 161.572 37.2701C162.036 37.7349 162.269 38.413 162.269 39.3044V44.6686H160.38V39.5958C160.38 39.0998 160.248 38.7373 159.985 38.5084C159.721 38.276 159.399 38.1598 159.017 38.1598C158.563 38.1598 158.207 38.302 157.95 38.5864C157.697 38.8674 157.571 39.2333 157.571 39.6842V44.6686H155.724V39.5178C155.724 39.105 155.599 38.7755 155.349 38.5292C155.103 38.2829 154.78 38.1598 154.381 38.1598C154.111 38.1598 153.864 38.2292 153.643 38.3679C153.421 38.5032 153.244 38.6957 153.112 38.9454C152.98 39.1917 152.914 39.4796 152.914 39.8091V44.6686H151.031ZM167.718 44.8247C166.916 44.8247 166.224 44.6582 165.642 44.3252C165.062 43.9887 164.617 43.5135 164.304 42.8996C163.992 42.2822 163.836 41.5555 163.836 40.7196C163.836 39.8976 163.992 39.1761 164.304 38.5552C164.62 37.9309 165.061 37.4453 165.626 37.0984C166.191 36.7481 166.856 36.5729 167.619 36.5729C168.111 36.5729 168.576 36.6527 169.013 36.8123C169.454 36.9684 169.842 37.2112 170.178 37.5407C170.518 37.8702 170.785 38.2899 170.98 38.7998C171.174 39.3062 171.271 39.9097 171.271 40.6104V41.1879H164.721V39.9184H169.466C169.462 39.5576 169.384 39.2368 169.232 38.9558C169.079 38.6714 168.866 38.4477 168.592 38.2847C168.321 38.1217 168.005 38.0401 167.645 38.0401C167.26 38.0401 166.921 38.1338 166.63 38.3211C166.339 38.5049 166.112 38.7477 165.949 39.0495C165.789 39.3478 165.707 39.6756 165.704 40.0328V41.141C165.704 41.6058 165.789 42.0047 165.959 42.3377C166.129 42.6672 166.367 42.9204 166.672 43.0973C166.977 43.2707 167.334 43.3575 167.744 43.3575C168.018 43.3575 168.266 43.3193 168.488 43.243C168.71 43.1632 168.902 43.047 169.065 42.8944C169.228 42.7418 169.351 42.5528 169.434 42.3273L171.193 42.525C171.082 42.9898 170.87 43.3956 170.558 43.7425C170.25 44.0859 169.854 44.3529 169.372 44.5437C168.89 44.731 168.338 44.8247 167.718 44.8247ZM172.864 44.6686V36.677H174.691V38.0089H174.774C174.92 37.5476 175.169 37.1921 175.523 36.9423C175.88 36.6891 176.288 36.5625 176.746 36.5625C176.85 36.5625 176.966 36.5677 177.094 36.5781C177.226 36.5851 177.335 36.5972 177.422 36.6146V38.3471C177.342 38.3194 177.216 38.2951 177.042 38.2743C176.872 38.25 176.708 38.2379 176.548 38.2379C176.205 38.2379 175.896 38.3124 175.622 38.4616C175.351 38.6073 175.138 38.8102 174.982 39.0703C174.826 39.3304 174.748 39.6305 174.748 39.9704V44.6686H172.864ZM184.99 38.7894L183.273 38.9767C183.224 38.8032 183.139 38.6402 183.018 38.4876C182.9 38.335 182.74 38.2118 182.539 38.1182C182.338 38.0245 182.092 37.9777 181.8 37.9777C181.408 37.9777 181.079 38.0627 180.812 38.2326C180.548 38.4026 180.418 38.6229 180.422 38.8934C180.418 39.1258 180.503 39.3148 180.677 39.4605C180.853 39.6062 181.145 39.7259 181.551 39.8195L182.914 40.1109C183.67 40.2739 184.232 40.5323 184.6 40.8861C184.971 41.2399 185.158 41.703 185.161 42.2753C185.158 42.7782 185.011 43.2222 184.719 43.6072C184.431 43.9887 184.031 44.287 183.517 44.5021C183.004 44.7171 182.414 44.8247 181.748 44.8247C180.77 44.8247 179.983 44.62 179.386 44.2107C178.79 43.798 178.434 43.2239 178.32 42.4886L180.156 42.3117C180.24 42.6724 180.416 42.9447 180.687 43.1285C180.958 43.3124 181.31 43.4043 181.743 43.4043C182.191 43.4043 182.55 43.3124 182.82 43.1285C183.094 42.9447 183.231 42.7175 183.231 42.447C183.231 42.218 183.143 42.029 182.966 41.8798C182.792 41.7307 182.522 41.6162 182.154 41.5365L180.791 41.2503C180.024 41.0907 179.457 40.8219 179.09 40.4439C178.722 40.0623 178.54 39.5802 178.543 38.9975C178.54 38.5049 178.673 38.0783 178.944 37.7176C179.218 37.3534 179.598 37.0724 180.083 36.8747C180.572 36.6735 181.136 36.5729 181.774 36.5729C182.711 36.5729 183.448 36.7724 183.986 37.1713C184.527 37.5702 184.861 38.1095 184.99 38.7894Z" fill="#8A8A8A"/>
<path d="M114.803 73.5499C113.763 73.5499 112.831 73.3548 112.009 72.9646C111.187 72.5692 110.534 72.0281 110.05 71.3413C109.572 70.6546 109.317 69.8689 109.286 68.9844H112.095C112.147 69.64 112.431 70.1759 112.946 70.5921C113.461 71.0031 114.08 71.2087 114.803 71.2087C115.37 71.2087 115.875 71.0786 116.317 70.8184C116.759 70.5583 117.108 70.1967 117.363 69.7336C117.618 69.2706 117.743 68.7425 117.738 68.1494C117.743 67.5458 117.615 67.01 117.355 66.5417C117.095 66.0734 116.739 65.7066 116.286 65.4413C115.833 65.1707 115.313 65.0355 114.725 65.0355C114.246 65.0303 113.776 65.1187 113.313 65.3008C112.85 65.4829 112.483 65.7222 112.212 66.0188L109.598 65.5896L110.433 57.3482H119.704V59.7676H112.829L112.368 64.0053H112.462C112.758 63.6567 113.177 63.368 113.718 63.139C114.26 62.9049 114.853 62.7878 115.498 62.7878C116.466 62.7878 117.329 63.0168 118.089 63.4746C118.848 63.9273 119.447 64.5516 119.884 65.3476C120.321 66.1437 120.539 67.0542 120.539 68.0791C120.539 69.1353 120.295 70.077 119.806 70.9043C119.322 71.7263 118.648 72.3741 117.784 72.8476C116.926 73.3158 115.932 73.5499 114.803 73.5499ZM128.89 73.5499C127.766 73.5499 126.767 73.3574 125.893 72.9724C125.024 72.5874 124.337 72.0515 123.833 71.3647C123.328 70.678 123.06 69.8845 123.029 68.9844H125.963C125.989 69.4163 126.132 69.7935 126.393 70.1161C126.653 70.4334 126.999 70.6806 127.431 70.8575C127.862 71.0344 128.346 71.1228 128.882 71.1228C129.454 71.1228 129.962 71.024 130.404 70.8262C130.846 70.6233 131.192 70.3424 131.442 69.9834C131.692 69.6244 131.814 69.2108 131.809 68.7425C131.814 68.2586 131.689 67.832 131.434 67.4626C131.179 67.0932 130.81 66.8044 130.326 66.5963C129.847 66.3882 129.27 66.2842 128.593 66.2842H127.181V64.0521H128.593C129.15 64.0521 129.637 63.9559 130.053 63.7634C130.474 63.5709 130.805 63.3003 131.044 62.9517C131.283 62.5979 131.4 62.1895 131.395 61.7265C131.4 61.2738 131.299 60.881 131.091 60.548C130.888 60.2098 130.599 59.9471 130.224 59.7598C129.855 59.5725 129.421 59.4788 128.921 59.4788C128.432 59.4788 127.979 59.5673 127.563 59.7442C127.147 59.9211 126.811 60.1734 126.556 60.5012C126.302 60.8238 126.166 61.2088 126.151 61.6562H123.364C123.385 60.7613 123.643 59.9757 124.137 59.2993C124.637 58.6177 125.303 58.0871 126.135 57.7072C126.967 57.3222 127.901 57.1297 128.937 57.1297C130.003 57.1297 130.929 57.33 131.715 57.7307C132.506 58.1261 133.117 58.6594 133.549 59.3305C133.981 60.0017 134.197 60.7431 134.197 61.5548C134.202 62.4549 133.937 63.2093 133.401 63.818C132.87 64.4267 132.173 64.8248 131.309 65.0121V65.1369C132.433 65.293 133.294 65.7092 133.892 66.3856C134.496 67.0568 134.795 67.8918 134.79 68.8908C134.79 69.7857 134.535 70.5869 134.025 71.2945C133.52 71.9969 132.823 72.5484 131.934 72.949C131.049 73.3496 130.035 73.5499 128.89 73.5499ZM143.377 73.6358C142.092 73.6358 140.989 73.3106 140.068 72.6603C139.152 72.0047 138.447 71.0604 137.953 69.8273C137.464 68.589 137.219 67.0984 137.219 65.3554C137.224 63.6125 137.471 62.1297 137.96 60.907C138.455 59.6791 139.16 58.7426 140.075 58.0975C140.996 57.4523 142.097 57.1297 143.377 57.1297C144.657 57.1297 145.757 57.4523 146.678 58.0975C147.599 58.7426 148.304 59.6791 148.793 60.907C149.287 62.1349 149.534 63.6177 149.534 65.3554C149.534 67.1036 149.287 68.5968 148.793 69.8351C148.304 71.0682 147.599 72.0099 146.678 72.6603C145.762 73.3106 144.662 73.6358 143.377 73.6358ZM143.377 71.193C144.376 71.193 145.164 70.7014 145.741 69.718C146.324 68.7295 146.615 67.2753 146.615 65.3554C146.615 64.0859 146.483 63.0194 146.217 62.1557C145.952 61.292 145.577 60.6417 145.094 60.2046C144.61 59.7624 144.037 59.5413 143.377 59.5413C142.383 59.5413 141.597 60.0355 141.02 61.0241C140.442 62.0074 140.151 63.4512 140.146 65.3554C140.14 66.6301 140.268 67.7019 140.528 68.5708C140.793 69.4397 141.168 70.0952 141.652 70.5375C142.136 70.9745 142.711 71.193 143.377 71.193ZM157.98 73.5499C157.216 73.5447 156.469 73.4121 155.741 73.1519C155.012 72.8866 154.357 72.4573 153.774 71.8642C153.191 71.2659 152.728 70.4725 152.385 69.4839C152.041 68.4902 151.872 67.2597 151.877 65.7925C151.877 64.4241 152.023 63.2041 152.314 62.1323C152.606 61.0605 153.025 60.1552 153.571 59.4164C154.117 58.6724 154.775 58.1053 155.545 57.7151C156.321 57.3248 157.187 57.1297 158.144 57.1297C159.148 57.1297 160.038 57.3274 160.813 57.7229C161.594 58.1183 162.223 58.6594 162.702 59.3461C163.181 60.0277 163.477 60.7977 163.592 61.6562H160.743C160.597 61.0423 160.298 60.5532 159.846 60.189C159.398 59.8196 158.831 59.6349 158.144 59.6349C157.036 59.6349 156.183 60.1162 155.584 61.0787C154.991 62.0412 154.692 63.3628 154.687 65.0433H154.796C155.051 64.5854 155.382 64.1926 155.787 63.8648C156.193 63.537 156.651 63.2847 157.161 63.1078C157.676 62.9257 158.22 62.8347 158.792 62.8347C159.729 62.8347 160.569 63.0584 161.313 63.5058C162.062 63.9533 162.655 64.5698 163.092 65.3554C163.529 66.1359 163.745 67.0308 163.74 68.0401C163.745 69.0911 163.506 70.0354 163.022 70.8731C162.538 71.7055 161.864 72.3611 161.001 72.8398C160.137 73.3184 159.13 73.5551 157.98 73.5499ZM157.965 71.2087C158.532 71.2087 159.039 71.0708 159.487 70.795C159.934 70.5193 160.288 70.1473 160.548 69.679C160.808 69.2108 160.936 68.6853 160.93 68.1026C160.936 67.5302 160.811 67.0126 160.556 66.5495C160.306 66.0864 159.96 65.7196 159.518 65.4491C159.076 65.1785 158.571 65.0433 158.004 65.0433C157.582 65.0433 157.19 65.1239 156.825 65.2852C156.461 65.4465 156.144 65.6702 155.873 65.9564C155.603 66.2373 155.389 66.5651 155.233 66.9397C155.082 67.3091 155.004 67.7045 154.999 68.126C155.004 68.6827 155.134 69.1952 155.389 69.6634C155.644 70.1317 155.996 70.5063 156.443 70.7872C156.89 71.0682 157.398 71.2087 157.965 71.2087Z" fill="#1E1E1E"/>
</g>
<defs>
<filter id="filter0_dddd_3001_2204" x="0.872066" y="0.802314" width="204.001" height="125.558" filterUnits="userSpaceOnUse" color-interpolation-filters="sRGB">
<feFlood flood-opacity="0" result="BackgroundImageFix"/>
<feColorMatrix in="SourceAlpha" type="matrix" values="0 0 0 0 0 0 0 0 0 0 0 0 0 0 0 0 0 0 127 0" result="hardAlpha"/>
<feOffset dx="0.732562" dy="1.46512"/>
<feGaussianBlur stdDeviation="1.8314"/>
<feColorMatrix type="matrix" values="0 0 0 0 0 0 0 0 0 0 0 0 0 0 0 0 0 0 0.1 0"/>
<feBlend mode="normal" in2="BackgroundImageFix" result="effect1_dropShadow_3001_2204"/>
<feColorMatrix in="SourceAlpha" type="matrix" values="0 0 0 0 0 0 0 0 0 0 0 0 0 0 0 0 0 0 127 0" result="hardAlpha"/>
<feOffset dx="2.19769" dy="6.59306"/>
<feGaussianBlur stdDeviation="3.29653"/>
<feColorMatrix type="matrix" values="0 0 0 0 0 0 0 0 0 0 0 0 0 0 0 0 0 0 0.09 0"/>
<feBlend mode="normal" in2="effect1_dropShadow_3001_2204" result="effect2_dropShadow_3001_2204"/>
<feColorMatrix in="SourceAlpha" type="matrix" values="0 0 0 0 0 0 0 0 0 0 0 0 0 0 0 0 0 0 127 0" result="hardAlpha"/>
<feOffset dx="4.39537" dy="14.6512"/>
<feGaussianBlur stdDeviation="4.76165"/>
<feColorMatrix type="matrix" values="0 0 0 0 0 0 0 0 0 0 0 0 0 0 0 0 0 0 0.05 0"/>
<feBlend mode="normal" in2="effect2_dropShadow_3001_2204" result="effect3_dropShadow_3001_2204"/>
<feColorMatrix in="SourceAlpha" type="matrix" values="0 0 0 0 0 0 0 0 0 0 0 0 0 0 0 0 0 0 127 0" result="hardAlpha"/>
<feOffset dx="8.05818" dy="26.3722"/>
<feGaussianBlur stdDeviation="5.49422"/>
<feColorMatrix type="matrix" values="0 0 0 0 0 0 0 0 0 0 0 0 0 0 0 0 0 0 0.01 0"/>
<feBlend mode="normal" in2="effect3_dropShadow_3001_2204" result="effect4_dropShadow_3001_2204"/>
<feBlend mode="normal" in="SourceGraphic" in2="effect4_dropShadow_3001_2204" result="shape"/>
</filter>
</defs>
</svg>
