<svg width="47" height="46" viewBox="0 0 47 46" fill="none" xmlns="http://www.w3.org/2000/svg">
<path fill-rule="evenodd" clip-rule="evenodd" d="M7.01428 0.182361C5.67918 0.447904 4.50769 1.48453 4.03661 2.81732C3.86916 3.29099 3.84949 3.59205 3.81504 6.21081C3.79118 8.0235 3.81343 9.35362 3.8753 9.81331C4.00376 10.7679 4.36312 11.5296 4.96978 12.1335C5.84786 13.0075 6.77989 13.3517 8.26837 13.3517H9.12624L9.15295 16.3561C9.17877 19.271 9.18564 19.3727 9.38139 19.77C10.3096 21.6537 12.8308 21.8322 13.9989 20.0969C14.3953 19.5078 14.4762 18.8826 14.4762 16.4065C14.4762 14.3316 14.4822 14.2593 14.6783 13.9658C15.2094 13.1708 16.3246 13.1708 16.8557 13.9658C17.0291 14.2254 17.0577 14.3841 17.0577 15.0844C17.0577 16.5276 17.2527 17.2069 17.8465 17.8325C19.193 19.2512 21.5288 18.7553 22.2334 16.901C22.3718 16.5368 22.3989 16.2106 22.3989 14.9086V13.3517H28.6115C35.42 13.3517 35.396 13.3534 36.3254 12.8193C36.8639 12.5099 37.5123 11.8558 37.8286 11.303C38.1554 10.7318 38.3304 9.88461 38.3319 8.86642L38.3332 7.98629L39.171 8.03017C40.0872 8.07807 40.4401 8.21738 40.7719 8.66221C40.9472 8.89704 40.961 9.04125 40.9849 10.8877C41.0095 12.7949 41.0035 12.8756 40.8068 13.2607C40.6948 13.4799 40.4831 13.7277 40.3362 13.8115C40.1893 13.8953 36.6871 14.9266 32.5535 16.1032C28.4199 17.2798 24.8279 18.3487 24.5713 18.4786C24.3147 18.6085 23.8985 18.9198 23.6466 19.1703C22.7254 20.0867 22.4024 20.9952 22.4002 22.6764L22.3989 23.6779H23.7267H25.0546L25.0842 22.6158C25.1161 21.478 25.1873 21.2792 25.6981 20.903C25.8175 20.8151 29.3001 19.7798 33.4372 18.6023C37.5744 17.425 41.1736 16.3578 41.4355 16.231C42.497 15.7172 43.391 14.481 43.5823 13.2627C43.6925 12.5605 43.6982 9.7096 43.5911 8.87924C43.4468 7.76009 42.7718 6.68163 41.8217 6.05226C41.157 5.61198 40.4176 5.42904 39.3031 5.42904H38.3332L38.3319 4.56111C38.3312 4.08379 38.27 3.43627 38.1961 3.12239C37.8966 1.85182 36.8758 0.741221 35.5864 0.282774C35.2097 0.14889 33.9434 0.134558 21.2861 0.120849C13.6483 0.11257 7.22597 0.140255 7.01428 0.182361Z" fill="url(#paint0_linear_2001_324)"/>
<path opacity="0.4" fill-rule="evenodd" clip-rule="evenodd" d="M17.5361 26.5652C17.198 26.7125 17.0553 27.0721 17.0607 27.7639C17.0692 28.87 17.1002 28.9264 18.427 30.2558L19.639 31.4701L18.8689 35.2519C18.1774 38.6482 18.0989 39.1335 18.0989 40.0129C18.099 40.8445 18.1355 41.0996 18.3411 41.7043C18.737 42.8694 19.3638 43.7736 20.2438 44.4496C21.3471 45.2971 22.3102 45.6202 23.7332 45.6202C25.1562 45.6202 26.1193 45.2971 27.2226 44.4496C28.1109 43.7673 28.7708 42.82 29.135 41.7043C29.3285 41.1117 29.3675 40.8277 29.3673 40.0129C29.3671 39.1342 29.2882 38.6461 28.5977 35.2541L27.8283 31.4745L29.0745 30.2177L30.3206 28.9608V28.1414C30.3206 27.2407 30.1961 26.8146 29.8651 26.5828C29.6784 26.452 29.0702 26.4379 23.7356 26.441C18.9524 26.4439 17.7601 26.4677 17.5361 26.5652Z" fill="url(#paint1_linear_2001_324)"/>
<defs>
<linearGradient id="paint0_linear_2001_324" x1="43.6683" y1="11.6583" x2="3.80566" y2="11.6583" gradientUnits="userSpaceOnUse">
<stop stop-color="#1292C8"/>
<stop offset="1" stop-color="#52BD8C"/>
</linearGradient>
<linearGradient id="paint1_linear_2001_324" x1="30.3206" y1="35.8347" x2="17.0605" y2="35.8347" gradientUnits="userSpaceOnUse">
<stop stop-color="#1292C8"/>
<stop offset="1" stop-color="#52BD8C"/>
</linearGradient>
</defs>
</svg>
