<svg width="40" height="40" viewBox="0 0 40 40" fill="none" xmlns="http://www.w3.org/2000/svg">
<path opacity="0.4" fill-rule="evenodd" clip-rule="evenodd" d="M16.9142 8.40148C16.2801 8.56017 15.8054 8.83115 15.3272 9.3075C14.8347 9.79817 14.537 10.3385 14.3999 10.9906C14.3491 11.2321 14.3159 12.266 14.3159 13.6077V15.8258H26.7426H39.1693V13.6077C39.1693 12.2391 39.1366 11.2369 39.0839 10.9906C38.8062 9.69341 37.7632 8.64972 36.4731 8.37844C35.8693 8.25138 17.427 8.27315 16.9142 8.40148ZM29.5311 11.082C29.8653 11.2525 30.1317 11.6864 30.1317 12.0601C30.1317 12.6357 29.5749 13.1898 28.9964 13.1898C28.6461 13.1898 28.1808 12.8969 28.0152 12.5721C27.737 12.0269 27.9116 11.4317 28.4441 11.1093C28.8047 10.891 29.1402 10.8826 29.5311 11.082ZM34.0499 11.082C34.3841 11.2525 34.6505 11.6864 34.6505 12.0601C34.6505 12.6357 34.0937 13.1898 33.5152 13.1898C33.1649 13.1898 32.6996 12.8969 32.5339 12.5721C32.2558 12.0269 32.4304 11.4317 32.9629 11.1093C33.3235 10.891 33.659 10.8826 34.0499 11.082Z" fill="url(#paint0_linear_172_511)"/>
<path fill-rule="evenodd" clip-rule="evenodd" d="M3.20914 0.718724C2.57501 0.877409 2.10031 1.14839 1.62214 1.62474C1.12967 2.11541 0.831959 2.6557 0.694813 3.30784C0.637726 3.57927 0.61084 5.38091 0.61084 8.9375V14.1681H6.33464H12.0584V12.6586C12.0584 10.9897 12.1496 10.3394 12.5017 9.49723C13.0468 8.19363 14.192 7.04676 15.5062 6.48847C16.5033 6.0649 16.8446 6.03425 20.5657 6.03425H23.9579V4.87059C23.9579 4.23058 23.9195 3.52738 23.8725 3.30784C23.5949 2.01065 22.5518 0.966956 21.2618 0.695678C20.6591 0.568851 3.7215 0.590541 3.20914 0.718724ZM6.78848 6.78836C6.97985 6.88597 7.13982 7.04593 7.23742 7.2373C7.37638 7.50979 7.38902 7.67924 7.38902 9.27272C7.38902 10.8662 7.37638 11.0356 7.23742 11.3081C7.06601 11.6441 6.63258 11.9087 6.25376 11.9087C5.90347 11.9087 5.43819 11.6158 5.2725 11.291C5.14401 11.0391 5.12993 10.8343 5.13279 9.2569C5.13633 7.26916 5.16661 7.1394 5.70148 6.81563C6.06208 6.59737 6.39753 6.58893 6.78848 6.78836ZM0.61084 26.2521C0.61084 33.2915 0.635093 36.1899 0.696247 36.4759C0.973174 37.7698 2.01309 38.8097 3.30697 39.0866C3.58051 39.1452 5.19726 39.172 8.44619 39.172H13.1863L12.9245 38.7628C12.6563 38.3435 12.4339 37.842 12.2209 37.1762C12.1135 36.8403 12.098 35.7009 12.0776 26.6136L12.0548 16.4275H6.33283H0.61084V26.2521ZM14.3178 27.0806C14.3178 33.5024 14.3423 36.191 14.4032 36.4759C14.6802 37.7698 15.7201 38.8097 17.014 39.0866C17.5739 39.2065 35.9064 39.2077 36.475 39.088C37.7531 38.8188 38.8204 37.7517 39.0876 36.4759C39.1461 36.1964 39.1712 33.3805 39.1712 27.0806V18.0844H26.7445H14.3178V27.0806ZM6.78848 18.8385C6.97985 18.9361 7.13982 19.096 7.23742 19.2874C7.3824 19.5716 7.38902 19.726 7.38902 22.8291C7.38902 25.9321 7.3824 26.0865 7.23742 26.3708C7.06601 26.7067 6.63258 26.9713 6.25376 26.9713C5.90347 26.9713 5.43819 26.6784 5.2725 26.3536C5.13859 26.0911 5.12986 25.8693 5.13279 22.8133C5.13633 19.1438 5.12624 19.214 5.70148 18.8657C6.06208 18.6475 6.39753 18.639 6.78848 18.8385ZM28.5144 20.5647C31.0239 21.2193 32.9906 23.1977 33.6851 25.7663C33.8284 26.2959 33.8583 26.5951 33.8583 27.4985C33.8583 28.4019 33.8284 28.7011 33.6851 29.2307C32.9911 31.7976 31.0515 33.751 28.5144 34.4384C27.6227 34.68 25.9101 34.6795 25.0123 34.4376C22.4389 33.7438 20.5044 31.8191 19.8008 29.2521C19.5692 28.4072 19.5692 26.5899 19.8008 25.7449C20.579 22.9058 22.8656 20.8669 25.8031 20.3927C26.3251 20.3084 27.9198 20.4096 28.5144 20.5647ZM25.6901 22.7203C24.3382 23.0106 23.0021 24.0598 22.3865 25.3144C22.0329 26.035 21.8518 26.7749 21.8518 27.4985C21.8518 29.2991 22.9502 31.0664 24.5604 31.8565C26.0107 32.5681 27.4784 32.5681 28.9286 31.8565C30.1999 31.2328 31.2375 29.8983 31.527 28.5152C31.7574 27.4139 31.6184 26.3658 31.1025 25.3144C30.6618 24.4162 29.8269 23.5812 28.9286 23.1405C27.8811 22.6265 26.7874 22.4846 25.6901 22.7203Z" fill="url(#paint1_linear_172_511)"/>
<defs>
<linearGradient id="paint0_linear_172_511" x1="39.1693" y1="11.9828" x2="14.3159" y2="11.9828" gradientUnits="userSpaceOnUse">
<stop stop-color="#1292C8"/>
<stop offset="1" stop-color="#52BD8C"/>
</linearGradient>
<linearGradient id="paint1_linear_172_511" x1="39.1712" y1="19.5005" x2="0.610839" y2="19.5005" gradientUnits="userSpaceOnUse">
<stop stop-color="#1292C8"/>
<stop offset="1" stop-color="#52BD8C"/>
</linearGradient>
</defs>
</svg>
