<svg width="40" height="40" viewBox="0 0 40 40" fill="none" xmlns="http://www.w3.org/2000/svg">
<path d="M0 18.7685H9.70182C9.53596 25.8392 7.5305 26.6418 5.01172 26.8709L4.0404 26.9913V34.7663L5.16 34.7063C8.44909 34.5212 12.0855 33.9283 14.5115 30.9334C16.6382 28.3079 17.5758 24.0186 17.5758 17.4342V5.23315H0V18.7685Z" fill="white"/>
<path d="M22.4243 5.2334V18.7688H31.9966C31.8308 25.8395 29.8902 26.6421 27.3714 26.8712L26.4647 26.9916V34.7665L27.5197 34.7065C30.8088 34.5215 34.4776 33.9286 36.9037 30.9336C39.0302 28.3081 40.0001 24.0189 40.0001 17.4344V5.2334H22.4243Z" fill="white"/>
</svg>
