<svg width="183" height="1097" viewBox="0 0 183 1097" fill="none" xmlns="http://www.w3.org/2000/svg">
<path d="M3 89.6579L75.4249 27.0138L3 27.0138L3 0.465795L164.85 0.465802L164.85 27.0138L91.0277 27.0138L164.85 89.8907L164.85 123.192L83.8085 52.8632L2.99999 124.357L3 89.6579ZM133.411 214.204C133.411 223.984 131.315 232.679 127.124 240.286C122.932 248.048 116.722 254.103 108.493 258.45C100.265 262.953 90.329 265.204 78.6852 265.204L2.99999 265.204L2.99999 238.889L74.7262 238.889C86.2149 238.889 94.9866 236.016 101.041 230.272C107.251 224.528 110.356 216.688 110.356 206.752C110.356 196.815 107.251 188.898 101.041 182.998C94.9866 177.254 86.2149 174.382 74.7262 174.382L2.99999 174.382L2.99999 147.834L175.329 147.834L175.329 174.382L116.411 174.382C121.845 178.884 126.037 184.551 128.987 191.382C131.936 198.368 133.411 205.975 133.411 214.204ZM148.315 312.574C148.315 307.762 149.946 303.725 153.206 300.465C156.466 297.204 160.503 295.574 165.316 295.574C170.128 295.574 174.165 297.204 177.425 300.465C180.685 303.725 182.316 307.762 182.316 312.574C182.316 317.232 180.685 321.191 177.425 324.451C174.165 327.711 170.128 329.341 165.316 329.341C160.503 329.341 156.466 327.711 153.206 324.451C149.946 321.191 148.315 317.232 148.315 312.574ZM131.315 325.615L2.99999 325.615L2.99999 299.067L131.315 299.067L131.315 325.615ZM67.7399 351.621C80.6258 351.621 92.0368 354.261 101.973 359.539C111.909 364.973 119.594 372.27 125.028 381.43C130.617 390.745 133.411 401.069 133.411 412.402C133.411 420.786 131.548 429.014 127.822 437.087C124.251 445.316 119.439 451.836 113.384 456.649L175.329 456.649L175.329 483.43L2.99998 483.43L2.99998 456.649L22.3288 456.649C16.1187 452.302 10.9954 446.247 6.9589 438.485C2.92235 430.877 0.904084 422.106 0.904084 412.169C0.904085 400.991 3.69861 390.745 9.28767 381.43C15.032 372.27 22.9498 364.973 33.0412 359.539C43.2878 354.261 54.854 351.621 67.7399 351.621ZM67.2742 456.649C76.1235 456.649 83.8084 454.786 90.329 451.06C96.8496 447.489 101.818 442.754 105.233 436.854C108.649 430.955 110.356 424.59 110.356 417.758C110.356 410.927 108.649 404.562 105.233 398.663C101.973 392.763 97.0825 387.95 90.5619 384.224C84.1966 380.653 76.5892 378.868 67.7399 378.868C58.8906 378.868 51.128 380.653 44.4522 384.224C37.7763 387.95 32.653 392.763 29.0823 398.663C25.6667 404.717 23.9589 411.083 23.9589 417.758C23.9589 424.59 25.6667 430.955 29.0823 436.854C32.4978 442.754 37.4658 447.489 43.9864 451.06C50.6622 454.786 58.4248 456.649 67.2742 456.649ZM133.411 673.629C133.411 683.72 131.315 692.725 127.124 700.643C122.932 708.716 116.722 715.003 108.493 719.506C100.265 724.163 90.329 726.492 78.6851 726.492L2.99997 726.492L2.99997 700.177L74.7262 700.177C86.2148 700.177 94.9866 697.305 101.041 691.56C107.251 685.816 110.356 677.976 110.356 668.04C110.356 658.104 107.251 650.186 101.041 644.286C94.9866 638.542 86.2148 635.67 74.7262 635.67L2.99997 635.67L2.99997 609.355L74.7262 609.355C86.2148 609.355 94.9866 606.483 101.041 600.738C107.251 594.994 110.356 587.154 110.356 577.218C110.356 567.282 107.251 559.364 101.041 553.464C94.9866 547.72 86.2148 544.848 74.7262 544.848L2.99998 544.848L2.99998 518.3L131.315 518.3L131.315 544.848L116.644 544.848C121.923 549.195 126.037 554.706 128.987 561.382C131.936 568.058 133.411 575.199 133.411 582.807C133.411 593.053 131.238 602.213 126.891 610.286C122.544 618.359 116.256 624.569 108.028 628.916C115.79 632.798 121.923 638.853 126.425 647.081C131.083 655.309 133.411 664.159 133.411 673.629ZM67.7399 751.425C80.6258 751.425 92.0368 754.064 101.973 759.342C111.909 764.776 119.594 772.073 125.028 781.233C130.617 790.548 133.411 800.795 133.411 811.973C133.411 822.064 131.393 830.836 127.357 838.288C123.475 845.895 118.585 851.95 112.685 856.452L131.315 856.452L131.315 883.233L2.99996 883.233L2.99996 856.452L22.0959 856.452C16.0411 851.95 10.9954 845.817 6.95888 838.055C2.92234 830.292 0.904067 821.443 0.904067 811.507C0.904067 800.484 3.6986 790.393 9.28766 781.233C15.032 772.073 22.9498 764.776 33.0412 759.342C43.2878 754.064 54.854 751.424 67.7399 751.425ZM67.2741 856.452C76.1235 856.452 83.8084 854.589 90.329 850.863C96.8496 847.292 101.818 842.557 105.233 836.658C108.649 830.758 110.356 824.393 110.356 817.562C110.356 810.731 108.649 804.365 105.233 798.466C101.973 792.566 97.0824 787.753 90.5619 784.027C84.1966 780.457 76.5892 778.671 67.7399 778.671C58.8905 778.671 51.128 780.457 44.4521 784.027C37.7763 787.753 32.653 792.566 29.0822 798.466C25.6667 804.521 23.9589 810.886 23.9589 817.562C23.9589 824.393 25.6667 830.758 29.0822 836.658C32.4978 842.557 37.4658 847.292 43.9864 850.863C50.6622 854.589 58.4248 856.452 67.2741 856.452ZM109.658 949.076L38.6302 949.076C33.8174 949.076 30.3242 950.162 28.1507 952.336C26.1324 954.665 25.1233 958.546 25.1233 963.98L25.1233 980.281L2.99996 980.281L2.99996 959.322C2.99996 947.368 5.79449 938.208 11.3835 931.843C16.9726 925.477 26.0548 922.295 38.6302 922.295L109.658 922.295L109.658 907.158L131.315 907.158L131.315 922.295L163.22 922.295L163.22 949.076L131.315 949.076L131.315 980.281L109.658 980.281L109.658 949.076ZM148.315 1018.26C148.315 1013.44 149.946 1009.41 153.206 1006.15C156.466 1002.89 160.503 1001.26 165.316 1001.26C170.128 1001.26 174.165 1002.89 177.425 1006.15C180.685 1009.41 182.316 1013.44 182.316 1018.26C182.316 1022.91 180.685 1026.87 177.425 1030.13C174.165 1033.39 170.128 1035.02 165.316 1035.02C160.503 1035.02 156.466 1033.39 153.206 1030.13C149.946 1026.87 148.315 1022.91 148.315 1018.26ZM131.315 1031.3L2.99995 1031.3L2.99996 1004.75L131.315 1004.75L131.315 1031.3ZM148.315 1079.66C148.315 1074.85 149.946 1070.81 153.206 1067.55C156.466 1064.29 160.503 1062.66 165.316 1062.66C170.128 1062.66 174.165 1064.29 177.425 1067.55C180.685 1070.81 182.316 1074.85 182.316 1079.66C182.316 1084.32 180.685 1088.28 177.425 1091.54C174.165 1094.8 170.128 1096.43 165.316 1096.43C160.503 1096.43 156.466 1094.8 153.206 1091.54C149.946 1088.28 148.315 1084.32 148.315 1079.66ZM131.315 1092.7L2.99995 1092.7L2.99995 1066.15L131.315 1066.15L131.315 1092.7Z" fill="url(#paint0_linear_785_1844)"/>
<defs>
<linearGradient id="paint0_linear_785_1844" x1="-90.0001" y1="1171.17" x2="488.377" y2="33.0907" gradientUnits="userSpaceOnUse">
<stop stop-color="#E4FFE6"/>
<stop offset="1" stop-color="#E3F9FF"/>
</linearGradient>
</defs>
</svg>
