<svg width="22" height="23" viewBox="0 0 22 23" fill="none" xmlns="http://www.w3.org/2000/svg">
<path d="M3.5 8.90002H3C2.05719 8.90002 1.58579 8.90002 1.29289 9.19292C1 9.48581 1 9.95722 1 10.9L1 19.4C1 20.3428 1 20.8142 1.29289 21.1071C1.58579 21.4 2.05719 21.4 3 21.4H3.5C4.44281 21.4 4.91421 21.4 5.20711 21.1071C5.5 20.8142 5.5 20.3428 5.5 19.4L5.5 10.9C5.5 9.95722 5.5 9.48581 5.20711 9.19292C4.91421 8.90002 4.44281 8.90002 3.5 8.90002Z" stroke="url(#paint0_linear_908_850)" stroke-width="1.5"/>
<path d="M5.5 3.65002C5.5 4.89267 4.49264 5.90002 3.25 5.90002C2.00736 5.90002 1 4.89267 1 3.65002C1 2.40738 2.00736 1.40002 3.25 1.40002C4.49264 1.40002 5.5 2.40738 5.5 3.65002Z" stroke="url(#paint1_linear_908_850)" stroke-width="1.5"/>
<path d="M11.326 8.90002H10.5C9.55719 8.90002 9.08579 8.90002 8.79289 9.19292C8.5 9.48581 8.5 9.95722 8.5 10.9L8.5 19.4C8.5 20.3428 8.5 20.8142 8.79289 21.1071C9.08579 21.4 9.55719 21.4 10.5 21.4H11C11.9428 21.4 12.4142 21.4 12.7071 21.1071C13 20.8142 13 20.3428 13 19.4L13.0001 15.9001C13.0001 14.2433 13.5281 12.9001 15.0879 12.9001C15.8677 12.9001 16.5 13.5717 16.5 14.4001L16.5 18.9001C16.5 19.843 16.5 20.3144 16.7929 20.6073C17.0857 20.9001 17.5572 20.9001 18.5 20.9001H18.9987C19.9413 20.9001 20.4126 20.9001 20.7055 20.6073C20.9984 20.3145 20.9985 19.8432 20.9987 18.9006L21.0001 13.4003C21.0001 10.915 18.6364 8.90026 16.2968 8.90026C14.9649 8.90026 13.7767 9.55311 13.0001 10.574C13 9.94396 13 9.62896 12.8632 9.39502C12.7765 9.24689 12.6531 9.12356 12.505 9.03689C12.2711 8.90002 11.9561 8.90002 11.326 8.90002Z" stroke="url(#paint2_linear_908_850)" stroke-width="1.5" stroke-linejoin="round"/>
<defs>
<linearGradient id="paint0_linear_908_850" x1="4.89189" y1="21.4" x2="-2.96696" y2="14.0564" gradientUnits="userSpaceOnUse">
<stop stop-color="#1292C8"/>
<stop offset="1" stop-color="#52BD8C"/>
</linearGradient>
<linearGradient id="paint1_linear_908_850" x1="4.89189" y1="5.90002" x2="2.98934" y2="0.961609" gradientUnits="userSpaceOnUse">
<stop stop-color="#1292C8"/>
<stop offset="1" stop-color="#52BD8C"/>
</linearGradient>
<linearGradient id="paint2_linear_908_850" x1="19.3109" y1="21.4" x2="14.026" y2="7.68219" gradientUnits="userSpaceOnUse">
<stop stop-color="#1292C8"/>
<stop offset="1" stop-color="#52BD8C"/>
</linearGradient>
</defs>
</svg>
