<svg width="128" height="39" viewBox="0 0 128 39" fill="none" xmlns="http://www.w3.org/2000/svg">
<path fill-rule="evenodd" clip-rule="evenodd" d="M55.8331 15.2534C55.8331 15.576 55.6357 15.8865 55.2437 16.1826C54.5622 16.4185 53.4644 16.806 51.9502 17.3452C51.9502 17.0564 52.1178 16.7747 52.4504 16.5051C53.0778 16.2788 54.2053 15.86 55.8331 15.2534Z" fill="url(#paint0_linear_499_5249)"/>
<path fill-rule="evenodd" clip-rule="evenodd" d="M58.7484 12.9431H57.1233C56.5771 12.9431 56.0985 12.5291 55.6821 11.6986C55.3711 11.0776 55.1223 10.2808 54.9331 9.30111C54.7059 9.67903 54.4193 9.9727 54.0705 10.1797C53.7217 10.3891 53.3539 10.4926 52.97 10.4926C52.0993 10.4926 51.3746 10.4397 50.796 10.3362C50.2173 10.2327 49.928 10.0979 49.928 9.93659C49.928 9.35648 50.3525 8.71378 51.2016 8.0109C52.0506 7.30561 53.1106 6.69179 54.3814 6.16463C54.3652 6.11168 54.3355 5.96966 54.2841 5.74098C54.2354 5.51231 54.2111 5.37029 54.2111 5.31733C54.2111 5.08865 54.2976 4.83109 54.4734 4.54946C54.6167 4.32078 54.806 4.08488 55.0412 3.84177C55.1169 4.2606 55.1953 4.665 55.2738 5.05495C55.3522 5.44491 55.4468 5.85171 55.5523 6.26814L55.893 8.00608C56.0823 8.96412 56.2526 9.67181 56.404 10.1292C56.6393 10.8296 56.8799 11.1811 57.1314 11.1811H58.7565V12.9431H58.7484ZM54.7843 8.42251L54.568 7.32005C53.9082 7.52947 53.3918 7.74611 53.0132 7.97238C52.6347 8.19865 52.3156 8.49714 52.0587 8.86783C52.2183 8.92801 52.4021 8.97615 52.6157 9.00985C52.8267 9.04355 53.1187 9.0604 53.4891 9.0604C53.9434 9.0604 54.3733 8.84857 54.7843 8.42251ZM55.8497 0.849717L55.0088 2.31565L53.1457 1.46594L54.0083 0L55.8497 0.849717ZM53.262 1.7909L51.4233 0.921927L50.5364 2.37824L52.4102 3.23758L53.262 1.7909Z" fill="url(#paint1_linear_499_5249)"/>
<path fill-rule="evenodd" clip-rule="evenodd" d="M65.2025 3.18677C65.2025 3.49729 65.0051 3.80299 64.613 4.10629C63.9316 4.34219 62.8338 4.73214 61.3196 5.27856C61.3196 4.98248 61.4872 4.69844 61.8198 4.42884C62.4471 4.19294 63.5747 3.77892 65.2025 3.18677Z" fill="url(#paint2_linear_499_5249)"/>
<path fill-rule="evenodd" clip-rule="evenodd" d="M67.9119 12.9428H66.7303C66.2219 12.9428 65.6514 12.8417 65.0159 12.6395C64.2805 12.4036 63.6342 12.0811 63.0745 11.6695C62.6364 12.1485 62.1876 12.4807 61.7279 12.666C61.2709 12.8514 60.6003 12.9452 59.7242 12.9452H57.9531V11.1856H59.6918C60.3813 11.1856 60.9951 11.0316 61.5332 10.7211C61.9496 10.4779 62.3282 10.1385 62.6689 9.70044C63.1313 9.10829 63.6991 8.59076 64.3724 8.15267C64.9781 7.76271 65.5351 7.51237 66.0435 7.40405C66.5653 8.11175 66.9817 8.74963 67.2927 9.31531C67.7091 10.0832 67.9173 10.7066 67.9173 11.1856V12.9428H67.9119ZM66.6059 10.9497C66.5085 10.5598 66.3571 10.1746 66.1516 9.79673C65.9786 9.47899 65.746 9.15403 65.4594 8.81703C65.0971 8.89887 64.7888 9.05052 64.54 9.27198C64.3724 9.414 64.1777 9.6523 63.9506 9.9893C64.2237 10.2517 64.6076 10.4876 65.1025 10.697C65.5973 10.9064 66.0651 11.034 66.5058 11.0821L66.6059 10.9497Z" fill="url(#paint3_linear_499_5249)"/>
<path fill-rule="evenodd" clip-rule="evenodd" d="M75.8023 12.9429H70.7161C70.2834 12.9429 69.8968 12.8322 69.5506 12.6083C69.2072 12.3868 69.0342 12.1221 69.0342 11.8188C69.0342 11.5636 69.0504 11.3301 69.0801 11.1207C69.1099 10.9113 69.1667 10.6826 69.2505 10.4323H69.5128C69.5966 10.7091 69.748 10.9065 69.9671 11.0292C70.1482 11.1303 70.3997 11.1809 70.7161 11.1809H75.1127C75.1127 9.97491 74.9235 9.00244 74.5449 8.26826C74.0744 7.35115 73.293 6.74215 72.1924 6.43885L72.3628 4.47705C73.6715 5.04995 74.599 5.96465 75.1452 7.21635C75.5832 8.22734 75.805 9.54885 75.805 11.1809V12.9429H75.8023Z" fill="url(#paint4_linear_499_5249)"/>
<path fill-rule="evenodd" clip-rule="evenodd" d="M84.587 15.2534C84.587 15.576 84.3896 15.8865 83.9976 16.1826C83.3162 16.4185 82.2183 16.806 80.7041 17.3452C80.7041 17.0564 80.8717 16.7747 81.2043 16.5051C81.8317 16.2788 82.9592 15.86 84.587 15.2534Z" fill="url(#paint5_linear_499_5249)"/>
<path fill-rule="evenodd" clip-rule="evenodd" d="M88.1945 12.9428H75.0747V11.1832H84.3305C83.5571 10.6512 82.9082 10.2372 82.3782 9.93869C81.7184 9.56799 81.1181 9.2984 80.5719 9.1299C79.9581 8.94214 79.3389 8.84586 78.7089 8.84586C78.3222 8.84586 77.9328 8.86993 77.538 8.91567C77.7571 8.41739 78.0464 8.0154 78.4006 7.71211C78.9144 7.27401 79.566 7.05496 80.3529 7.05496C81.1262 7.05496 82.0375 7.39196 83.0893 8.06595C83.6112 8.40295 84.463 9.04324 85.6446 9.98683C86.5613 10.721 87.1832 11.1182 87.5076 11.1808H88.1891V12.9428H88.1945ZM82.7649 3.52853L81.8779 4.99446L80.0365 4.14475L80.8775 2.66919L82.7649 3.52853Z" fill="url(#paint6_linear_499_5249)"/>
<path fill-rule="evenodd" clip-rule="evenodd" d="M50.7629 38.7571V18.9802H52.8748V29.4295L58.7992 18.9802H60.8029L56.2493 27.4749L61.7898 38.7571H59.7321L54.8487 28.8687L52.8748 32.0894V38.7571H50.7629Z" fill="url(#paint7_linear_499_5249)"/>
<path fill-rule="evenodd" clip-rule="evenodd" d="M62.4419 38.7571V18.9802H64.4428V26.1342C64.9728 25.6287 65.5569 25.2195 66.1977 24.9017C66.8386 24.584 67.5416 24.4251 68.3095 24.4251C68.8395 24.4251 69.283 24.5431 69.6399 24.779C69.9968 25.0149 70.2699 25.3567 70.4619 25.8044C70.6539 26.2521 70.7512 26.7937 70.7512 27.4268V38.7547H68.7206V27.8168C68.7206 27.085 68.5962 26.5675 68.3501 26.2666C68.104 25.9657 67.7228 25.814 67.2117 25.814C66.7548 25.814 66.2843 25.9392 65.8002 26.192C65.3162 26.4447 64.862 26.7648 64.4428 27.1572V38.7547H62.4419V38.7571Z" fill="url(#paint8_linear_499_5249)"/>
<path fill-rule="evenodd" clip-rule="evenodd" d="M72.9929 38.757V24.644H74.9939V38.757H72.9929ZM72.9929 22.6894V20.2727H74.9939V22.6894H72.9929Z" fill="url(#paint9_linear_499_5249)"/>
<path fill-rule="evenodd" clip-rule="evenodd" d="M80.9398 38.9762C79.5878 38.9762 78.6144 38.5212 78.0195 37.6089C77.4246 36.6966 77.1272 35.1825 77.1272 33.0667V30.455C77.1272 29.2177 77.2272 28.1513 77.43 27.2559C77.6301 26.3604 78.0006 25.6648 78.5414 25.1689C79.0795 24.6731 79.8528 24.4251 80.8587 24.4251C81.4806 24.4251 82.0241 24.5503 82.4919 24.803C82.957 25.0558 83.3464 25.335 83.6573 25.6455V18.9802H85.6583V38.7571H83.6573V37.7558C83.3464 38.0639 82.9678 38.3455 82.519 38.5983C82.0701 38.8486 81.5455 38.9762 80.9398 38.9762ZM81.3535 37.5608C81.7916 37.5608 82.208 37.4717 82.6028 37.2912C82.9949 37.1131 83.3491 36.8916 83.6573 36.6316V26.8154C83.3842 26.5867 83.0435 26.3629 82.6433 26.1438C82.2404 25.9248 81.7943 25.814 81.2995 25.814C80.4207 25.814 79.842 26.1607 79.5581 26.8515C79.2742 27.5423 79.1336 28.5485 79.1336 29.8676V33.2135C79.1336 34.1571 79.193 34.9563 79.312 35.6062C79.431 36.2561 79.65 36.7448 79.9691 37.0721C80.2882 37.3971 80.7478 37.5608 81.3535 37.5608Z" fill="url(#paint10_linear_499_5249)"/>
<path fill-rule="evenodd" clip-rule="evenodd" d="M87.8186 38.7571V24.6442H89.6844V26.0836C90.2143 25.53 90.7984 25.1111 91.4392 24.8271C92.0801 24.5431 92.7372 24.3986 93.4132 24.3986C93.9621 24.3986 94.4704 24.5286 94.9355 24.7886C95.4006 25.0486 95.7359 25.53 95.936 26.2281C96.4849 25.6263 97.0879 25.1689 97.7449 24.8608C98.402 24.5527 99.0969 24.3962 99.8297 24.3962C100.287 24.3962 100.722 24.4949 101.133 24.6899C101.544 24.8849 101.879 25.2195 102.134 25.6913C102.39 26.1631 102.517 26.8058 102.517 27.6194V38.7523H100.652V27.6723C100.652 26.8419 100.5 26.293 100.2 26.0234C99.8973 25.7539 99.5188 25.6215 99.0618 25.6215C98.5507 25.6215 98.037 25.7514 97.5259 26.0114C97.0149 26.2714 96.5281 26.63 96.0712 27.085C96.0901 27.1668 96.1036 27.2511 96.1117 27.3401C96.1198 27.4292 96.1253 27.5231 96.1253 27.6218V38.7547H94.2325V27.6723C94.2325 26.8419 94.081 26.293 93.7809 26.0234C93.478 25.7539 93.0995 25.6215 92.6425 25.6215C92.1477 25.6215 91.6447 25.7514 91.1337 26.0114C90.6226 26.2714 90.1359 26.6228 89.6789 27.0609V38.7571H87.8186Z" fill="url(#paint11_linear_499_5249)"/>
<path fill-rule="evenodd" clip-rule="evenodd" d="M107.285 38.9763C106.644 38.9763 106.087 38.8342 105.611 38.5478C105.135 38.2638 104.765 37.881 104.5 37.3996C104.235 36.9206 104.102 36.3934 104.102 35.8253C104.102 35.108 104.216 34.499 104.445 33.9935C104.675 33.488 105.04 33.0379 105.543 32.6383C106.046 32.2387 106.703 31.8488 107.517 31.4661C108.331 31.0833 109.323 30.6573 110.494 30.1831V29.1817C110.494 28.3199 110.435 27.6387 110.316 27.1429C110.197 26.647 109.997 26.2932 109.713 26.0813C109.429 25.8695 109.031 25.7636 108.52 25.7636C108.099 25.7636 107.725 25.8358 107.396 25.9826C107.066 26.1295 106.801 26.3774 106.601 26.7264C106.4 27.0755 106.298 27.5617 106.298 28.1803V28.669L104.324 28.6449C104.343 27.2127 104.686 26.1511 105.351 25.4579C106.019 24.767 107.112 24.4204 108.629 24.4204C110.054 24.4204 111.057 24.7983 111.633 25.5566C112.209 26.3124 112.498 27.4895 112.498 29.0854V35.9457C112.498 36.1888 112.506 36.5042 112.525 36.8869C112.544 37.2696 112.563 37.6307 112.579 37.9725C112.598 38.3143 112.617 38.5743 112.633 38.7548H110.851C110.813 38.4443 110.759 38.1001 110.686 37.7173C110.613 37.3346 110.567 37.0289 110.548 36.8026C110.329 37.3731 109.94 37.8762 109.383 38.3167C108.826 38.7572 108.126 38.9763 107.285 38.9763ZM107.915 37.4622C108.318 37.4622 108.683 37.3731 109.012 37.1926C109.342 37.0145 109.634 36.7978 109.891 36.5451C110.148 36.2923 110.348 36.0372 110.494 35.7748V31.3794C109.707 31.7381 109.037 32.063 108.477 32.3567C107.92 32.6504 107.466 32.9344 107.12 33.2112C106.771 33.488 106.517 33.801 106.352 34.1524C106.187 34.5014 106.106 34.9131 106.106 35.3848C106.106 36.1335 106.29 36.6678 106.655 36.9832C107.02 37.3033 107.441 37.4622 107.915 37.4622Z" fill="url(#paint12_linear_499_5249)"/>
<path fill-rule="evenodd" clip-rule="evenodd" d="M118.138 38.9274C117.37 38.9274 116.781 38.7926 116.37 38.5254C115.959 38.2558 115.675 37.89 115.521 37.4278C115.367 36.9632 115.288 36.4313 115.288 35.8295V25.8183H113.342V24.646H115.288V20.2747H117.289V24.646H119.923V25.8183H117.289V35.6586C117.289 36.3422 117.376 36.826 117.549 37.1125C117.722 37.3965 118.103 37.5385 118.687 37.5385C118.852 37.5385 119.039 37.5265 119.25 37.5024C119.461 37.4783 119.655 37.4495 119.839 37.4158V38.783C119.566 38.8311 119.282 38.8673 118.99 38.8937C118.698 38.913 118.414 38.9274 118.138 38.9274Z" fill="url(#paint13_linear_499_5249)"/>
<path fill-rule="evenodd" clip-rule="evenodd" d="M121.343 38.757V24.644H123.344V38.757H121.343ZM121.343 22.6894V20.2727H123.344V22.6894H121.343Z" fill="url(#paint14_linear_499_5249)"/>
<path fill-rule="evenodd" clip-rule="evenodd" d="M125.999 38.757V24.644H128V38.757H125.999ZM125.999 22.6894V20.2727H128V22.6894H125.999Z" fill="url(#paint15_linear_499_5249)"/>
<path fill-rule="evenodd" clip-rule="evenodd" d="M11.9988 32.7803L12.4936 31.4708C12.4936 31.4708 10.8091 30.9918 9.76802 31.9884L7.88064 33.7215L5.81208 31.7741C5.81208 31.7741 1.78314 30.1421 0.0742188 34.3546V38.9642H43.9573V34.2486C43.9573 34.2486 42.9487 30.3684 38.1139 31.738L36.2184 33.6709L33.8768 31.5864H31.5351V32.9705H33.2954L36.2779 35.6255L39.0198 32.956C39.0198 32.956 41.5778 32.1954 42.37 34.4003L42.3862 37.5945H31.0728V33.3195C31.0728 33.3195 29.9803 28.5582 24.5967 30.3371L21.9387 32.749L18.1044 29.7425C18.1044 29.7425 14.089 29.3165 12.7397 33.1654L12.7559 37.5921H1.63172V34.6097C1.63172 34.6097 2.07517 32.3278 4.96303 32.9199L7.86712 35.7049L10.9307 32.8862C10.9307 32.8934 11.2255 32.5805 11.9988 32.7803ZM22.0144 34.6193L25.4944 31.4997C28.7744 30.4959 29.5612 33.5843 29.5612 33.5843V37.5993H14.2675V33.3556C15.3436 31.0135 17.5149 31.1194 17.5149 31.1194L22.0144 34.6193Z" fill="url(#paint16_linear_499_5249)"/>
<path fill-rule="evenodd" clip-rule="evenodd" d="M21.9578 17.9136C25.4216 17.9136 28.2284 20.624 28.2284 23.9675C28.2284 27.311 25.4216 30.0214 21.9578 30.0214C18.494 30.0214 15.6873 27.311 15.6873 23.9675C15.6873 20.624 18.494 17.9136 21.9578 17.9136ZM21.9578 19.3506C19.316 19.3506 17.1745 21.4183 17.1745 23.9675C17.1745 26.5166 19.316 28.5843 21.9578 28.5843C24.5996 28.5843 26.7412 26.5166 26.7412 23.9675C26.7412 21.4183 24.5996 19.3506 21.9578 19.3506Z" fill="url(#paint17_linear_499_5249)"/>
<path fill-rule="evenodd" clip-rule="evenodd" d="M36.2481 21.4861C39.2143 21.4861 41.6182 23.768 41.6182 26.582C41.6182 29.3959 39.2143 31.6778 36.2481 31.6778C33.2818 31.6778 30.8779 29.3959 30.8779 26.582C30.8779 23.768 33.2818 21.4861 36.2481 21.4861ZM36.2481 22.7498C34.1227 22.7498 32.4003 24.4661 32.4003 26.582C32.4003 28.7002 34.1227 30.4141 36.2481 30.4141C38.3734 30.4141 40.0958 28.6978 40.0958 26.582C40.0958 24.4661 38.3734 22.7498 36.2481 22.7498Z" fill="url(#paint18_linear_499_5249)"/>
<path fill-rule="evenodd" clip-rule="evenodd" d="M7.87501 21.4861C10.8413 21.4861 13.2451 23.768 13.2451 26.582C13.2451 29.3959 10.8413 31.6778 7.87501 31.6778C4.90873 31.6778 2.50488 29.3959 2.50488 26.582C2.50488 23.768 4.90873 21.4861 7.87501 21.4861ZM7.87501 22.7498C5.74967 22.7498 4.02723 24.4661 4.02723 26.582C4.02723 28.7002 5.74967 30.4141 7.87501 30.4141C10.0003 30.4141 11.7228 28.6978 11.7228 26.582C11.7228 24.4661 10.0003 22.7498 7.87501 22.7498Z" fill="url(#paint19_linear_499_5249)"/>
<path fill-rule="evenodd" clip-rule="evenodd" d="M0.177002 22.0252V16.5466L22.0144 1.95703L43.8032 16.2866L43.8383 21.6039H42.2916L42.2997 16.9751L22.0144 3.69497L1.64797 17.2326V22.0396L0.177002 22.0252Z" fill="url(#paint20_linear_499_5249)"/>
<defs>
<linearGradient id="paint0_linear_499_5249" x1="55.7225" y1="16.3778" x2="52.0638" y2="16.181" gradientUnits="userSpaceOnUse">
<stop stop-color="#52BD8B"/>
<stop offset="1" stop-color="#1191C8"/>
</linearGradient>
<linearGradient id="paint1_linear_499_5249" x1="58.7507" y1="6.52151" x2="50.1161" y2="6.35088" gradientUnits="userSpaceOnUse">
<stop stop-color="#52BD8B"/>
<stop offset="1" stop-color="#1191C8"/>
</linearGradient>
<linearGradient id="paint2_linear_499_5249" x1="65.0916" y1="4.31082" x2="61.4329" y2="4.11402" gradientUnits="userSpaceOnUse">
<stop stop-color="#52BD8B"/>
<stop offset="1" stop-color="#1191C8"/>
</linearGradient>
<linearGradient id="paint3_linear_499_5249" x1="67.9049" y1="10.416" x2="58.158" y2="9.90815" gradientUnits="userSpaceOnUse">
<stop stop-color="#52BD8B"/>
<stop offset="1" stop-color="#1191C8"/>
</linearGradient>
<linearGradient id="paint4_linear_499_5249" x1="75.8052" y1="8.78962" x2="69.1998" y2="8.63649" gradientUnits="userSpaceOnUse">
<stop stop-color="#52BD8B"/>
<stop offset="1" stop-color="#1191C8"/>
</linearGradient>
<linearGradient id="paint5_linear_499_5249" x1="84.4761" y1="16.3778" x2="80.8174" y2="16.181" gradientUnits="userSpaceOnUse">
<stop stop-color="#52BD8B"/>
<stop offset="1" stop-color="#1191C8"/>
</linearGradient>
<linearGradient id="paint6_linear_499_5249" x1="88.1895" y1="8.10552" x2="75.3896" y2="7.63175" gradientUnits="userSpaceOnUse">
<stop stop-color="#52BD8B"/>
<stop offset="1" stop-color="#1191C8"/>
</linearGradient>
<linearGradient id="paint7_linear_499_5249" x1="127.318" y1="35.2144" x2="51.0049" y2="26.6707" gradientUnits="userSpaceOnUse">
<stop stop-color="#52BD8B"/>
<stop offset="1" stop-color="#1191C8"/>
</linearGradient>
<linearGradient id="paint8_linear_499_5249" x1="127.393" y1="34.5415" x2="51.08" y2="25.9978" gradientUnits="userSpaceOnUse">
<stop stop-color="#52BD8B"/>
<stop offset="1" stop-color="#1191C8"/>
</linearGradient>
<linearGradient id="paint9_linear_499_5249" x1="127.426" y1="34.255" x2="51.1125" y2="25.7112" gradientUnits="userSpaceOnUse">
<stop stop-color="#52BD8B"/>
<stop offset="1" stop-color="#1191C8"/>
</linearGradient>
<linearGradient id="paint10_linear_499_5249" x1="123.042" y1="32.5145" x2="55.1561" y2="24.9143" gradientUnits="userSpaceOnUse">
<stop stop-color="#52BD8B"/>
<stop offset="1" stop-color="#1191C8"/>
</linearGradient>
<linearGradient id="paint11_linear_499_5249" x1="127.352" y1="34.5462" x2="51.1676" y2="26.0168" gradientUnits="userSpaceOnUse">
<stop stop-color="#52BD8B"/>
<stop offset="1" stop-color="#1191C8"/>
</linearGradient>
<linearGradient id="paint12_linear_499_5249" x1="126.554" y1="33.3436" x2="55.3163" y2="25.368" gradientUnits="userSpaceOnUse">
<stop stop-color="#52BD8B"/>
<stop offset="1" stop-color="#1191C8"/>
</linearGradient>
<linearGradient id="paint13_linear_499_5249" x1="127.278" y1="30.4596" x2="56.1402" y2="22.4952" gradientUnits="userSpaceOnUse">
<stop stop-color="#52BD8B"/>
<stop offset="1" stop-color="#1191C8"/>
</linearGradient>
<linearGradient id="paint14_linear_499_5249" x1="127.901" y1="30.0076" x2="51.588" y2="21.4638" gradientUnits="userSpaceOnUse">
<stop stop-color="#52BD8B"/>
<stop offset="1" stop-color="#1191C8"/>
</linearGradient>
<linearGradient id="paint15_linear_499_5249" x1="127.947" y1="29.5986" x2="51.6341" y2="21.0548" gradientUnits="userSpaceOnUse">
<stop stop-color="#52BD8B"/>
<stop offset="1" stop-color="#1191C8"/>
</linearGradient>
<linearGradient id="paint16_linear_499_5249" x1="43.5092" y1="37.7214" x2="1.03585" y2="31.8704" gradientUnits="userSpaceOnUse">
<stop stop-color="#52BD8B"/>
<stop offset="1" stop-color="#1191C8"/>
</linearGradient>
<linearGradient id="paint17_linear_499_5249" x1="28.0538" y1="24.1127" x2="15.8654" y2="23.7468" gradientUnits="userSpaceOnUse">
<stop stop-color="#52BD8B"/>
<stop offset="1" stop-color="#1191C8"/>
</linearGradient>
<linearGradient id="paint18_linear_499_5249" x1="41.4694" y1="26.7096" x2="31.0311" y2="26.3907" gradientUnits="userSpaceOnUse">
<stop stop-color="#52BD8B"/>
<stop offset="1" stop-color="#1191C8"/>
</linearGradient>
<linearGradient id="paint19_linear_499_5249" x1="13.0961" y1="26.7096" x2="2.65776" y2="26.3907" gradientUnits="userSpaceOnUse">
<stop stop-color="#52BD8B"/>
<stop offset="1" stop-color="#1191C8"/>
</linearGradient>
<linearGradient id="paint20_linear_499_5249" x1="43.7304" y1="13.621" x2="1.14227" y2="10.9373" gradientUnits="userSpaceOnUse">
<stop stop-color="#52BD8B"/>
<stop offset="1" stop-color="#1191C8"/>
</linearGradient>
</defs>
</svg>
