<svg width="45" height="27" viewBox="0 0 45 27" fill="none" xmlns="http://www.w3.org/2000/svg">
<g clip-path="url(#clip0_243_2445)">
<path fill-rule="evenodd" clip-rule="evenodd" d="M4.89624 0.0012207H45V22.2559H42.1655L42.3633 5.92651V5.73242C42.3633 5.03958 42.0883 4.37507 41.5987 3.88481C41.1092 3.39456 40.445 3.11865 39.7522 3.11768H4.88892V0.0012207H4.89624ZM0 5.28198H40.1038V26.0974H0V5.28198Z" fill="#427D2A"/>
<path fill-rule="evenodd" clip-rule="evenodd" d="M33.5889 8.51489C33.6044 9.29082 33.9168 10.0313 34.4618 10.5838C35.0068 11.1363 35.7429 11.4588 36.5186 11.4849V19.7209C36.1034 19.7213 35.6924 19.8047 35.3099 19.966C34.9274 20.1274 34.5809 20.3636 34.291 20.6608C34.001 20.9579 33.7733 21.31 33.6213 21.6964C33.4693 22.0827 33.396 22.4956 33.4058 22.9106H6.74561C6.75767 22.1091 6.45559 21.3346 5.90398 20.7529C5.35237 20.1712 4.59503 19.8284 3.79395 19.7979V11.5618C4.61147 11.5706 5.3991 11.2547 5.98404 10.6835C6.56897 10.1123 6.90344 9.3324 6.91406 8.51489H33.5889Z" fill="#87CC71"/>
<path fill-rule="evenodd" clip-rule="evenodd" d="M14.7512 12.8841C15.3219 11.8126 16.1975 10.9345 17.2673 10.3607C18.3372 9.7869 19.5531 9.54325 20.7614 9.66056C21.9697 9.77787 23.1161 10.2509 24.0555 11.0197C24.995 11.7886 25.6854 12.8188 26.0393 13.98C26.3933 15.1412 26.3949 16.3813 26.044 17.5435C25.6932 18.7057 25.0055 19.7377 24.0681 20.509C23.1307 21.2804 21.9856 21.7564 20.7776 21.8769C19.5696 21.9974 18.353 21.757 17.2817 21.1861C16.5701 20.8074 15.9402 20.2922 15.4278 19.6699C14.9155 19.0477 14.5308 18.3305 14.2958 17.5595C14.0608 16.7885 13.9801 15.9787 14.0582 15.1765C14.1363 14.3742 14.3718 13.5952 14.7512 12.8841Z" fill="#427D2A"/>
<path d="M20.2226 20.2814C20.1473 20.2824 20.0726 20.2683 20.0028 20.24C19.9331 20.2116 19.8697 20.1696 19.8164 20.1163C19.7632 20.0631 19.7211 19.9997 19.6928 19.9299C19.6644 19.8602 19.6503 19.7854 19.6513 19.7102V19.1535C19.3206 19.1349 18.9935 19.0758 18.6772 18.9777C18.4328 18.8965 18.1953 18.7961 17.9667 18.6774C17.8886 18.6438 17.8187 18.5936 17.7619 18.5304C17.705 18.4672 17.6624 18.3924 17.6371 18.3112C17.5937 18.1579 17.6014 17.9947 17.6591 17.8461C17.7163 17.7043 17.8248 17.5892 17.9631 17.5239C18.0451 17.4921 18.1333 17.4795 18.2209 17.4871C18.3085 17.4947 18.3932 17.5223 18.4684 17.5678C18.6717 17.6707 18.8837 17.7553 19.102 17.8205C19.4259 17.9122 19.7615 17.9554 20.0981 17.9487C20.4211 17.9768 20.7449 17.9039 21.0246 17.7399C21.11 17.6812 21.1797 17.6024 21.2276 17.5105C21.2755 17.4185 21.3001 17.3163 21.2993 17.2126C21.3008 17.1321 21.2845 17.0523 21.2516 16.9789C21.2187 16.9054 21.1699 16.8402 21.1088 16.7878C20.9079 16.6414 20.6739 16.547 20.4277 16.5131L19.3876 16.2861C18.2377 16.0419 17.6628 15.4316 17.6628 14.455C17.6579 14.2055 17.7034 13.9575 17.7965 13.726C17.8896 13.4944 18.0285 13.284 18.2048 13.1074C18.5986 12.7257 19.1068 12.4839 19.6513 12.4189V11.8256C19.65 11.7511 19.6636 11.6772 19.6913 11.608C19.719 11.5388 19.7601 11.4759 19.8124 11.4228C19.8659 11.3688 19.9299 11.3263 20.0005 11.2979C20.071 11.2696 20.1466 11.256 20.2226 11.258C20.2964 11.2563 20.3697 11.27 20.4378 11.2984C20.506 11.3268 20.5674 11.3692 20.6181 11.4228C20.6704 11.4759 20.7116 11.5388 20.7392 11.608C20.7669 11.6772 20.7805 11.7511 20.7792 11.8256V12.3933C21.0282 12.4261 21.2734 12.4825 21.5117 12.5617C21.7454 12.6378 21.9673 12.7463 22.1708 12.884C22.2393 12.9234 22.2991 12.9761 22.3469 13.039C22.3947 13.1019 22.4295 13.1737 22.4492 13.2502C22.4826 13.3915 22.4672 13.54 22.4052 13.6713C22.3756 13.7362 22.333 13.7944 22.2801 13.8423C22.2272 13.8901 22.1651 13.9267 22.0976 13.9497C22.0114 13.9746 21.921 13.9813 21.8321 13.9694C21.7432 13.9574 21.6577 13.927 21.5812 13.8801C21.403 13.7924 21.2165 13.7225 21.0246 13.6713C20.7853 13.6108 20.539 13.5824 20.2922 13.5871C19.9884 13.5687 19.6867 13.6483 19.4316 13.8142C19.3348 13.8779 19.2555 13.965 19.2012 14.0674C19.1468 14.1698 19.119 14.2842 19.1203 14.4001C19.1181 14.4794 19.1334 14.5582 19.165 14.631C19.1967 14.7038 19.2439 14.7687 19.3034 14.8212C19.4951 14.9614 19.7172 15.0543 19.9516 15.0922L21.0026 15.3193C21.5011 15.3994 21.9648 15.6249 22.3356 15.9675C22.4794 16.1214 22.5912 16.3023 22.6647 16.4996C22.7383 16.697 22.772 16.9069 22.7641 17.1174C22.7721 17.364 22.728 17.6096 22.6346 17.8381C22.5412 18.0665 22.4006 18.2727 22.2221 18.4431C21.828 18.8048 21.3342 19.0396 20.8049 19.1169V19.7102C20.8063 19.7847 20.7928 19.8587 20.7652 19.9279C20.7375 19.9971 20.6962 20.06 20.6437 20.113C20.5932 20.1671 20.5319 20.21 20.4638 20.239C20.3957 20.268 20.3223 20.2825 20.2482 20.2814H20.2226Z" fill="white"/>
</g>
<defs>
<clipPath id="clip0_243_2445">
<rect width="45" height="26.0962" fill="white"/>
</clipPath>
</defs>
</svg>
