<svg width="67" height="40" viewBox="0 0 67 40" fill="none" xmlns="http://www.w3.org/2000/svg">
<rect x="0.5" y="0.5" width="66" height="39" rx="7.5" stroke="#D9D9D9"/>
<g clip-path="url(#clip0_243_2422)">
<path d="M49.3876 17.9459C49.2413 17.529 48.9692 17.1678 48.6088 16.9121C48.2485 16.6564 47.8176 16.5189 47.3757 16.5186H47.3552C47.0679 16.5185 46.7835 16.5766 46.5192 16.6894C46.2549 16.8022 46.0162 16.9674 45.8176 17.175C45.6193 16.9673 45.3809 16.8021 45.1168 16.6892C44.8528 16.5764 44.5686 16.5184 44.2814 16.5186H44.2621C43.7519 16.5181 43.2586 16.7017 42.8728 17.0357V16.8726C42.8673 16.7935 42.8319 16.7194 42.7739 16.6653C42.7159 16.6112 42.6395 16.5811 42.5602 16.581H41.1344C41.0508 16.5811 40.9707 16.6143 40.9116 16.6734C40.8525 16.7325 40.8192 16.8126 40.819 16.8961V24.6398C40.8189 24.6814 40.8269 24.7225 40.8427 24.7609C40.8584 24.7993 40.8817 24.8342 40.911 24.8636C40.9403 24.893 40.9751 24.9164 41.0134 24.9323C41.0518 24.9482 41.0929 24.9564 41.1344 24.9564H42.5602C42.636 24.9564 42.7094 24.929 42.7665 24.8791C42.8237 24.8292 42.8608 24.7602 42.871 24.6851V19.1263C42.871 19.1076 42.871 19.0889 42.8737 19.0702C42.8836 18.9446 42.9389 18.8268 43.0293 18.739C43.1197 18.6512 43.239 18.5994 43.3649 18.5933H43.6284C43.7383 18.6004 43.8435 18.6409 43.9299 18.7093C43.9917 18.7596 44.0412 18.8233 44.0747 18.8955C44.1082 18.9678 44.1249 19.0467 44.1234 19.1263L44.128 24.6576C44.1282 24.7414 44.1617 24.8217 44.221 24.8808C44.2804 24.9399 44.3608 24.9731 44.4445 24.973H45.8703C45.9513 24.9727 46.029 24.9412 46.0872 24.8851C46.1455 24.8289 46.1798 24.7524 46.183 24.6715V19.1179C46.1813 19.0299 46.2017 18.943 46.2423 18.865C46.283 18.787 46.3426 18.7205 46.4158 18.6716C46.4949 18.6213 46.5852 18.5912 46.6787 18.5839H46.9416C47.0772 18.5913 47.2046 18.6512 47.2968 18.751C47.3889 18.8507 47.4387 18.9824 47.4354 19.1182L47.4412 24.6416C47.441 24.6831 47.449 24.7242 47.4648 24.7626C47.4805 24.801 47.5037 24.8359 47.533 24.8653C47.5623 24.8947 47.597 24.9181 47.6353 24.934C47.6737 24.95 47.7147 24.9582 47.7562 24.9582H49.1817C49.2232 24.9582 49.2644 24.95 49.3027 24.934C49.3411 24.9181 49.3759 24.8948 49.4053 24.8654C49.4346 24.836 49.4579 24.8011 49.4737 24.7627C49.4896 24.7243 49.4977 24.6832 49.4977 24.6416V18.7021C49.5099 18.4462 49.4732 18.1904 49.3894 17.9483" fill="#00B2F1"/>
<path d="M39.7336 16.6016H38.9196V15.275C38.9208 15.2321 38.9122 15.1896 38.8945 15.1506C38.8768 15.1116 38.8504 15.0771 38.8173 15.0499C38.7842 15.0227 38.7453 15.0034 38.7036 14.9935C38.662 14.9835 38.6186 14.9833 38.5768 14.9927C37.6723 15.2409 37.8532 16.4933 36.204 16.6003H36.0424C36.0191 16.6006 35.996 16.6032 35.9733 16.6082C35.9036 16.624 35.8414 16.6631 35.7969 16.719C35.7523 16.7749 35.7281 16.8443 35.7282 16.9157V18.3403C35.728 18.3818 35.7361 18.4229 35.7518 18.4613C35.7676 18.4997 35.7908 18.5346 35.82 18.564C35.8493 18.5934 35.8841 18.6167 35.9224 18.6327C35.9607 18.6486 36.0018 18.6568 36.0433 18.6569H36.904V24.7022C36.904 24.7432 36.912 24.7839 36.9276 24.8218C36.9433 24.8597 36.9663 24.8941 36.9953 24.9231C37.0243 24.9521 37.0587 24.9751 37.0966 24.9907C37.1345 25.0064 37.1751 25.0144 37.2161 25.0143H38.6253C38.6662 25.0143 38.7067 25.0061 38.7445 24.9904C38.7823 24.9747 38.8166 24.9517 38.8454 24.9227C38.8743 24.8938 38.8972 24.8594 38.9127 24.8215C38.9283 24.7837 38.9363 24.7432 38.9361 24.7022V18.6569H39.7348C39.7763 18.6568 39.8173 18.6485 39.8556 18.6326C39.8939 18.6166 39.9286 18.5933 39.9579 18.5639C39.9871 18.5345 40.0102 18.4996 40.026 18.4612C40.0417 18.4229 40.0497 18.3818 40.0496 18.3403V16.9157C40.0497 16.8743 40.0417 16.8333 40.0259 16.795C40.0101 16.7567 39.9869 16.722 39.9577 16.6927C39.9284 16.6634 39.8937 16.6401 39.8555 16.6243C39.8172 16.6084 39.7762 16.6003 39.7348 16.6003" fill="#00B2F1"/>
<path d="M34.603 16.6018H33.1778C33.1364 16.6018 33.0953 16.6099 33.057 16.6257C33.0186 16.6415 32.9838 16.6647 32.9544 16.694C32.9251 16.7233 32.9018 16.7581 32.8859 16.7964C32.87 16.8347 32.8619 16.8757 32.8619 16.9172V19.8647C32.8606 19.952 32.8252 20.0355 32.7632 20.097C32.7012 20.1586 32.6176 20.1935 32.5302 20.1942H31.9311C31.8423 20.194 31.7572 20.1587 31.6945 20.0958C31.6317 20.0329 31.5965 19.9478 31.5965 19.8589L31.5913 16.9166C31.5914 16.8752 31.5833 16.8342 31.5675 16.7959C31.5517 16.7576 31.5285 16.7228 31.4993 16.6935C31.47 16.6642 31.4352 16.641 31.397 16.6252C31.3587 16.6093 31.3177 16.6012 31.2763 16.6012H29.8496C29.8082 16.6012 29.7672 16.6094 29.729 16.6253C29.6908 16.6411 29.656 16.6644 29.6268 16.6936C29.5976 16.7229 29.5744 16.7577 29.5586 16.796C29.5428 16.8342 29.5347 16.8752 29.5348 16.9166V20.1481C29.5237 20.4272 29.5705 20.7056 29.6722 20.9657C29.774 21.2259 29.9285 21.4622 30.126 21.6596C30.3236 21.8571 30.5599 22.0116 30.8201 22.1133C31.0802 22.2149 31.3587 22.2616 31.6378 22.2504C31.6378 22.2504 32.5598 22.2504 32.5881 22.2556C32.67 22.2632 32.7461 22.301 32.8017 22.3616C32.8573 22.4222 32.8884 22.5013 32.889 22.5835C32.8895 22.6657 32.8595 22.7453 32.8047 22.8066C32.75 22.868 32.6744 22.9068 32.5926 22.9155C32.5854 22.9155 32.5785 22.9183 32.5694 22.9195L30.4839 22.9273C30.4425 22.9273 30.4014 22.9354 30.3631 22.9512C30.3248 22.967 30.29 22.9903 30.2606 23.0195C30.2313 23.0488 30.208 23.0836 30.1921 23.1219C30.1762 23.1602 30.168 23.2012 30.168 23.2427V24.6685C30.1683 24.7521 30.2017 24.8322 30.2609 24.8913C30.3201 24.9504 30.4003 24.9837 30.4839 24.9838H32.8145C33.0937 24.9951 33.3722 24.9484 33.6325 24.8467C33.8928 24.745 34.1292 24.5905 34.3268 24.393C34.5244 24.1954 34.679 23.9591 34.7807 23.6988C34.8825 23.4386 34.9293 23.1601 34.9181 22.8809V16.9172C34.9182 16.8758 34.9101 16.8347 34.8942 16.7964C34.8784 16.7581 34.8552 16.7233 34.8259 16.694C34.7966 16.6647 34.7618 16.6415 34.7235 16.6257C34.6852 16.6099 34.6445 16.6018 34.603 16.6018Z" fill="#0C2756"/>
<path d="M20.9264 16.6025H17.8095C17.7689 16.6024 17.7287 16.6103 17.6912 16.6258C17.6536 16.6413 17.6195 16.664 17.5908 16.6927C17.5621 16.7214 17.5393 16.7554 17.5237 16.7929C17.5082 16.8304 17.5002 16.8706 17.5002 16.9112V24.6588C17.4976 24.7387 17.5263 24.8164 17.5801 24.8755C17.6339 24.9346 17.7086 24.9704 17.7884 24.9754H19.2413C19.283 24.9756 19.3242 24.9676 19.3627 24.9517C19.4013 24.9359 19.4363 24.9126 19.4657 24.8832C19.4952 24.8537 19.5185 24.8187 19.5344 24.7802C19.5503 24.7417 19.5583 24.7005 19.5582 24.6588L19.5633 22.4917H20.9273C21.1852 22.5042 21.4428 22.4627 21.6837 22.3697C21.9245 22.2767 22.1432 22.1344 22.3258 21.9518C22.5084 21.7693 22.6507 21.5505 22.7437 21.3097C22.8366 21.0688 22.8782 20.8112 22.8656 20.5533V18.542C22.878 18.2841 22.8364 18.0265 22.7434 17.7856C22.6504 17.5448 22.508 17.326 22.3255 17.1433C22.143 16.9607 21.9244 16.8182 21.6836 16.725C21.4428 16.6318 21.1843 16.5903 20.9264 16.6025ZM20.8022 20.0944C20.802 20.183 20.7668 20.2679 20.7042 20.3305C20.6415 20.3931 20.5567 20.4283 20.4681 20.4285H19.5636V18.6647H20.4681C20.512 18.6647 20.5555 18.6733 20.596 18.6901C20.6365 18.7068 20.6734 18.7314 20.7044 18.7625C20.7354 18.7935 20.7601 18.8303 20.7768 18.8709C20.7936 18.9114 20.8022 18.9549 20.8022 18.9988V20.0944Z" fill="#0C2756"/>
<path d="M26.4915 16.6097H24.5136C24.4324 16.6071 24.3535 16.6367 24.294 16.6921C24.2346 16.7476 24.1995 16.8242 24.1964 16.9054V18.2426C24.1996 18.3287 24.2368 18.4101 24.2999 18.4688C24.363 18.5276 24.4468 18.5589 24.5329 18.5559H26.4167C26.4915 18.5657 26.5606 18.6011 26.6123 18.656C26.664 18.711 26.6951 18.7821 26.7004 18.8574V19.041C26.6951 19.1143 26.6646 19.1835 26.6141 19.237C26.5636 19.2904 26.4962 19.3248 26.4233 19.3343H25.4917C24.2507 19.3343 23.3661 20.1583 23.3661 21.3155V22.9737C23.3513 23.2382 23.3929 23.5028 23.4882 23.75C23.5834 23.9973 23.7301 24.2214 23.9185 24.4076C24.1069 24.5938 24.3327 24.7379 24.581 24.8302C24.8293 24.9225 25.0944 24.961 25.3587 24.9431H27.9444C28.1597 24.9503 28.3691 24.8718 28.5267 24.7249C28.6842 24.5779 28.7771 24.3745 28.785 24.1592V18.75C28.785 17.4376 28.1075 16.6097 26.4915 16.6097ZM26.7191 22.7841C26.7185 22.8016 26.7163 22.8191 26.7128 22.8362C26.7097 22.852 26.7055 22.8675 26.7004 22.8827C26.6758 22.9468 26.632 23.0018 26.5751 23.0402C26.5181 23.0786 26.4507 23.0986 26.382 23.0973H25.789C25.7029 23.1001 25.6193 23.0687 25.5564 23.01C25.4935 22.9513 25.4563 22.8701 25.4531 22.7841V21.5633C25.4566 21.4775 25.4939 21.3966 25.5568 21.3382C25.6197 21.2797 25.7032 21.2485 25.789 21.2513H26.382C26.4683 21.2484 26.5522 21.2798 26.6153 21.3386C26.6785 21.3975 26.7158 21.4789 26.7191 21.5651V22.7841Z" fill="#0C2756"/>
</g>
<defs>
<clipPath id="clip0_243_2422">
<rect width="32" height="32" fill="white" transform="translate(17.5 4)"/>
</clipPath>
</defs>
</svg>
