<svg width="22" height="22" viewBox="0 0 22 22" fill="none" xmlns="http://www.w3.org/2000/svg">
<path d="M4.44722 2.59995C4.51922 3.66795 4.69922 4.71195 4.98722 5.70795L3.54722 7.14795C3.05522 5.70795 2.74322 4.18395 2.63522 2.59995H4.44722ZM16.2792 17.024C17.2992 17.312 18.3432 17.492 19.3992 17.564V19.352C17.8152 19.2439 16.2912 18.932 14.8392 18.452L16.2792 17.024ZM5.59922 0.199951H1.39922C0.739219 0.199951 0.199219 0.739951 0.199219 1.39995C0.199219 12.668 9.33122 21.8 20.5992 21.8C21.2592 21.8 21.7992 21.26 21.7992 20.6V16.412C21.7992 15.752 21.2592 15.212 20.5992 15.212C19.1112 15.212 17.6592 14.972 16.3152 14.528C16.1952 14.48 16.0632 14.468 15.9432 14.468C15.6312 14.468 15.3312 14.588 15.0912 14.816L12.4512 17.456C9.05522 15.716 6.27122 12.944 4.54322 9.54795L7.18322 6.90795C7.51922 6.57195 7.61522 6.10395 7.48322 5.68395C7.03922 4.33995 6.79922 2.89995 6.79922 1.39995C6.79922 0.739951 6.25922 0.199951 5.59922 0.199951Z" fill="url(#paint0_linear_908_341)"/>
<defs>
<linearGradient id="paint0_linear_908_341" x1="18.8803" y1="21.8" x2="9.74803" y2="-1.90444" gradientUnits="userSpaceOnUse">
<stop stop-color="#1292C8"/>
<stop offset="1" stop-color="#52BD8C"/>
</linearGradient>
</defs>
</svg>
