<svg width="86" height="24" viewBox="0 0 86 24" fill="none" xmlns="http://www.w3.org/2000/svg">
<g clip-path="url(#clip0_243_2424)">
<path d="M59.0563 18.3521V14.1115C59.0563 13.0678 58.6648 12.5459 57.6864 12.5459C57.2949 12.5459 56.8384 12.6113 56.5773 12.6763V18.8739C56.5773 19.0697 56.3816 19.2654 56.1859 19.2654H54.6853C54.4896 19.2654 54.2938 19.0697 54.2938 18.8739V11.6326C54.2938 11.3715 54.4896 11.1761 54.6853 11.1107C55.664 10.7846 56.6424 10.5889 57.6861 10.5889C60.0346 10.5889 61.3394 11.8283 61.3394 14.1118V18.9393C61.3394 19.135 61.1437 19.3308 60.948 19.3308H60.0346C59.4477 19.3304 59.0563 18.8739 59.0563 18.3521ZM64.9278 15.8078L64.8624 16.395C64.8624 17.178 65.3843 17.6345 66.2322 17.6345C66.8845 17.6345 67.4717 17.4387 68.1243 17.1126C68.1896 17.1126 68.2547 17.0473 68.32 17.0473C68.4504 17.0473 68.5158 17.1126 68.5811 17.1776C68.6465 17.243 68.7769 17.4387 68.7769 17.4387C68.9072 17.6345 69.038 17.8952 69.038 18.091C69.038 18.4171 68.8422 18.7432 68.5815 18.8739C67.8639 19.2654 67.0159 19.4612 66.1026 19.4612C65.0588 19.4612 64.2105 19.2001 63.5583 18.6782C62.906 18.091 62.5146 17.3084 62.5146 16.3297V13.7854C62.5146 11.763 63.8194 10.5235 66.0375 10.5235C68.1903 10.5235 69.4298 11.6979 69.4298 13.7854V15.351C69.4298 15.5467 69.2341 15.7424 69.0383 15.7424H64.9285L64.9278 15.8078ZM64.8624 14.3726H67.3413V13.7204C67.3413 12.9374 66.8848 12.4155 66.1019 12.4155C65.3189 12.4155 64.8624 12.872 64.8624 13.7204V14.3726ZM81.4982 15.8078L81.4329 16.395C81.4329 17.178 81.9547 17.6345 82.8027 17.6345C83.455 17.6345 84.0422 17.4387 84.6948 17.1126C84.7601 17.1126 84.8251 17.0473 84.8905 17.0473C85.0209 17.0473 85.0862 17.1126 85.1516 17.1776C85.217 17.243 85.3473 17.4387 85.3473 17.4387C85.4777 17.6345 85.6084 17.8952 85.6084 18.091C85.6084 18.4171 85.4127 18.7432 85.1519 18.8739C84.4343 19.2654 83.5864 19.4612 82.673 19.4612C81.6293 19.4612 80.781 19.2001 80.1288 18.6782C79.4765 18.091 79.085 17.3084 79.085 16.3297V13.7854C79.085 11.763 80.3899 10.5235 82.608 10.5235C84.7608 10.5235 86.0003 11.6979 86.0003 13.7854V15.351C86.0003 15.5467 85.8045 15.7424 85.6088 15.7424H81.4989V15.8078H81.4982ZM81.4329 14.3726H83.9118V13.7204C83.9118 12.9374 83.4553 12.4155 82.6723 12.4155C81.8894 12.4155 81.4329 12.872 81.4329 13.7204V14.3726ZM43.073 19.3304H43.9864C44.1821 19.3304 44.3778 19.1347 44.3778 18.939V14.1115C44.3778 11.8933 43.2034 10.5885 41.2463 10.5885C40.6591 10.5885 40.0069 10.7189 39.6154 10.8496V8.43573C39.6154 7.91387 39.1589 7.45703 38.6367 7.45703H37.7234C37.5276 7.45703 37.3319 7.65277 37.3319 7.84851V18.939C37.3319 19.1347 37.5276 19.3304 37.7234 19.3304H39.2239C39.4197 19.3304 39.6154 19.1347 39.6154 18.939V12.8067C39.9415 12.6763 40.3984 12.6109 40.7245 12.6109C41.7032 12.6109 42.0943 13.0674 42.0943 14.1765V18.4171C42.1597 18.8739 42.5512 19.3304 43.073 19.3304ZM52.924 13.8504V16.2643C52.924 18.2867 51.5542 19.5262 49.2706 19.5262C47.0525 19.5262 45.6173 18.2867 45.6173 16.2643V13.8504C45.6173 11.828 46.9871 10.5885 49.2706 10.5885C51.5542 10.5885 52.924 11.8283 52.924 13.8504ZM50.6408 13.8504C50.6408 13.0674 50.1843 12.5456 49.336 12.5456C48.4877 12.5456 48.0312 13.0021 48.0312 13.8504V16.2643C48.0312 17.0473 48.4877 17.5038 49.336 17.5038C50.1843 17.5038 50.6408 17.0473 50.6408 16.2643V13.8504ZM36.0928 12.7417C36.0928 14.8294 34.5272 16.2646 32.4394 16.2646C31.9176 16.2646 31.4607 16.1993 31.0042 16.0035V18.9393C31.0042 19.135 30.8085 19.3308 30.6127 19.3308H29.1122C28.9164 19.3308 28.7207 19.135 28.7207 18.9393V8.56645C28.7207 8.30535 28.9164 8.10996 29.1122 8.0446C30.0909 7.71848 31.0692 7.52274 32.113 7.52274C34.4615 7.52274 36.0924 8.95793 36.0924 11.1761C36.0928 11.1757 36.0928 12.7417 36.0928 12.7417ZM33.7442 11.0454C33.7442 10.0016 33.0266 9.47979 32.0479 9.47979C31.4607 9.47979 31.0692 9.67553 31.0692 9.67553V13.9811C31.4607 14.1769 31.6565 14.2422 32.113 14.2422C33.0917 14.2422 33.8093 13.655 33.8093 12.6766V11.0457H33.7442V11.0454ZM78.2364 12.7417C78.2364 14.8294 76.6708 16.2646 74.583 16.2646C74.0612 16.2646 73.6043 16.1993 73.1478 16.0035V18.9393C73.1478 19.135 72.9521 19.3308 72.7563 19.3308H71.2558C71.06 19.3308 70.8643 19.135 70.8643 18.9393V8.56645C70.8643 8.30535 71.06 8.10996 71.2558 8.0446C72.2345 7.71848 73.2128 7.52274 74.2565 7.52274C76.6051 7.52274 78.236 8.95793 78.236 11.1761C78.2364 11.1757 78.2364 12.7417 78.2364 12.7417ZM75.8878 11.0454C75.8878 10.0016 75.1702 9.47979 74.1915 9.47979C73.6043 9.47979 73.2128 9.67553 73.2128 9.67553V13.9811C73.6043 14.1769 73.8001 14.2422 74.2565 14.2422C75.2353 14.2422 75.9529 13.655 75.9529 12.6766V11.0457H75.8878V11.0454Z" fill="#5F259F"/>
<path d="M11.6777 23.3563C18.127 23.3563 23.3553 18.128 23.3553 11.6786C23.3553 5.22924 18.127 0.000976562 11.6777 0.000976562C5.22826 0.000976562 0 5.22924 0 11.6786C0 18.128 5.22826 23.3563 11.6777 23.3563Z" fill="#5F259F"/>
<path d="M16.9781 8.63159C16.9781 8.17509 16.5867 7.78361 16.1302 7.78361H14.5646L10.9766 3.67376C10.6505 3.28228 10.1286 3.15191 9.60675 3.28229L8.3673 3.67376C8.17156 3.73913 8.1062 3.99988 8.23692 4.13026L12.151 7.84898H6.21381C6.01807 7.84898 5.8877 7.97935 5.8877 8.17509V8.82733C5.8877 9.28383 6.27917 9.67531 6.73567 9.67531H7.64901V12.8068C7.64901 15.1553 8.88847 16.5255 10.9762 16.5255C11.6285 16.5255 12.1507 16.4602 12.8029 16.1994V18.2872C12.8029 18.8744 13.2594 19.3309 13.8466 19.3309H14.76C14.9557 19.3309 15.1515 19.1352 15.1515 18.9394V9.61029H16.652C16.8478 9.61029 16.9781 9.47991 16.9781 9.28417V8.63159ZM12.8029 14.242C12.4114 14.4377 11.8896 14.5031 11.4981 14.5031C10.4544 14.5031 9.93253 13.9812 9.93253 12.8068V9.67531H12.8029V14.242Z" fill="white"/>
</g>
<defs>
<clipPath id="clip0_243_2424">
<rect width="86" height="23.3576" fill="white"/>
</clipPath>
</defs>
</svg>
