<svg width="93" height="33" viewBox="0 0 93 33" fill="none" xmlns="http://www.w3.org/2000/svg">
<path fill-rule="evenodd" clip-rule="evenodd" d="M26.9998 32.7048H3.01626L18.2785 17.4426L0.835938 0H26.9998V32.7048ZM92.4099 32.7048V0H27.0002V32.7048H92.4099Z" fill="#E32320"/>
<path d="M25.526 18.5712V23H23.5075V10.7868H27.2123C28.6148 10.7868 29.7021 11.1133 30.4743 11.7662C31.2465 12.4192 31.6326 13.339 31.6326 14.5257C31.6326 15.7124 31.2295 16.6833 30.4232 17.4385C29.6169 18.1936 28.5268 18.5712 27.1527 18.5712H25.526ZM25.526 12.4561V16.9189H26.8376C27.7063 16.9189 28.3678 16.7174 28.822 16.3142C29.2763 15.9111 29.5034 15.3433 29.5034 14.6109C29.5034 13.1744 28.6687 12.4561 26.9994 12.4561H25.526ZM36.7598 23.2044C35.4141 23.2044 34.3381 22.7984 33.5319 21.9865C32.7313 21.1689 32.331 20.0872 32.331 18.7416C32.331 17.2767 32.7483 16.1325 33.583 15.3093C34.4233 14.486 35.5532 14.0743 36.9727 14.0743C38.3354 14.0743 39.3972 14.4746 40.158 15.2752C40.9188 16.0758 41.2993 17.1858 41.2993 18.6053C41.2993 19.9964 40.8876 21.1121 40.0643 21.9524C39.2467 22.7871 38.1452 23.2044 36.7598 23.2044ZM36.8535 15.6499C36.0813 15.6499 35.4709 15.9196 35.0223 16.459C34.5738 16.9984 34.3495 17.7422 34.3495 18.6905C34.3495 19.6046 34.5766 20.3257 35.0308 20.8537C35.4851 21.3761 36.0926 21.6373 36.8535 21.6373C37.6313 21.6373 38.2275 21.379 38.642 20.8623C39.0622 20.3456 39.2722 19.6103 39.2722 18.6564C39.2722 17.6968 39.0622 16.9558 38.642 16.4335C38.2275 15.9111 37.6313 15.6499 36.8535 15.6499ZM45.3278 21.7139H45.2937V27.0115H43.3178V14.2787H45.2937V15.8117H45.3278C46.0034 14.6534 46.9914 14.0743 48.2916 14.0743C49.3988 14.0743 50.2619 14.4632 50.8808 15.2411C51.4997 16.019 51.8091 17.0637 51.8091 18.3753C51.8091 19.8289 51.4599 20.9929 50.7615 21.8673C50.0631 22.7417 49.1093 23.1789 47.8999 23.1789C46.787 23.1789 45.9296 22.6906 45.3278 21.7139ZM45.2767 18.2731V19.3548C45.2767 19.9907 45.4782 20.5301 45.8814 20.973C46.2902 21.4159 46.8069 21.6373 47.4314 21.6373C48.1639 21.6373 48.7374 21.3534 49.1518 20.7856C49.572 20.2121 49.7821 19.4144 49.7821 18.3924C49.7821 17.535 49.5862 16.865 49.1944 16.3824C48.8083 15.8941 48.2831 15.6499 47.6188 15.6499C46.9147 15.6499 46.3469 15.8998 45.9154 16.3994C45.4896 16.8991 45.2767 17.5236 45.2767 18.2731ZM61.4332 23H59.4573V21.6203H59.4232C58.8497 22.6764 57.9583 23.2044 56.7489 23.2044C54.6878 23.2044 53.6573 21.9666 53.6573 19.491V14.2787H55.6332V19.2866C55.6332 20.8537 56.2379 21.6373 57.4473 21.6373C58.0321 21.6373 58.5119 21.4215 58.8866 20.99C59.2671 20.5585 59.4573 19.9935 59.4573 19.2952V14.2787H61.4332V23ZM65.9982 23H64.0138V10.0884H65.9982V23ZM75.2731 23H73.3568V21.6373H73.3228C72.7209 22.682 71.838 23.2044 70.674 23.2044C69.8167 23.2044 69.1438 22.9716 68.6555 22.506C68.1729 22.0404 67.9316 21.4244 67.9316 20.6579C67.9316 19.0113 68.8798 18.0517 70.7762 17.7791L73.3654 17.4129C73.3654 16.1695 72.7748 15.5477 71.5938 15.5477C70.5548 15.5477 69.6179 15.9054 68.7833 16.6209V14.8919C69.7031 14.3468 70.7649 14.0743 71.9686 14.0743C74.1716 14.0743 75.2731 15.1588 75.2731 17.3278V23ZM73.3654 18.716L71.5342 18.9715C70.9664 19.0453 70.5377 19.1844 70.2482 19.3888C69.9643 19.5876 69.8223 19.9396 69.8223 20.4449C69.8223 20.814 69.9529 21.1178 70.2141 21.3562C70.481 21.589 70.8358 21.7054 71.2787 21.7054C71.8806 21.7054 72.3774 21.4953 72.7692 21.0752C73.1666 20.6493 73.3654 20.1156 73.3654 19.474V18.716ZM82.751 16.1609C82.5125 15.9736 82.169 15.8799 81.7204 15.8799C81.1356 15.8799 80.6473 16.1439 80.2555 16.672C79.8637 17.2 79.6679 17.9183 79.6679 18.8267V23H77.6919V14.2787H79.6679V16.0758H79.7019C79.895 15.4626 80.1902 14.9856 80.5877 14.6449C80.9908 14.2986 81.4394 14.1254 81.9333 14.1254C82.2911 14.1254 82.5636 14.1793 82.751 14.2872V16.1609Z" fill="white"/>
</svg>
