<svg width="60" height="60" viewBox="0 0 60 60" fill="none" xmlns="http://www.w3.org/2000/svg">
<path fill-rule="evenodd" clip-rule="evenodd" d="M8.51495 0.237264C6.77932 0.58247 5.25639 1.93008 4.64397 3.66271C4.4263 4.27848 4.40072 4.66986 4.35593 8.07424C4.32492 10.4307 4.35385 12.1599 4.43428 12.7575C4.60127 13.9984 5.06844 14.9887 5.8571 15.7737C6.99861 16.9099 8.21024 17.3574 10.1453 17.3574H11.2605L11.2952 21.2631C11.3288 25.0525 11.3377 25.1847 11.5922 25.7012C12.7989 28.15 16.0764 28.382 17.5949 26.1261C18.1102 25.3604 18.2154 24.5475 18.2154 21.3286C18.2154 18.6313 18.2232 18.5372 18.4781 18.1557C19.1686 17.1223 20.6183 17.1223 21.3088 18.1557C21.5342 18.4932 21.5715 18.6995 21.5715 19.6099C21.5715 21.4861 21.8249 22.3691 22.5968 23.1824C24.3473 25.0267 27.3838 24.382 28.2998 21.9715C28.4798 21.4981 28.5149 21.0739 28.5149 19.3813V17.3574H36.5913C45.4424 17.3574 45.4112 17.3596 46.6194 16.6653C47.3195 16.263 48.1624 15.4128 48.5736 14.6941C48.9984 13.9515 49.2259 12.8502 49.2279 11.5265L49.2296 10.3824L50.3187 10.4394C51.5097 10.5017 51.9685 10.6828 52.3999 11.2611C52.6277 11.5663 52.6457 11.7538 52.6767 14.1542C52.7088 16.6336 52.7009 16.7385 52.4453 17.239C52.2997 17.5241 52.0244 17.8463 51.8334 17.9551C51.6425 18.064 47.0896 19.4047 41.716 20.9344C36.3423 22.4639 31.6727 23.8535 31.3391 24.0224C31.0054 24.1912 30.4644 24.5959 30.1369 24.9216C28.9394 26.1129 28.5195 27.294 28.5166 29.4796L28.5149 30.7815H30.2411H31.9673L32.0059 29.4008C32.0473 27.9216 32.1399 27.6632 32.8039 27.1741C32.9591 27.0598 37.4865 25.7139 42.8648 24.1832C48.2431 22.6526 52.922 21.2653 53.2625 21.1005C54.6425 20.4326 55.8047 18.8255 56.0533 17.2417C56.1966 16.3289 56.2041 12.6227 56.0649 11.5432C55.8773 10.0883 54.9997 8.68631 53.7646 7.86814C52.9005 7.29576 51.9393 7.05795 50.4904 7.05795H49.2296L49.2279 5.92964C49.227 5.30912 49.1474 4.46734 49.0513 4.0593C48.662 2.40756 47.335 0.963783 45.6587 0.367802C45.169 0.193752 43.5228 0.17512 27.0684 0.157299C17.1392 0.146536 8.79015 0.182527 8.51495 0.237264Z" fill="#2C2B46"/>
<path opacity="0.4" fill-rule="evenodd" clip-rule="evenodd" d="M22.2002 34.5348C21.7607 34.7262 21.5752 35.1938 21.5822 36.0931C21.5933 37.5311 21.6336 37.6044 23.3584 39.3325L24.934 40.9111L23.9329 45.8275C23.034 50.2427 22.9319 50.8736 22.9319 52.0169C22.932 53.0979 22.9795 53.4295 23.2467 54.2156C23.7614 55.7302 24.5763 56.9058 25.7203 57.7846C27.1546 58.8863 28.4066 59.3064 30.2565 59.3064C32.1063 59.3064 33.3584 58.8863 34.7926 57.7846C35.9475 56.8976 36.8053 55.666 37.2789 54.2156C37.5303 53.4453 37.581 53.0761 37.5808 52.0169C37.5806 50.8744 37.478 50.24 36.5804 45.8304L35.5801 40.9169L37.2002 39.283L38.8201 37.6491V36.5839C38.8201 35.413 38.6582 34.859 38.2279 34.5576C37.9853 34.3876 37.1946 34.3694 30.2596 34.3734C24.0414 34.3771 22.4915 34.4081 22.2002 34.5348Z" fill="#2C2B46"/>
</svg>
