<svg width="51" height="51" viewBox="0 0 51 51" fill="none" xmlns="http://www.w3.org/2000/svg">
<path opacity="0.4" fill-rule="evenodd" clip-rule="evenodd" d="M21.288 10.2219C20.4636 10.4281 19.8465 10.7804 19.2249 11.3997C18.5846 12.0375 18.1976 12.7399 18.0193 13.5877C17.9532 13.9016 17.9102 15.2457 17.9102 16.99V19.8734H34.0648H50.2195V16.99C50.2195 15.2107 50.177 13.9079 50.1085 13.5877C49.7476 11.9014 48.3916 10.5446 46.7145 10.1919C45.9296 10.0267 21.9546 10.055 21.288 10.2219ZM37.6899 13.7066C38.1244 13.9282 38.4706 14.4923 38.4706 14.9781C38.4706 15.7264 37.7468 16.4467 36.9948 16.4467C36.5394 16.4467 35.9346 16.0659 35.7192 15.6437C35.3576 14.9349 35.5845 14.1611 36.2768 13.742C36.7456 13.4583 37.1817 13.4473 37.6899 13.7066ZM43.5644 13.7066C43.9988 13.9282 44.3451 14.4923 44.3451 14.9781C44.3451 15.7264 43.6213 16.4467 42.8692 16.4467C42.4139 16.4467 41.809 16.0659 41.5936 15.6437C41.232 14.9349 41.459 14.1611 42.1513 13.742C42.6201 13.4583 43.0561 13.4473 43.5644 13.7066Z" fill="#2C2B46"/>
<path fill-rule="evenodd" clip-rule="evenodd" d="M3.47155 0.234243C2.64717 0.440534 2.03006 0.792804 1.40844 1.41207C0.76823 2.04993 0.381204 2.75232 0.202915 3.60009C0.128702 3.95295 0.09375 6.29509 0.09375 10.9187V17.7184H7.53469H14.9756V15.7561C14.9756 13.5865 15.0942 12.7411 15.5519 11.6463C16.2605 9.95162 17.7492 8.46069 19.4577 7.73491C20.7539 7.18428 21.1976 7.14443 26.035 7.14443H30.445V5.63167C30.445 4.79965 30.395 3.88549 30.3339 3.60009C29.973 1.91374 28.617 0.556945 26.94 0.204284C26.1564 0.0394082 4.13761 0.0676055 3.47155 0.234243ZM8.12468 8.12477C8.37346 8.25166 8.58142 8.45962 8.70831 8.7084C8.88895 9.06263 8.90539 9.28292 8.90539 11.3544C8.90539 13.426 8.88895 13.6462 8.70831 14.0005C8.48547 14.4372 7.92201 14.7812 7.42954 14.7812C6.97418 14.7812 6.3693 14.4004 6.1539 13.9782C5.98687 13.6508 5.96857 13.3844 5.97229 11.3339C5.97689 8.74981 6.01625 8.58112 6.71159 8.16022C7.18037 7.87648 7.61644 7.86552 8.12468 8.12477ZM0.09375 33.4277C0.09375 42.5789 0.125279 46.3468 0.20478 46.7186C0.564784 48.4006 1.91668 49.7525 3.59872 50.1125C3.95432 50.1886 6.0561 50.2236 10.2797 50.2236H16.4418L16.1015 49.6915C15.7528 49.1465 15.4637 48.4945 15.1868 47.629C15.0472 47.1923 15.027 45.711 15.0006 33.8975L14.9708 20.6556H7.53234H0.09375V33.4277ZM17.9128 34.5047C17.9128 42.853 17.9447 46.3482 18.0239 46.7186C18.3839 48.4006 19.7358 49.7525 21.4178 50.1125C22.1458 50.2683 45.9779 50.27 46.7172 50.1143C48.3787 49.7644 49.7662 48.3771 50.1135 46.7186C50.1896 46.3553 50.2222 42.6946 50.2222 34.5047V22.8096H34.0675H17.9128V34.5047ZM8.12468 23.7899C8.37346 23.9168 8.58142 24.1248 8.70831 24.3735C8.89678 24.743 8.90539 24.9437 8.90539 28.9777C8.90539 33.0117 8.89678 33.2124 8.70831 33.5819C8.48547 34.0187 7.92201 34.3626 7.42954 34.3626C6.97418 34.3626 6.3693 33.9818 6.1539 33.5596C5.97983 33.2184 5.96847 32.93 5.97229 28.9572C5.97689 24.1868 5.96377 24.2781 6.71159 23.8254C7.18037 23.5416 7.61644 23.5307 8.12468 23.7899ZM36.3683 26.034C39.6307 26.885 42.1874 29.4569 43.0903 32.7961C43.2766 33.4846 43.3154 33.8736 43.3154 35.048C43.3154 36.2224 43.2766 36.6113 43.0903 37.2998C42.1881 40.6368 39.6666 43.1762 36.3683 44.0698C35.2092 44.3839 32.9828 44.3833 31.8157 44.0687C28.4703 43.1669 25.9554 40.6647 25.0407 37.3276C24.7396 36.2292 24.7396 33.8667 25.0407 32.7683C26.0524 29.0775 29.0249 26.4268 32.8437 25.8104C33.5223 25.7009 35.5954 25.8324 36.3683 26.034ZM32.6968 28.8362C30.9393 29.2137 29.2024 30.5776 28.4021 32.2087C27.9425 33.1454 27.707 34.1073 27.707 35.048C27.707 37.3887 29.135 39.6862 31.2282 40.7134C33.1135 41.6385 35.0215 41.6385 36.9068 40.7134C38.5595 39.9025 39.9085 38.1677 40.2847 36.3697C40.5842 34.9379 40.4036 33.5754 39.7329 32.2087C39.16 31.0409 38.0746 29.9555 36.9068 29.3826C35.5451 28.7143 34.1233 28.5299 32.6968 28.8362Z" fill="#2C2B46"/>
</svg>
