<svg width="61" height="46" viewBox="0 0 61 46" fill="none" xmlns="http://www.w3.org/2000/svg">
<path opacity="0.4" fill-rule="evenodd" clip-rule="evenodd" d="M24.0262 34.4341C23.2153 34.8627 23.171 35.0214 23.0988 37.7582C23.0277 40.4583 22.9518 40.7971 22.2538 41.5327C21.7816 42.0306 20.846 42.4779 20.2739 42.4793C19.3565 42.4817 18.5284 43.121 18.3735 43.9464C18.2603 44.5501 18.596 45.3337 19.1203 45.6901C19.8929 46.2151 21.6839 46.017 23.1634 45.243C24.0248 44.7923 25.2671 43.5771 25.7666 42.6965C26.4287 41.529 26.6031 40.5403 26.6031 37.9513C26.6031 35.8909 26.5802 35.6276 26.3629 35.1786C26.1884 34.8183 25.9867 34.6166 25.6264 34.4422C25.0165 34.1469 24.5739 34.1447 24.0262 34.4341ZM29.4718 34.4662C28.5821 34.9763 28.5852 34.9567 28.5855 40.0883C28.5856 45.1614 28.588 45.1783 29.3895 45.7137C30.2198 46.2684 31.4267 45.9434 31.8789 45.0433C32.0627 44.6778 32.0828 44.1866 32.0829 40.0883C32.0832 35.8821 32.0669 35.5086 31.867 35.1329C31.6043 34.6392 30.8877 34.2058 30.3342 34.2058C30.1097 34.2058 29.7217 34.323 29.4718 34.4662ZM35.0332 34.4445C34.6836 34.6175 34.4752 34.8281 34.3045 35.1808C34.0884 35.6271 34.0654 35.8943 34.0654 37.9513C34.0654 40.5403 34.2397 41.529 34.9018 42.6965C35.4013 43.5771 36.6436 44.7923 37.505 45.243C38.9845 46.017 40.7755 46.2151 41.5481 45.6901C42.0724 45.3337 42.4081 44.5501 42.2949 43.9464C42.14 43.121 41.312 42.4817 40.3946 42.4793C39.8224 42.4779 38.8868 42.0306 38.4146 41.5327C37.7166 40.7971 37.6407 40.4583 37.5696 37.7582C37.4971 35.0072 37.4535 34.855 36.6173 34.4284C36.0487 34.1383 35.6434 34.1425 35.0332 34.4445Z" fill="#2C2B46"/>
<path fill-rule="evenodd" clip-rule="evenodd" d="M6.22146 0.674095C5.87994 0.756763 5.1512 1.04698 4.60202 1.31912C2.85969 2.18253 1.54061 3.72816 0.8198 5.75091L0.549758 6.5088L0.514312 16.0267C0.474319 26.7382 0.458695 26.5004 1.31954 28.2544C2.22446 30.0982 4.04981 31.5992 6.08445 32.1725C6.46433 32.2795 7.45052 32.3797 8.50387 32.4181L10.282 32.4832L10.2837 29.9316C10.2857 27.0252 10.3887 26.3788 11.0714 24.9897C11.7005 23.7093 13.0393 22.3874 14.3629 21.7395C16.1265 20.8762 15.4192 20.9128 30.3369 20.9128C45.2547 20.9128 44.5474 20.8762 46.3109 21.7395C47.6345 22.3874 48.9733 23.7093 49.6025 24.9897C50.2852 26.3788 50.3881 27.0252 50.3901 29.9316L50.3919 32.4832L52.17 32.4181C53.2233 32.3797 54.2095 32.2795 54.5894 32.1725C56.6241 31.5992 58.4494 30.0982 59.3543 28.2544C60.2152 26.5004 60.1995 26.7382 60.1596 16.0267L60.1241 6.5088L59.8541 5.75091C59.1122 3.66893 57.7987 2.15688 55.9692 1.27913C55.3706 0.991827 54.6028 0.69998 54.2631 0.630371C53.2925 0.431803 7.04884 0.473895 6.22146 0.674095ZM43.0017 7.44882C43.8344 8.07133 44.0666 8.96949 43.603 9.77356C43.1548 10.551 42.7931 10.6618 40.8308 10.6231C39.3524 10.5939 39.1013 10.5605 38.8307 10.3565C38.0026 9.73263 37.8678 8.62005 38.5198 7.79115C38.9559 7.23672 39.3308 7.14729 41.0851 7.17936C42.4874 7.20489 42.7191 7.23742 43.0017 7.44882ZM51.3223 7.35437C51.5455 7.46642 51.8518 7.74183 52.0031 7.96628C52.3781 8.5228 52.326 9.56053 51.9003 10.0162C51.3725 10.5812 51.1045 10.648 49.3656 10.648C47.8744 10.648 47.7129 10.6268 47.3484 10.3834C46.2301 9.63632 46.3285 7.97841 47.5263 7.3855C48.1827 7.06066 50.6967 7.04002 51.3223 7.35437ZM16.9411 24.5327C15.8014 24.7566 14.5897 25.72 14.107 26.7862C13.8575 27.3374 13.8356 27.5616 13.8009 29.9159L13.7636 32.452H30.3369H46.9102L46.8729 29.9159C46.8383 27.5616 46.8164 27.3374 46.5669 26.7862C46.2594 26.107 45.4213 25.2374 44.734 24.8847C44.476 24.7523 43.9836 24.5904 43.6396 24.5252C42.8659 24.3786 17.6903 24.3856 16.9411 24.5327Z" fill="#2C2B46"/>
</svg>
