<svg width="60" height="60" viewBox="0 0 60 60" fill="none" xmlns="http://www.w3.org/2000/svg">
<path fill-rule="evenodd" clip-rule="evenodd" d="M19.1145 0.690398C18.6852 0.889137 18.3003 1.29821 18.1371 1.72908C18.0571 1.94023 18.0135 3.66893 18.0135 6.62231V11.1891L15.1241 11.2238C11.9451 11.262 11.9502 11.2608 11.3562 12.0568C11.1255 12.3659 11.1172 12.5175 11.1172 16.4183C11.1172 20.3191 11.1255 20.4706 11.3562 20.7798C11.8618 21.4573 12.1456 21.5749 13.3756 21.6176L14.5166 21.6572L14.5675 27.0093C14.6147 31.9629 14.6372 32.4456 14.8695 33.4913C15.5628 36.6133 16.9266 39.1055 19.1702 41.35C20.9931 43.1736 22.9315 44.3845 25.2767 45.1646C26.2836 45.4997 27.8748 45.8697 28.3081 45.8697C28.4938 45.8697 28.5519 46.0126 28.6733 46.7683C29.0383 49.0387 30.213 51.7797 31.6224 53.6491C34.3664 57.2887 38.6379 59.5798 43.2004 59.8591C44.204 59.9206 44.4627 59.8996 44.8247 59.7278C46.0034 59.1682 46.1598 57.4991 45.1041 56.747C44.8273 56.5499 44.4935 56.4776 43.5081 56.4009C38.9517 56.0466 35.1709 53.5553 33.2453 49.6381C32.7376 48.6056 32.0378 46.4885 32.0378 45.9855C32.0378 45.938 32.4992 45.8147 33.0631 45.7115C36.0869 45.1581 38.7532 43.766 41.0391 41.5472C43.5782 39.0827 45.1423 36.0726 45.6617 32.6513C45.7876 31.8229 45.8292 30.3239 45.8296 26.6035L45.8303 21.6572L47.0183 21.6176C48.0227 21.5842 48.2623 21.5381 48.5688 21.3195C49.2876 20.8065 49.3074 20.6749 49.3074 16.4183C49.3074 12.1616 49.2876 12.03 48.5688 11.517C48.2204 11.2684 48.0931 11.2571 45.2798 11.2239L42.3532 11.1894V6.54544C42.3532 1.41277 42.3481 1.37311 41.6146 0.849598C41.3518 0.662106 41.0872 0.591028 40.6521 0.591028C40.004 0.591028 39.6105 0.803334 39.1731 1.38923C38.9422 1.69847 38.9329 1.86927 38.9014 6.45488L38.8687 11.2005H30.1796H21.4906V6.551C21.4906 1.43016 21.483 1.37091 20.7702 0.863164C20.3422 0.558214 19.5735 0.477977 19.1145 0.690398ZM30.9505 21.8242C31.6707 22.1662 32.077 23.0894 31.8701 23.9141C31.8253 24.0923 31.3238 24.71 30.7421 25.3034L29.6947 26.3719L32.2501 27.6583C34.8927 28.9885 35.2176 29.2273 35.3509 29.9382C35.5238 30.8601 35.3975 31.059 33.2737 33.2088C32.1795 34.3164 31.1436 35.2963 30.9715 35.3864C29.9792 35.9055 28.6391 35.1403 28.4815 33.9646C28.3956 33.324 28.64 32.9001 29.7562 31.7533C30.268 31.2276 30.6648 30.7775 30.6379 30.7531C30.611 30.7289 29.4331 30.1284 28.0203 29.4189C25.5347 28.1706 25.4439 28.1127 25.2097 27.6287C24.6908 26.5563 24.9307 26.1164 27.3262 23.7474C28.3685 22.7167 29.3465 21.8233 29.4995 21.7621C29.9265 21.5912 30.5124 21.6163 30.9505 21.8242Z" fill="#2C2B46"/>
</svg>
