<svg width="56" height="55" viewBox="0 0 56 55" fill="none" xmlns="http://www.w3.org/2000/svg">
<path opacity="0.4" fill-rule="evenodd" clip-rule="evenodd" d="M7.7007 0.349125C7.16565 0.620342 6.84265 1.15464 6.84265 1.76868C6.84265 2.38272 7.16565 2.91702 7.7007 3.18824C8.0437 3.36216 8.48696 3.37479 13.3345 3.34878C18.4589 3.32138 18.6035 3.31485 18.8912 3.09993C19.4216 2.70371 19.6154 2.3474 19.6154 1.76868C19.6154 1.18996 19.4216 0.833655 18.8912 0.437426C18.6035 0.222507 18.4589 0.215978 13.3345 0.188578C8.48696 0.16257 8.0437 0.175199 7.7007 0.349125ZM49.533 0.34463C49.3282 0.450912 49.0513 0.701472 48.9178 0.901513C48.7064 1.21811 48.6749 1.40156 48.6749 2.31968V3.37415L47.6853 3.37436C46.5378 3.37447 46.089 3.54197 45.7082 4.11245C45.1992 4.87462 45.4974 5.9825 46.3234 6.39757C46.5975 6.53542 46.9567 6.58476 47.6853 6.58487L48.6749 6.58509V7.63956C48.6749 8.55767 48.7064 8.74112 48.9178 9.05772C49.569 10.0329 50.8608 10.0102 51.6069 9.01052C51.7815 8.77644 51.832 8.51368 51.8662 7.66214L51.9087 6.60435L52.959 6.56796C53.816 6.53831 54.0636 6.491 54.3044 6.31087C54.8347 5.91443 55.0284 5.55823 55.0284 4.97962C55.0284 4.40101 54.8347 4.04481 54.3044 3.64836C54.0636 3.46823 53.816 3.42092 52.959 3.39127L51.9087 3.35488L51.8662 2.29709C51.8208 1.16684 51.7114 0.898195 51.1145 0.45241C50.7188 0.15679 49.9908 0.107235 49.533 0.34463ZM1.17443 6.771C0.639386 7.04222 0.316406 7.57652 0.316406 8.19055C0.316406 8.80459 0.639386 9.33889 1.17443 9.61011C1.51754 9.78403 1.96325 9.79667 6.8617 9.77066C12.0401 9.74326 12.1841 9.73683 12.4719 9.52181C13.0023 9.12558 13.1961 8.76927 13.1961 8.19055C13.1961 7.61184 13.0023 7.25553 12.4719 6.8593C12.1841 6.64427 12.0401 6.63785 6.8617 6.61045C1.96325 6.58444 1.51754 6.59707 1.17443 6.771ZM39.7971 45.5118C39.5923 45.6181 39.3154 45.8686 39.1819 46.0687C38.9705 46.3853 38.939 46.5687 38.939 47.4869V48.5413L37.9494 48.5415C36.8019 48.5416 36.3531 48.7092 35.9723 49.2796C35.4633 50.0418 35.7615 51.1497 36.5875 51.5647C36.8616 51.7026 37.2208 51.7519 37.9494 51.752L38.939 51.7523V52.8067C38.939 53.7248 38.9705 53.9083 39.1819 54.2249C39.8331 55.2001 41.1249 55.1774 41.871 54.1777C42.0456 53.9436 42.0961 53.6809 42.1303 52.8293L42.1728 51.7715L43.2231 51.7351C44.0801 51.7055 44.3277 51.6582 44.5685 51.478C45.0988 51.0816 45.2925 50.7254 45.2925 50.1468C45.2925 49.5682 45.0988 49.212 44.5685 48.8155C44.3277 48.6354 44.0801 48.5881 43.2231 48.5584L42.1728 48.5221L42.1303 47.4643C42.0849 46.334 41.9755 46.0654 41.3786 45.6196C40.9828 45.324 40.2549 45.2744 39.7971 45.5118Z" fill="#2C2B46"/>
<path fill-rule="evenodd" clip-rule="evenodd" d="M28.4026 2.70076C27.0147 2.8886 25.0875 3.63835 23.829 4.48026C22.5128 5.3607 16.8773 11.0596 16.3139 12.0797C15.6538 13.2753 15.3874 14.2614 15.3262 15.7366L15.2728 17.021L19.7514 12.5732C24.4957 7.8617 24.6819 7.70661 26.095 7.29133C26.8496 7.06967 28.3507 7.06967 29.1053 7.29133C30.6247 7.73786 31.9329 8.83376 32.6111 10.2279L33.0041 11.0358L33.7525 10.7766C34.8156 10.4083 36.2322 10.4105 37.2935 10.7823C40.5153 11.9105 41.9664 15.2643 40.6179 18.4659C40.5674 18.5857 40.7604 18.7259 41.3771 19.0178C44.0847 20.2989 45.2424 23.5195 44.0303 26.3983C43.9734 26.5336 44.1361 26.6557 44.7823 26.9628C45.7834 27.4384 46.8663 28.483 47.3118 29.4027C48.1525 31.1382 48.1346 32.9966 47.2609 34.6725C46.9892 35.1937 46.255 35.9956 43.5732 38.7C41.7316 40.5571 40.2247 42.1166 40.2247 42.1656C40.2247 42.2147 40.8627 42.2315 41.6423 42.203C42.8099 42.1604 43.2109 42.1002 43.9158 41.8618C45.5512 41.3086 46.0132 40.9517 49.2468 37.7428C52.4442 34.5697 53.019 33.8985 53.7481 32.487C55.2977 29.4867 55.404 25.7165 54.0248 22.6733C53.1818 20.8134 53.1738 20.8046 45.1032 12.7056C36.8206 4.39389 36.7012 4.28782 34.7096 3.47406C33.214 2.86291 31.8938 2.62177 30.1511 2.64136C29.3659 2.65013 28.5791 2.67689 28.4026 2.70076ZM26.5712 10.5234C26.3878 10.6239 22.5362 14.3797 18.0121 18.8695C10.1618 26.6607 9.78326 27.0194 9.71276 26.7363C9.6721 26.5732 9.51653 24.2242 9.36718 21.5163L9.09565 16.5929L8.74569 15.9012C7.73711 13.9074 5.0591 13.5257 3.57892 15.1648C2.9295 15.8839 2.80229 16.3071 2.61645 18.368C2.30543 21.816 2.09862 23.5241 1.22507 29.8647C0.396446 35.8789 0.378912 36.0673 0.375167 39.0159C0.372279 41.2889 0.405549 41.9062 0.573734 42.7085C1.18014 45.601 2.48004 47.9134 4.805 50.2351C7.06383 52.4909 9.81534 53.9663 13.0498 54.6561C14.521 54.9698 17.4944 55.0016 19.0116 54.7198C21.1558 54.3215 23.3241 53.4426 25.185 52.2175C26.1613 51.5746 27.1117 50.6604 35.2756 42.5088C40.5212 37.2713 44.3647 33.3519 44.4707 33.1322C44.5709 32.9246 44.6718 32.4656 44.6949 32.1124C44.7795 30.8201 43.8318 29.7279 42.5323 29.6201C41.4458 29.53 41.4384 29.5355 37.6035 33.3473C33.8093 37.1187 33.8213 37.1095 32.9069 36.9379C31.891 36.7473 31.3749 35.6058 31.8724 34.6501C31.9861 34.4318 34.0613 32.2783 36.4839 29.8647C39.4111 26.9484 40.9559 25.3328 41.0892 25.0483C41.4991 24.174 41.2739 22.9434 40.5859 22.298C39.9424 21.6942 38.8298 21.498 38.0013 21.842C37.7307 21.9544 36.1334 23.4738 33.0031 26.5967C28.9806 30.6094 28.3522 31.1954 28.0014 31.2598C26.7376 31.4919 25.8137 30.5678 26.0449 29.3028C26.1094 28.95 26.808 28.2091 31.8231 23.1753C34.9608 20.0259 37.5983 17.3046 37.6842 17.128C37.9316 16.6196 37.9832 16.1472 37.8573 15.5456C37.7612 15.0866 37.6406 14.8897 37.1785 14.4375C36.3533 13.63 35.4323 13.4754 34.4474 13.9789C34.2415 14.0842 31.5935 16.6572 28.5631 19.6968C25.5326 22.7364 22.8745 25.3164 22.6563 25.4301C21.701 25.928 20.5599 25.4117 20.3694 24.3953C20.194 23.4604 20.0927 23.5859 25.0361 18.6265C28.1577 15.4948 29.6765 13.897 29.7888 13.6262C30.2832 12.4346 29.7042 10.9843 28.5397 10.4978C28.0113 10.277 26.9967 10.2901 26.5712 10.5234Z" fill="#2C2B46"/>
</svg>
