<svg width="22" height="21" viewBox="0 0 22 21" fill="none" xmlns="http://www.w3.org/2000/svg">
<path d="M10.9854 13.8083L14.2268 17.4936C15.4277 18.859 16.0282 19.5417 16.6567 19.3755C17.2852 19.2093 17.5008 18.3108 17.9318 16.5139L20.3229 6.54593C20.9868 3.77835 21.3187 2.39456 20.5808 1.71203C19.843 1.02949 18.564 1.53727 16.0061 2.55284L4.13876 7.26451C2.09293 8.07677 1.07001 8.48289 1.00507 9.18087C0.998423 9.25226 0.998313 9.32415 1.00474 9.39556C1.06754 10.0937 2.08921 10.5033 4.13255 11.3223C5.05838 11.6935 5.5213 11.879 5.8532 12.2344C5.89052 12.2743 5.9264 12.3157 5.96078 12.3584C6.26658 12.7384 6.39709 13.2371 6.65808 14.2345L7.14653 16.101C7.4005 17.0715 7.52749 17.5568 7.86008 17.623C8.19267 17.6891 8.48225 17.2868 9.06139 16.482L10.9854 13.8083ZM10.9854 13.8083L10.6676 13.4771C10.3059 13.1002 10.1251 12.9117 10.1251 12.6775C10.1251 12.4433 10.3059 12.2548 10.6676 11.8779L14.2406 8.15412" stroke="url(#paint0_linear_908_1239)" stroke-width="1.5" stroke-linecap="round" stroke-linejoin="round"/>
<defs>
<linearGradient id="paint0_linear_908_1239" x1="18.2973" y1="19.4" x2="11.2757" y2="-0.850913" gradientUnits="userSpaceOnUse">
<stop stop-color="#1292C8"/>
<stop offset="1" stop-color="#52BD8C"/>
</linearGradient>
</defs>
</svg>
