<svg width="11" height="8" viewBox="0 0 11 8" fill="none" xmlns="http://www.w3.org/2000/svg">
<path fill-rule="evenodd" clip-rule="evenodd" d="M9.75 0.75H7.75C7.33579 0.75 7 1.08579 7 1.5C7 1.91421 7.33579 2.25 7.75 2.25H7.93934L5.66657 4.52277L4.57404 2.88398C4.4494 2.69702 4.2475 2.57579 4.0239 2.55365C3.8003 2.53151 3.57855 2.61079 3.41967 2.76967L0.21967 5.96967C-0.0732233 6.26256 -0.0732233 6.73744 0.21967 7.03033C0.512563 7.32322 0.987437 7.32322 1.28033 7.03033L3.83343 4.47723L4.92596 6.11602C5.0506 6.30298 5.2525 6.42421 5.4761 6.44635C5.6997 6.46849 5.92145 6.38921 6.08033 6.23033L9 3.31066V3.5C9 3.91421 9.33579 4.25 9.75 4.25C10.1642 4.25 10.5 3.91421 10.5 3.5V1.5C10.5 1.2937 10.4167 1.10686 10.2819 0.971263C10.2814 0.970731 10.2809 0.9702 10.2803 0.96967C10.2798 0.96914 10.2793 0.96861 10.2787 0.968082C10.2072 0.896963 10.1249 0.843239 10.0371 0.806909C9.94866 0.770239 9.85169 0.75 9.75 0.75Z" fill="url(#paint0_linear_196_244)"/>
<defs>
<linearGradient id="paint0_linear_196_244" x1="10.5" y1="3.93367" x2="-2.36033e-07" y2="3.93367" gradientUnits="userSpaceOnUse">
<stop stop-color="#1292C8"/>
<stop offset="1" stop-color="#52BD8C"/>
</linearGradient>
</defs>
</svg>
