<svg width="80" height="24" viewBox="0 0 80 24" fill="none" xmlns="http://www.w3.org/2000/svg">
<path fill-rule="evenodd" clip-rule="evenodd" d="M0 12C0 6.30041 5.37234 1.6792 12.0002 1.6792C18.6281 1.6792 24 6.30041 24 12C24 17.6996 18.6277 22.3209 12.0002 22.3209C5.3728 22.3209 0 17.7003 0 12Z" fill="#003874"/>
<path fill-rule="evenodd" clip-rule="evenodd" d="M10.543 4.99369L13.3311 4.07251L13.3448 19.1439L10.5332 20.0859L10.543 4.99369Z" fill="#ED1C24"/>
<path fill-rule="evenodd" clip-rule="evenodd" d="M21.025 13.039C20.7635 15.1949 19.5541 17.373 16.9135 17.3771C15.3719 17.3799 14.1676 16.3243 13.3336 15.0329V13.537C14.3772 14.0552 15.3527 14.6113 16.5361 14.6282C17.994 14.6497 19.3122 14.0893 19.8574 13.0388H21.0253L21.025 13.039ZM12.1978 14.3927C10.9864 15.8529 9.81577 17.3444 7.62234 17.3444C4.52422 17.3444 3.05469 14.349 3.05469 11.8448C3.05469 9.43852 4.20312 6.59009 7.22138 6.59009C8.53048 6.59009 9.7906 7.39065 10.5417 8.23745L10.5394 10.2801C9.91189 9.85757 8.50622 9.4431 7.58847 9.42822C5.67449 9.39618 3.98708 10.2258 4.01637 12.1151C4.03628 13.4157 5.32501 14.2998 6.60711 14.2998C8.57076 14.2998 9.76039 12.506 10.7546 11.1445C11.1532 10.6247 11.5472 10.1015 11.9366 9.57493C13.0409 8.03193 14.3187 6.62327 16.5121 6.62327C19.096 6.62327 20.5465 8.70593 20.9566 10.8499H19.7894C19.3202 10.1546 18.4178 9.72918 17.5289 9.72918C15.4989 9.72918 14.2859 11.5967 13.2707 12.9717L12.195 14.3925" fill="white"/>
<g clip-path="url(#clip0_243_2428)">
<path d="M35.1908 5.21314C40.6711 -0.226914 47.3197 -1.63879 49.9803 2.06915C52.6409 5.77709 50.3025 13.2715 44.8222 18.7116C39.3418 24.1919 32.6933 25.6018 29.9924 21.8535C27.3741 18.1073 29.7125 10.6512 35.1908 5.21314Z" fill="#F06321"/>
<path d="M38.8182 2.31081C38.214 2.75391 37.6098 3.27757 37.0055 3.84353C32.21 8.59678 30.1939 15.1244 32.5725 18.3893C35.0297 21.6521 40.9128 20.4437 45.8292 15.6481C48.4898 13.0701 50.2622 10.0872 50.9873 7.30777C51.1887 5.2534 50.9068 3.4387 49.9803 2.06912C47.8856 -0.831168 43.3721 -0.591493 38.8182 2.31081Z" fill="#AE282E"/>
<path d="M45.7482 2.91496V3.03581C45.708 3.7206 45.3051 4.56651 44.5801 5.29159C43.4925 6.33891 42.0423 6.74173 41.4361 6.13952C40.7513 5.49501 41.1561 4.08314 42.2437 2.95525C43.3716 1.86764 44.8218 1.5051 45.426 2.14961C45.6274 2.35102 45.7482 2.59271 45.7482 2.91496ZM41.5589 21.4103C38.9789 23.3439 36.3203 24.3126 33.7402 23.9098C34.8278 23.9501 35.716 22.7396 36.4411 21.1284C37.1662 19.4768 37.569 17.9461 37.9315 16.494C38.4552 14.1979 38.4955 12.5866 38.2135 12.2241C37.7704 11.6581 36.8037 11.781 35.6737 12.4255C35.1098 12.7477 34.3847 12.5463 35.2327 11.499C36.1189 10.4517 39.5428 7.9522 40.7513 7.54938C42.1229 7.18684 43.6536 7.71051 43.1299 9.20094C42.7654 10.2885 38.0121 22.6994 41.5589 21.4103Z" fill="white"/>
</g>
<g clip-path="url(#clip1_243_2428)">
<path d="M56 0H80V24H56V0Z" fill="#ED232A"/>
<path d="M60.2002 4.20055H75.8019V19.8022H60.2002V4.20055Z" fill="white"/>
<path d="M66.8008 0H69.1998V24H66.8008V0Z" fill="white"/>
<path d="M56 10.8034H80V13.2024H56V10.8034Z" fill="white"/>
<path d="M64.4014 8.40121H71.6016V15.6016H64.4014V8.40121Z" fill="#004C8F"/>
</g>
<defs>
<clipPath id="clip0_243_2428">
<rect width="24" height="24" fill="white" transform="translate(28)"/>
</clipPath>
<clipPath id="clip1_243_2428">
<rect width="24" height="24" fill="white" transform="translate(56)"/>
</clipPath>
</defs>
</svg>
