<svg width="24" height="24" viewBox="0 0 24 24" fill="none" xmlns="http://www.w3.org/2000/svg">
<path fill-rule="evenodd" clip-rule="evenodd" d="M12.0007 21.24C17.1039 21.24 21.2407 17.1031 21.2407 12C21.2407 6.8969 17.1039 2.76001 12.0007 2.76001C6.89763 2.76001 2.76074 6.8969 2.76074 12C2.76074 17.1031 6.89763 21.24 12.0007 21.24ZM11.2169 7.95129C11.1016 7.60549 10.7279 7.4186 10.3821 7.53387C10.0363 7.64913 9.84938 8.02291 9.96465 8.36871L11.2363 12.1835C11.3283 12.4598 11.5373 12.6814 11.8076 12.7896L14.9656 14.0533C15.304 14.1888 15.6881 14.0242 15.8236 13.6858C15.959 13.3474 15.7944 12.9632 15.456 12.8278L12.4401 11.6209L11.2169 7.95129Z" fill="#686868"/>
</svg>
