<svg width="22" height="23" viewBox="0 0 22 23" fill="none" xmlns="http://www.w3.org/2000/svg">
<path d="M11 21.3999C16.5228 21.3999 21 16.9228 21 11.3999C21 5.87705 16.5228 1.3999 11 1.3999C5.47715 1.3999 1 5.87705 1 11.3999C1 12.7788 1.27907 14.0925 1.78382 15.2876C2.06278 15.948 2.20226 16.2783 2.21953 16.5279C2.2368 16.7775 2.16334 17.052 2.01642 17.6011L1 21.3999L4.79877 20.3835C5.34788 20.2366 5.62244 20.1631 5.87202 20.1804C6.12161 20.1976 6.45185 20.3371 7.11235 20.6161C8.30745 21.1208 9.62113 21.3999 11 21.3999Z" stroke="url(#paint0_linear_908_446)" stroke-width="1.5" stroke-linejoin="round"/>
<path d="M7.58815 11.7772L8.45909 10.6955C8.82616 10.2396 9.27994 9.81519 9.31546 9.20816C9.32444 9.05484 9.21656 8.36647 9.0008 6.98977C8.91601 6.44872 8.41086 6.3999 7.97332 6.3999C7.40314 6.3999 7.11805 6.3999 6.83495 6.52922C6.47714 6.69266 6.10979 7.15221 6.02917 7.53723C5.96539 7.84187 6.01279 8.05177 6.10759 8.47159C6.51023 10.2547 7.45481 12.0158 8.91948 13.4804C10.3842 14.9451 12.1452 15.8897 13.9283 16.2923C14.3481 16.3871 14.558 16.4345 14.8627 16.3707C15.2477 16.2901 15.7072 15.9228 15.8707 15.565C16 15.2818 16 14.9968 16 14.4266C16 13.989 15.9512 13.4839 15.4101 13.3991C14.0334 13.1833 13.3451 13.0755 13.1917 13.0844C12.5847 13.12 12.1603 13.5737 11.7044 13.9408L10.6227 14.8117" stroke="url(#paint1_linear_908_446)" stroke-width="1.5"/>
<defs>
<linearGradient id="paint0_linear_908_446" x1="18.2973" y1="21.3999" x2="9.8415" y2="-0.548612" gradientUnits="userSpaceOnUse">
<stop stop-color="#1292C8"/>
<stop offset="1" stop-color="#52BD8C"/>
</linearGradient>
<linearGradient id="paint1_linear_908_446" x1="14.6486" y1="16.3999" x2="10.4207" y2="5.42564" gradientUnits="userSpaceOnUse">
<stop stop-color="#1292C8"/>
<stop offset="1" stop-color="#52BD8C"/>
</linearGradient>
</defs>
</svg>
