<svg width="17" height="17" viewBox="0 0 17 17" fill="none" xmlns="http://www.w3.org/2000/svg">
<path d="M12.179 1.74977C12.3723 1.55649 12.6017 1.40318 12.8543 1.29858C13.1068 1.19397 13.3775 1.14014 13.6508 1.14014C13.9241 1.14014 14.1948 1.19397 14.4473 1.29858C14.6999 1.40318 14.9293 1.55649 15.1226 1.74977C15.3159 1.94305 15.4692 2.1725 15.5738 2.42503C15.6784 2.67756 15.7322 2.94822 15.7322 3.22156C15.7322 3.49489 15.6784 3.76555 15.5738 4.01808C15.4692 4.27061 15.3159 4.50006 15.1226 4.69334L5.18804 14.6279L1.14062 15.7317L2.24446 11.6843L12.179 1.74977Z" stroke="#1977A7" stroke-width="1.2" stroke-linecap="round" stroke-linejoin="round"/>
</svg>
